<svg xmlns="http://www.w3.org/2000/svg" viewBox="0 0 500 500"><g id="freepik--background-complete--inject-342"><rect y="382.4" width="500" height="0.25" style="fill:#ebebeb"></rect><rect x="416.78" y="398.49" width="33.12" height="0.25" style="fill:#ebebeb"></rect><rect x="322.53" y="401.21" width="8.69" height="0.25" style="fill:#ebebeb"></rect><rect x="396.59" y="389.21" width="19.19" height="0.25" style="fill:#ebebeb"></rect><rect x="52.46" y="390.89" width="43.19" height="0.25" style="fill:#ebebeb"></rect><rect x="104.56" y="390.89" width="6.33" height="0.25" style="fill:#ebebeb"></rect><rect x="131.47" y="395.11" width="93.68" height="0.25" style="fill:#ebebeb"></rect><path d="M237,337.8H43.91a5.71,5.71,0,0,1-5.7-5.71V60.66A5.71,5.71,0,0,1,43.91,55H237a5.71,5.71,0,0,1,5.71,5.71V332.09A5.71,5.71,0,0,1,237,337.8ZM43.91,55.2a5.46,5.46,0,0,0-5.45,5.46V332.09a5.46,5.46,0,0,0,5.45,5.46H237a5.47,5.47,0,0,0,5.46-5.46V60.66A5.47,5.47,0,0,0,237,55.2Z" style="fill:#ebebeb"></path><path d="M453.31,337.8H260.21a5.72,5.72,0,0,1-5.71-5.71V60.66A5.72,5.72,0,0,1,260.21,55h193.1A5.71,5.71,0,0,1,459,60.66V332.09A5.71,5.71,0,0,1,453.31,337.8ZM260.21,55.2a5.47,5.47,0,0,0-5.46,5.46V332.09a5.47,5.47,0,0,0,5.46,5.46h193.1a5.47,5.47,0,0,0,5.46-5.46V60.66a5.47,5.47,0,0,0-5.46-5.46Z" style="fill:#ebebeb"></path><rect x="61.39" y="80.59" width="160.21" height="146.13" style="fill:#e6e6e6"></rect><rect x="62.96" y="80.59" width="162.24" height="146.13" style="fill:#f5f5f5"></rect><rect x="77.56" y="79.01" width="133.04" height="149.3" transform="translate(297.74 9.57) rotate(90)" style="fill:#fafafa"></rect><polygon points="87.75 220.18 146.51 87.14 166.47 87.14 107.71 220.18 87.75 220.18" style="fill:#fff"></polygon><polygon points="113.37 220.18 172.13 87.14 185.87 87.14 127.11 220.18 113.37 220.18" style="fill:#fff"></polygon><rect x="100.64" y="149.8" width="133.04" height="7.72" transform="translate(320.81 -13.5) rotate(90)" style="fill:#e6e6e6"></rect><rect x="49.32" y="149.8" width="133.04" height="7.72" transform="translate(269.49 37.82) rotate(90)" style="fill:#e6e6e6"></rect><rect x="98.54" y="148.42" width="142.06" height="9.76" transform="translate(322.87 -16.27) rotate(90)" style="fill:#f5f5f5"></rect><rect x="47.22" y="148.42" width="142.06" height="9.76" transform="translate(271.55 35.05) rotate(90)" style="fill:#f5f5f5"></rect><rect x="151.87" y="153.31" width="133.04" height="0.69" transform="translate(372.05 -64.73) rotate(90)" style="fill:#e6e6e6"></rect><path d="M227.92,72.17H54.36a.85.85,0,0,0-.84.84h0a.84.84,0,0,0,.84.83H227.92a.84.84,0,0,0,.84-.83h0A.85.85,0,0,0,227.92,72.17Z" style="fill:#e6e6e6"></path><path d="M61.39,77.68h0a1.13,1.13,0,0,1-1.12-1.13V74.13A1.12,1.12,0,0,1,61.39,73h0a1.13,1.13,0,0,1,1.13,1.12v2.42A1.14,1.14,0,0,1,61.39,77.68Z" style="fill:#e6e6e6"></path><path d="M215.34,77.68h0a1.14,1.14,0,0,1-1.13-1.13V74.13A1.13,1.13,0,0,1,215.34,73h0a1.12,1.12,0,0,1,1.12,1.12v2.42A1.13,1.13,0,0,1,215.34,77.68Z" style="fill:#e6e6e6"></path><rect x="65.53" y="73.01" width="162.13" height="28.4" style="fill:#e0e0e0;opacity:0.6000000000000001"></rect><path d="M395.4,226.55c-.7-4.46,4.61-5.85,3-10.89s4.08-6.48,6.49-10-1.72-7.43-.07-12.35,11.84-7.16,11.84-7.16,4.81,3.93,4.81,9.3-5,6.8-3.86,11.26,5.94,8.8,2.87,12.55.6,7,.45,11.54-8.66,7.82-8.66,7.82S397,236.53,395.4,226.55Z" style="fill:#e0e0e0"></path><path d="M413.18,221.36c0-5.12-6.18-5.78-5.18-11.72s-5.67-6.58-9-10.09.68-8.62-2-13.86-14.51-6-14.51-6-4.73,5.22-3.82,11.25,6.78,6.78,6.26,12-5.18,10.89-1.1,14.57.52,7.95,1.46,13,11,7.31,11,7.31S413.11,232.83,413.18,221.36Z" style="fill:#ebebeb"></path><path d="M427.28,229.3s-.61,20.55-24,20.55-24-20.55-24-20.55Z" style="fill:#f5f5f5"></path><rect x="160.49" y="242.62" width="26.92" height="41.06" rx="3.74" transform="translate(347.89 526.29) rotate(180)" style="fill:#fafafa"></rect><rect x="160.49" y="239.57" width="26.92" height="3.53" rx="1.26" transform="translate(347.89 482.67) rotate(-180)" style="fill:#e6e6e6"></rect><path d="M214.44,310s-1.06,16.66-41.6,16.66S131.24,310,131.24,310Z" style="fill:#f0f0f0"></path><rect x="130.05" y="259.73" width="36.99" height="23.94" rx="5.14" transform="translate(297.09 543.4) rotate(180)" style="fill:#f0f0f0"></rect><rect x="130.05" y="255.55" width="36.99" height="4.85" rx="1.73" transform="translate(297.09 515.95) rotate(180)" style="fill:#f5f5f5"></rect><rect x="225.53" y="299.75" width="5.04" height="82.64" style="fill:#e6e6e6"></rect><rect x="85.05" y="283.67" width="27.29" height="16.08" transform="translate(197.39 583.43) rotate(180)" style="fill:#e6e6e6"></rect><rect x="112.34" y="283.67" width="135.68" height="16.08" style="fill:#f5f5f5"></rect><rect x="85.05" y="326.62" width="27.29" height="16.08" transform="translate(197.39 669.32) rotate(180)" style="fill:#e6e6e6"></rect><rect x="112.34" y="326.62" width="135.68" height="16.08" style="fill:#f5f5f5"></rect><rect x="89.85" y="299.75" width="5.04" height="82.64" style="fill:#e6e6e6"></rect><rect x="112.34" y="299.75" width="5.04" height="82.64" style="fill:#f5f5f5"></rect><rect x="242.98" y="299.75" width="5.04" height="82.64" style="fill:#f5f5f5"></rect><rect x="279.68" y="256.14" width="29.04" height="119.73" style="fill:#f0f0f0"></rect><rect x="285.26" y="375.88" width="143.2" height="6.52" style="fill:#f0f0f0"></rect><rect x="308.72" y="256.14" width="125.31" height="119.73" transform="translate(742.75 632.02) rotate(180)" style="fill:#f5f5f5"></rect><rect x="320.13" y="302.21" width="102.48" height="27.6" transform="translate(742.75 632.02) rotate(180)" style="fill:#f0f0f0"></rect><rect x="320.13" y="335.97" width="102.48" height="27.6" transform="translate(742.75 699.53) rotate(180)" style="fill:#f0f0f0"></rect><path d="M383.4,305.91h-24A2.32,2.32,0,0,1,357,303.6h0a2.32,2.32,0,0,1,2.31-2.32h24a2.32,2.32,0,0,1,2.31,2.32h0A2.32,2.32,0,0,1,383.4,305.91Z" style="fill:#f5f5f5"></path><rect x="320.13" y="268.46" width="102.48" height="27.6" transform="translate(742.75 564.51) rotate(180)" style="fill:#f0f0f0"></rect><path d="M383.4,272.16h-24a2.32,2.32,0,0,1-2.31-2.32h0a2.32,2.32,0,0,1,2.31-2.31h24a2.32,2.32,0,0,1,2.31,2.31h0A2.32,2.32,0,0,1,383.4,272.16Z" style="fill:#f5f5f5"></path><rect x="357.04" y="335.04" width="28.67" height="4.63" rx="2.31" style="fill:#f5f5f5"></rect><rect x="308.72" y="249.85" width="129.18" height="6.3" style="fill:#f0f0f0"></rect><rect x="275.62" y="249.85" width="33.1" height="6.3" transform="translate(584.34 505.99) rotate(180)" style="fill:#e6e6e6"></rect><rect x="281.88" y="124.51" width="72.92" height="82.72" style="fill:#f0f0f0"></rect><rect x="282.94" y="124.51" width="77.82" height="82.72" style="fill:#f5f5f5"></rect><rect x="287.01" y="133.48" width="69.69" height="64.78" transform="translate(487.72 -155.98) rotate(90)" style="fill:#fff"></rect><rect x="303.9" y="149.18" width="35.9" height="33.38" rx="6.42" transform="translate(487.72 -155.98) rotate(90)" style="fill:#f5f5f5"></rect><rect x="379.51" y="100.08" width="54.72" height="61.37" style="fill:#f0f0f0"></rect><rect x="380.36" y="100.08" width="57.73" height="61.37" style="fill:#f5f5f5"></rect><rect x="383.38" y="106.74" width="51.69" height="48.05" transform="translate(539.99 -278.46) rotate(90)" style="fill:#fff"></rect><path d="M405.87,123.51l-6.43,11.14a3.87,3.87,0,0,0,3.35,5.81h12.87a3.87,3.87,0,0,0,3.35-5.81l-6.43-11.14A3.88,3.88,0,0,0,405.87,123.51Z" style="fill:#f5f5f5"></path></g><g id="freepik--Shadow--inject-342"><ellipse id="freepik--path--inject-342" cx="250" cy="416.24" rx="193.89" ry="11.32" style="fill:#f5f5f5"></ellipse></g><g id="freepik--Bowl--inject-342"><path d="M189.7,395.08A7.89,7.89,0,0,0,184,388.3c-.51-3.69-3.92-6.48-8.11-6.77a5.51,5.51,0,0,0-2.42-1.52c-.35-2.55-2.91-4.43-5.92-4.24a5.76,5.76,0,0,0-5,3.31,5.76,5.76,0,0,0-5.4-2.64,6.49,6.49,0,0,0-1.17.19,6,6,0,0,0-4.61-1.65,5.56,5.56,0,0,0-5.24,4.1,7.44,7.44,0,0,0-1.5-.07c-3.6.24-6.36,2.95-6.16,6.08a5.17,5.17,0,0,0,.41,1.6,9.91,9.91,0,0,0-1.09,0c-5.77.37-10.19,4.72-9.87,9.72s5.26,8.75,11,8.38a11.38,11.38,0,0,0,6.65-2.62,9.91,9.91,0,0,0,14.83-.4,10,10,0,0,0,13.89-.4,9.72,9.72,0,0,0,6.86,2.14C186.14,403.2,190,399.42,189.7,395.08Z" style="fill:#407BFF"></path><path d="M189.7,395.08A7.89,7.89,0,0,0,184,388.3c-.51-3.69-3.92-6.48-8.11-6.77a5.51,5.51,0,0,0-2.42-1.52c-.35-2.55-2.91-4.43-5.92-4.24a5.76,5.76,0,0,0-5,3.31,5.76,5.76,0,0,0-5.4-2.64,6.49,6.49,0,0,0-1.17.19,6,6,0,0,0-4.61-1.65,5.56,5.56,0,0,0-5.24,4.1,7.44,7.44,0,0,0-1.5-.07c-3.6.24-6.36,2.95-6.16,6.08a5.17,5.17,0,0,0,.41,1.6,9.91,9.91,0,0,0-1.09,0c-5.77.37-10.19,4.72-9.87,9.72s5.26,8.75,11,8.38a11.38,11.38,0,0,0,6.65-2.62,9.91,9.91,0,0,0,14.83-.4,10,10,0,0,0,13.89-.4,9.72,9.72,0,0,0,6.86,2.14C186.14,403.2,190,399.42,189.7,395.08Z" style="opacity:0.2"></path><rect x="111.22" y="401.53" width="8.58" height="1" transform="translate(-300.68 360.15) rotate(-68.22)" style="fill:#407BFF"></rect><path d="M193.94,394.6H124.1a3.54,3.54,0,0,0-3.28,2.22L115,411.39a3.54,3.54,0,0,0,3.29,4.85h81.47a3.54,3.54,0,0,0,3.28-4.85l-5.82-14.57A3.53,3.53,0,0,0,193.94,394.6Z" style="fill:#407BFF"></path></g><g id="freepik--Dog--inject-342"><path d="M331.62,242.43c12.73,2.62,21.58,8.83,25.14,16.67s-.15,18.79-.85,25.16,1.93,26.14-3.38,45.74-8.24,31.21-6,38.89-.18,26.79-.56,31.2,4.23,10.86-3.82,11.6a66.37,66.37,0,0,1-19.17-1.1c-.23-6.5,8.53-9.19,11.43-14.95s1.95-14.22,1.15-17.28-.07-8.21.34-11.52-6.52-24.26-11.94-32.35S304,316.24,307.33,296,331.62,242.43,331.62,242.43Z" style="fill:#407BFF"></path><path d="M331.62,242.43c12.73,2.62,21.58,8.83,25.14,16.67s-.15,18.79-.85,25.16,1.93,26.14-3.38,45.74-8.24,31.21-6,38.89-.18,26.79-.56,31.2,4.23,10.86-3.82,11.6a66.37,66.37,0,0,1-19.17-1.1c-.23-6.5,8.53-9.19,11.43-14.95s1.95-14.22,1.15-17.28-.07-8.21.34-11.52-6.52-24.26-11.94-32.35S304,316.24,307.33,296,331.62,242.43,331.62,242.43Z" style="opacity:0.30000000000000004"></path><path d="M376.23,250.92c9.27.52,20.82,12.7,24.37,26.15s10.32,43.46,10.15,57.33-6.5,23.16-9.5,37c-12.76,4.1-20.57-50.53-23.46-74A293.53,293.53,0,0,1,376.23,250.92Z" style="fill:#407BFF"></path><path d="M376.23,250.92c9.27.52,20.82,12.7,24.37,26.15s10.32,43.46,10.15,57.33-6.5,23.16-9.5,37c-12.76,4.1-20.57-50.53-23.46-74A293.53,293.53,0,0,1,376.23,250.92Z" style="opacity:0.30000000000000004"></path><path d="M212.12,277s-17.8-4.57-33.33-.45a1.18,1.18,0,0,0-.17,2.2c9.25,3.34,18.65,13.1,18.65,13.1Z" style="fill:#407BFF"></path><path d="M212.12,277s-17.8-4.57-33.33-.45a1.18,1.18,0,0,0-.17,2.2c9.25,3.34,18.65,13.1,18.65,13.1Z" style="opacity:0.30000000000000004"></path><path d="M387.93,372.15c-2.82-7.88-.93-19.77,2.62-39.89s-.61-40.39-.44-46.92,2.86-17.77-1.22-25.81c-3.59-7.08-8.93-13.65-18.7-16.95-11-4.83-14.15-1.89-22.51-3-11.45-1.5-21.66-3.11-28.3-4.69-9.25-2.19-10.13-2.81-18.54-2.47s-16.39,4.05-22.65,5.24c-7.31,1.38-12.34,1.34-16.25,3.43l0,0h0l-.18.1c-8.28,4.5-25.27,20-31.7,27.7-4.17,1-11.34,3.43-22.44,9.21-19.93,10.39-22,32.17-22,32.17l-21.26,24.64s3.51,4.76,14,4.29,21.12-3.75,28.11-8.25,42.76.46,42.76.46l-4.8-6.44A181.51,181.51,0,0,0,264,317.87c.24,10.51,7.19,35,6,56.74-.46,8.86,1.81,9.82,2.43,17.53.26,3.23.52,10.33-4.08,10.88-9.8,1.19-5.86,10.55-5.86,10.55s14,3,18.5-.49a14.53,14.53,0,0,0,.65,3.48s18.12,5,21.65-1.87c6-11.77,1.78-22.08.83-27.36s1.36-7.15-.3-14.82,1.34-40.27,7.36-49.07c.12-.17.22-.36.33-.54a85.9,85.9,0,0,0,36-6.66c4.48,9.16,11.92,15.34,15.69,20.63,5.9,8.3,14.32,29.79,14.18,33.19s-.41,8.67.61,11.81,2.62,11.82.28,17.72-10.59,8.68-9.84,15.34a61,61,0,0,0,18.64,1.13c7.72-.75,2.74-7.37,2.75-11.9S390.76,380,387.93,372.15ZM287.82,404.93a9.09,9.09,0,0,0-3.43,1c1.54-7.62-.82-16.38-1.64-20.45-1.07-5.27,1.21-7.16-.63-14.81-1.56-6.48,1.15-33.33,3.83-46.91,1.46,13.1,6.25,33.3,4.85,52.39-.66,8.86.87,10.2,1.32,17.9C292.31,397.31,292.42,404.41,287.82,404.93Z" style="fill:#407BFF"></path><path d="M307.17,288.22a25.65,25.65,0,0,1,6.32,17.69C320.42,299.89,314.92,289.67,307.17,288.22Z" style="opacity:0.1"></path><path d="M284.94,322.57a27.81,27.81,0,0,1-14.16-5.29C272.17,324.27,280,326,284.94,322.57Z" style="opacity:0.1"></path><path d="M372.15,294.72s-7.88,13.2-20.31,20.94C358.9,316,374,311.17,372.15,294.72Z" style="opacity:0.1"></path><path d="M231,309.24c15.93-5.75-7.94-19.56-19.7-12.61S185.81,325.56,231,309.24Z" style="opacity:0.1"></path><path d="M218,306.29c3.58-3.25-8.92-2.77-10.71.15S207.86,315.5,218,306.29Z" style="opacity:0.30000000000000004"></path><path d="M170.25,328c4.1,2.9,4.12,7.44,1.79,10.83-5.7-1.08-7.77-3.89-7.77-3.89Z" style="opacity:0.30000000000000004"></path><path d="M229.27,277.81c6.42-2.34,18-5.74,28.76-4.66a1.21,1.21,0,0,1,.33,2.22c-7.39,4.28-14.58,13.22-17.05,16.48a1.38,1.38,0,0,1-2,.3l-10.92-8.91A3.28,3.28,0,0,1,229.27,277.81Z" style="opacity:0.30000000000000004"></path></g></svg>