<svg xmlns="http://www.w3.org/2000/svg" viewBox="0 0 500 500"><g id="freepik--background-complete--inject-21"><rect y="382.4" width="500" height="0.25" style="fill:#ebebeb"></rect><rect x="416.78" y="398.49" width="33.12" height="0.25" style="fill:#ebebeb"></rect><rect x="322.53" y="401.21" width="8.69" height="0.25" style="fill:#ebebeb"></rect><rect x="396.59" y="389.21" width="19.19" height="0.25" style="fill:#ebebeb"></rect><rect x="52.46" y="390.89" width="43.19" height="0.25" style="fill:#ebebeb"></rect><rect x="104.56" y="390.89" width="6.33" height="0.25" style="fill:#ebebeb"></rect><rect x="131.47" y="395.11" width="93.68" height="0.25" style="fill:#ebebeb"></rect><path d="M237,337.8H43.91a5.71,5.71,0,0,1-5.7-5.71V60.66A5.71,5.71,0,0,1,43.91,55H237a5.71,5.71,0,0,1,5.71,5.71V332.09A5.71,5.71,0,0,1,237,337.8ZM43.91,55.2a5.46,5.46,0,0,0-5.45,5.46V332.09a5.46,5.46,0,0,0,5.45,5.46H237a5.47,5.47,0,0,0,5.46-5.46V60.66A5.47,5.47,0,0,0,237,55.2Z" style="fill:#ebebeb"></path><path d="M453.31,337.8H260.21a5.72,5.72,0,0,1-5.71-5.71V60.66A5.72,5.72,0,0,1,260.21,55h193.1A5.71,5.71,0,0,1,459,60.66V332.09A5.71,5.71,0,0,1,453.31,337.8ZM260.21,55.2a5.47,5.47,0,0,0-5.46,5.46V332.09a5.47,5.47,0,0,0,5.46,5.46h193.1a5.47,5.47,0,0,0,5.46-5.46V60.66a5.47,5.47,0,0,0-5.46-5.46Z" style="fill:#ebebeb"></path><path d="M429.44,378.63l-.47-69L418.73,301,414,278.19,407.85,271l-3.31-16-5.6,7.28L395.78,306l-3.17-5-2.52-17L385,289.46,378.7,291,375,327.12l-94,11.22-19.58-16.76-8-32.65-8.25-8.52-2.52-15.74-7.88,2.74V284l-6.71,3.86-2.87,33.7-8.42,11.66-2.4-20.83s-6.45-5.16-7.87-6.41-9.56-23.89-8.33-25.59S196.49,264,196.49,264l-8.13,4.87v24.35l-8.49,2.15L178.59,306,157,309.5l-3.48-16.26h-9.65l-3,9.26-8.78-.06-13.9,10L106.7,290l-11.62,5.4L86.72,276l-8.8,11.39-3.25,36.92-4.51.53-2.09-8-8.46,8v53.83Z" style="fill:#f5f5f5"></path><path d="M285.81,99.71H266.3a3.11,3.11,0,0,1,.08-6.22,2.92,2.92,0,0,1,.9.13,6.11,6.11,0,0,1-.07-1,6.6,6.6,0,0,1,6.6-6.6,6.06,6.06,0,0,1,1.21.12,5.76,5.76,0,0,1,10.69,2.91h.1a5.32,5.32,0,0,1,0,10.63Z" style="fill:#f5f5f5"></path><path d="M135.93,114.26H116.42a3.11,3.11,0,0,1,.09-6.22,3.38,3.38,0,0,1,.9.13,6,6,0,0,1-.07-1,6.59,6.59,0,0,1,6.59-6.59,7,7,0,0,1,1.22.11,5.76,5.76,0,0,1,10.69,2.92h.09a5.32,5.32,0,1,1,0,10.63Z" style="fill:#f5f5f5"></path><path d="M292.12,284c-2.12-15.47,4.41-32.84,13.6-44.32a40.06,40.06,0,0,0,4.74-6.58c3.8-7.45-2.11-12.67-7.62-16.86-20.8-15.78,2.61-18.53,13.53-27.57a5.49,5.49,0,0,0,2.18-3c.37-2-1.34-3.81-2.9-5.17-7.55-6.56-16.89-13.15-18.57-23.78-.71-4.43.39-9.31,3.6-12.44,8.09-7.88,54.43,1.43,45.8-19.41-1.27-3-3.11-6.19-2.44-9.42,4.16-20,53.45-12.11,66.77-11.45A102.25,102.25,0,0,0,377.26,108c-5,1.46-10.73,4.29-11.26,9.49s4.28,8.83,8,11.38c5.66,3.87,12.83,9.8,6.82,17-7.61,9.14-22.42,10.4-33.18,13.26-3.75,1-7.82,2.52-8,7.08-.11,2.59,1,5.06,2.28,7.33,2.69,4.84,6.12,9.29,8.24,14.41s2.29,11.94-1.3,16.66c-6.91,9.06-19.35,6.57-10.46,21.6,11.2,18.95,10.61,41.26,2.37,61.32C336.62,297.62,329,309.26,317,310c-6.68.4-13.2-3.16-17.43-8.34A34.81,34.81,0,0,1,292.12,284Z" style="fill:#e0e0e0"></path><path d="M67.1,359.88l16.53-3.3,3.72-45.17,11.28-7.81,3.93-38.74,10.13-11.41,4.71,8.89,7.69,14,2.57,13.77L132,302.44l9.42,14.74,8.46-7.55s4.6-7.49,6.81-8.46,11.23-1.8,11.23-1.8l12.54,12v9.36l12.83,6.84,7.89,7.93,4.72,5.83,8.76,4.55c19.27-13.29,67-50.61,77.62-100.15l12,11.28,8.55-13.43,6.73,14.16-4.72,14.9,8.24,7.51-3.52,15.05,9.81-15.05-5.27-10.66,4-9.37-3-13.87,9.27-4.19,11.82,18.06,8.09-14.39s10,75.14,94,136.94H49.06Z" style="fill:#ebebeb"></path><path d="M361.77,210.51h19.17a12.85,12.85,0,0,1-.08-1.4,12.62,12.62,0,0,1,12.62-12.62l.46,0a11.16,11.16,0,0,1,21.62,3.9v0a10.66,10.66,0,0,1,10.14,10.08h.5a5.61,5.61,0,1,1,0,11.22H361.77a5.61,5.61,0,1,1,0-11.22Z" style="fill:#f5f5f5"></path><path d="M64.47,177.74H76.69a8.69,8.69,0,0,1,0-.89,8,8,0,0,1,8-8H85a7.12,7.12,0,0,1,13.79,2.49h0a6.8,6.8,0,0,1,6.46,6.43h.32a3.58,3.58,0,1,1,0,7.16H64.47a3.58,3.58,0,0,1,0-7.16Z" style="fill:#f5f5f5"></path><path d="M199.26,154.82a23.32,23.32,0,0,1,39.8.34,12.46,12.46,0,0,1,15.89,12v0h6.6a6.25,6.25,0,0,1,0,12.5H238.77a23.34,23.34,0,0,1-36.4,3.83c-.4,0-.79.06-1.19.06a14.46,14.46,0,0,1-1.92-28.79Z" style="fill:#f5f5f5"></path><path d="M395.4,119.78a12.14,12.14,0,0,1,20.7.18,6.38,6.38,0,0,1,1.75-.25,6.52,6.52,0,0,1,6.52,6.51h3.43a3.25,3.25,0,1,1,0,6.5H416a12.13,12.13,0,0,1-18.94,2c-.2,0-.41,0-.62,0a7.52,7.52,0,0,1-1-15Z" style="fill:#f5f5f5"></path></g><g id="freepik--Shadow--inject-21"><ellipse id="freepik--path--inject-21" cx="250" cy="416.24" rx="193.89" ry="11.32" style="fill:#f5f5f5"></ellipse></g><g id="freepik--Rock--inject-21"><path d="M227.14,328.12l6.31-8.67,3.76-2.17,1.19-5.64,1.93-3.71,1.78-3.49,1.8-6.15v5.36l3.11-2.08,2.53-4.54,1.46-1.39,2.6-2.47,2-3.38-1,4.51-3.33,3.16a22.53,22.53,0,0,1-3.69,6.3l-2.62.69s-1.76,3-2.24,3.92-2.43,7.33-2.43,7.33l.47,3.12,3.18-1.28,3.23,1.11,4-1-9.83,7.75-5.11.91s-2.9,3.49-4,3.82-5,1.61-5,1.61l-3.68,1.11Z" style="fill:#263238"></path><path d="M276.89,306.67l9.93-4,4.34.14,4-4.17,3.6-2.13,3.35-2,4.78-4.27L304,294.72l3.74-.13,4.54-2.52,2-.41,3.51-.73,3.5-1.8-3.19,3.32-4.5.94a22.94,22.94,0,0,1-6.46,3.4l-2.59-.79s-3.1,1.65-4,2.15-5.93,4.94-5.93,4.94L293.43,306l3.37.6,2.16,2.65,3.94,1.21-12.44,1.4-4.82-1.92s-4.31,1.44-5.44,1.13-5.09-1.27-5.09-1.27l-3.71-1Z" style="fill:#263238"></path><path d="M151.42,371.06,138,366.91l-9.21-13.12,3.12-.71-1.75-7.55-3.54-7.74-4-3.23-6.5-1,6-.43-2.34-6-4.13-3.36,5.15,2.73,3.63,5.73L129,336l3.83,8.18,4.39,8.94s3.69-6.09,4-7.14-.89-5.47-.89-5.47l-.05-3.07-3-3.38,4,2.2.31,4.31,2.38,4.28,4.94-4.18,1.58-8-.07,8-5.6,8.19-1.76,9,1.4,3.91,3.73,2.63,3.86,5.9,3.64,4Z" style="fill:#263238"></path><path d="M394.34,360.14l10.29-12.92v-7.51l1.55-8.73L403,315.09l-8.7-6.4-2.11-14.15-2.9-5.44,4.75,4,5.54-15-1.86-4.51,3.44,4.15L395.4,296l2.36,11.75,7.13,5.23,18.2-11.55,2.37-10.08-2.64-7.92.27-5,1.32,5.74,3.16,6.91,5.77-4,7.42-12.41-5.29,14.16-6.84,5.68-1.85,10.73L408.94,318l3.33,14.17-1.58,7.71,2.9,10.26,17.67,3.14,7.65-3.33,1.85-5.18V350l6.33-1.17L440,352.23l-7.92,5.87s-18.19-.5-17.93-.15-7.94,17.75-7.94,17.75Z" style="fill:#263238"></path><polygon points="242.72 318.65 262.77 302.93 261.4 305.65 263.53 304.37 262.53 307.18 266.66 305.16 266.39 303.66 268.73 303.66 266.52 301.41 296.37 305.16 293.29 306.94 268.39 306.64 251.04 324.14 242.72 318.65" style="fill:#263238"></polygon><polygon points="167.76 350.19 157.55 345.31 157.55 346.89 155.67 346.89 159.57 354.23 167.05 356.03 167.76 350.19" style="fill:#263238"></polygon><polygon points="435.46 416.68 408.94 366.92 397.96 362.3 371.79 306.17 352.98 295.38 326.05 307.74 315.74 298.81 287.62 302.39 250.07 318.22 233.88 312.77 214.25 308.01 192.6 321.86 174.59 341.18 162.08 352.44 138.97 350.35 108.11 359.51 78.15 416.68 435.46 416.68" style="fill:#263238"></polygon><polygon points="435.47 416.68 78.15 416.68 108.11 359.51 138.98 350.35 162.08 352.44 174.59 341.18 192.6 321.86 214.25 308.01 233.88 312.77 250.07 318.22 287.62 302.39 315.74 298.81 326.05 307.73 352.98 295.38 371.79 306.17 397.96 362.3 408.94 366.92 435.47 416.68" style="fill:#fff;opacity:0.30000000000000004"></polygon><path d="M396.59,366.39s1.84,3.64,1.84,5.32S387.75,374,387.75,374s3.95,30.46,3.95,31c-.27-.48-8.3-31.4-8.3-31.4l5.14-5.92L385.37,351l-5.85-10.1s-4.83,10.17-6.65,11.27-1.74,8.79-2.27,10.22,5.26,25.35,5.6,26.78L364.65,359l-6.18-13.79h-5.63l-5.26,5.8s-6.91-2.7-7.77-2.3-3.87,4.53-3.87,4.53l-.7,33.84-3.54-34.9,1.3-19.05,2.94-11.26-4.24-8.4S329.2,315,328,315s-3.54,5.61-3.5,6.86-3.27,12.2-3.27,12.2V319.47l4.47-8.53-11.45-9.53a36.55,36.55,0,0,1-4.68,6.52c-2.63,2.77,0,7,0,7L314.24,334l-2.45-2.42-7.8-2.53s-7.23,7.33-9.17,8.93-5.18,7.89-6,10.26,3.62,6.33,7.21,11.08,2,7,2,7l-5.48,28.72s.26-15.19.11-16.77-6.95-19.78-6.95-19.78l-12.25-9.49-16.64,7.26s-12.27-4.89-14.74-8.06-.57-11.89-.57-11.89L246.25,324l-5.36-2.21-8.35-.48-1.49,9-2.25,7-16.3-2.17-6.84,8.51A71.06,71.06,0,0,1,211,351c1.22,2.3,1.55,8,1.55,8l-3.56,36.15s-2.38-16.77-3.28-21.36a27.73,27.73,0,0,1-.8-5.76s-5-7.45-6.5-7.85-7.68,3.95-7.68,3.95-18.93,38.78-20.13,40.82,9.5-40.42,9.5-40.42l10.63-17.4L183,341.85l-8.55,10.29-3.17,17.55-3.12-9.55-6.6-5.31s-3.29,4.13-4.68,4.68l-7.25,2.85-6.83,36.38s.43-20.4,0-23.42-.32-11.23-.32-11.23l-5.43-1.73s-2.92.55-3.75,2.13-2.33,5.54-3.49,7-5.92,0-5.92,0h-4.49l-4.07,3.79h-3.65L99.08,391.14l9-31.63L139,350.35l23.1,2.09,12.51-11.26,18-19.32L214.25,308l19.63,4.76,16.19,5.45,37.55-15.83,28.12-3.58,10.31,8.92L353,295.38l18.81,10.79L398,362.3l11,4.62Z" style="fill:#fff;opacity:0.2"></path><path d="M163.1,407.35l-1.94-10.55,1-4.22-3.28-4.74-1.35-4-1.31-3.69L153,374.65l3.88,3.69.64-3.69-1.55-5v-5.6l-1.06-3.8,2.61,3.8v4.6a22.69,22.69,0,0,1,2,7l-1.3,2.38s1,3.37,1.3,4.32,3.63,6.81,3.63,6.81l2.59,1.8,1.26-3.17,3-1.59,2-3.6-1.15,12.46-2.86,4.33s.53,4.51,0,5.55-2.27,4.74-2.27,4.74l-1.74,3.42Z" style="fill:#263238"></path><path d="M89.07,400.64l-6.53-17.16L81,374.19l-3.57-4.5L72.05,358l-8.7-3.74-1.78-2.09,2.57,1.08,7.52,3.11-.2-2.1-1.78-6.35s-.2-3.06-.2-4.2v-7.3l1.39,7.3.2,3.8,3,4.66L75.32,356a4.79,4.79,0,0,1,1.28,3.12c.2,2.18,2.6,6.73,4.37,7.92a70.05,70.05,0,0,1,5.52,4.64l.2,4.65L91,381.31l5.54,2.77-2.37,11Z" style="fill:#263238"></path><path d="M327.81,375.18l-5.28-13.06,4.34-15.43,2.53,2,4.74-6.13,3.76-7.64v-5.11l-3.36-5.65,4.15,4.42,3.17-5.6v-5.32l1.13,5.71-2.15,6.44v5.85l-3.93,8.14-4.15,9s7.06-1,8.08-1.38,3.68-4.15,3.68-4.15l2.34-2,.72-4.46.81,4.46-3.15,3-1.81,4.55,6.36,1.19,7.2-3.83-6.26,5-9.89.83-8.08,4.31-2.15,3.56.32,4.55-2.13,6.73-.79,5.34Z" style="fill:#263238"></path><path d="M404.71,280.24a2.12,2.12,0,0,0,.07-.57l-2.26-.05a8.94,8.94,0,0,0-1-.27.39.39,0,0,1-.11-.15c-.26-.65.8-.88,1.46-1.09a2.52,2.52,0,0,0,1.57-2.28,7.64,7.64,0,0,0-.57-2.86A26.24,26.24,0,0,1,401,273a1.39,1.39,0,0,0-1.82-2c-.08-.32-.16-.65-.25-1-1.06.08-3.19.7-4.2.32s-1.22-2.09-2-.69a1.17,1.17,0,0,1-1.36.51c-.46-.17-.77-.61-1.22-.8-.9-.39-2,.33-2.89,0-.53-.2-.95-.73-1.51-.72-.74,0-1.08.92-1.23,1.64l-.26,1.28a1.72,1.72,0,0,1-.25.71c-.33.44-1,.47-1.4.83a1.76,1.76,0,0,0-.09,2.12,16.92,16.92,0,0,1,1.22,1.93c.27.69.27,2.09-.44,2.57s-1.06,0-1.66,0c-1.91.1-2.48,2-3,3.64a.47.47,0,0,0,0,.4c.1.15.31.14.48.19.54.17.63.9,1.06,1.26.68.56,1.83-.05,2.55.46s.56,1.3,1.06,1.78a1.79,1.79,0,0,0-.5,1.75c1.36.19,3.28.55,3.56,2.19.13.78-.95,1.72-.73,2.34.41,1.09,1.7.57,2.61.29a13.93,13.93,0,0,0,5.07-3.05c.6-.55,1.3-1.87,2.08-2.82l.34.11a5.28,5.28,0,0,0,2.19.26,2.29,2.29,0,0,0,1.77-1.2c.16-.37.29-.86.68-.92a1.06,1.06,0,0,1,.49.11,2.86,2.86,0,0,0,3.84-3,.74.74,0,0,1,.08-.57c.15-.17.41-.13.63-.18.64-.15.89-1.1.74-1.67C406.35,280.16,405.62,280.38,404.71,280.24Z" style="fill:#92E3A9"></path><path d="M436.32,290a10.83,10.83,0,0,1,3.95,1.34,7.64,7.64,0,0,0,3.41-2.19,3.77,3.77,0,0,1-1.5-.74,1.31,1.31,0,0,1-.36-1.52,1.88,1.88,0,0,1,.95-.7c1.1-.49,4.37-1,5.07-1.91.48-.59.29-.31-.15-.95-1.09-1.56-3.32-2.41-1-4.62a1.29,1.29,0,0,0,.33-.37c.2-.4-.16-.85-.52-1.12s-.8-.56-.83-1,.63-1,.93-1.47a1.34,1.34,0,0,0-1-1.9,1.77,1.77,0,0,1-.52-.05c-.5-.19-.52-1-1-1.16-.68-.19-1.16.75-1.74.88-.78.18-.61.05-1.3-.22-.32-.13-2.17-2.13-1.71-2.23a6.58,6.58,0,0,1-3.24-.08,4.48,4.48,0,0,1,.46-1.68c-1.1.14-2.36.24-3.18-.52a3.26,3.26,0,0,0-.65-.58c-1.25-.64-2.53,2-3.73,1.25-.42-.25-.57-.82-1-1s-1.23.18-1.58.7-.62,1.17-1.18,1.45a4.17,4.17,0,0,1-1.66.2,3.29,3.29,0,0,0-2.93,3.2,2,2,0,0,1-.16,1.16c-.48.69-.78.52-.72,1.43.05.62.77,1.06.66,1.79s-.87,1.12-1.52,1.51c-.87.53-3.43,1.77-1,2.21l2.31.42a2.62,2.62,0,0,1-.62,1.35,3.53,3.53,0,0,0-.81,1,1.64,1.64,0,0,0-.07.7,4.9,4.9,0,0,0,.57,2.08,3.5,3.5,0,0,1,2.57-1.2c.89.12,1.78,1.16,2.71,1,1.15-.24.51-.64.87-1.38,1-2,.66,1.28,1.81,1.65.42.13,1-.14,1.28.19s-.07,1,.19,1.35a.7.7,0,0,0,.31.23,2,2,0,0,0,2.5-.76,1.64,1.64,0,0,1,.46-.63,1.18,1.18,0,0,1,.53-.12c.87-.05,2.33.23,1.81,1.37-.26.57-1.47.27-1.46,1.21S435.47,289.91,436.32,290Z" style="fill:#92E3A9"></path><path d="M452.4,346.24a1.66,1.66,0,0,0-.47-.88c-.78-.79-1.9-.32-1.94-2,0-.56,0-1.3-.49-1.49a1.26,1.26,0,0,0-.58,0,4.27,4.27,0,0,1-1.33-.1c0-.69,0-1.39,0-2.08a1.31,1.31,0,0,0-.12-.68c-.34-.54-.93-.16-1.4-.28s-.93-.56-1.36-.68c-1.64-.49-1.27.84-2.48,1.75-1.45,1.09-1.75-.14-3-.46s-3,.8-4.08,1.25a1.81,1.81,0,0,0-.84.53,1.84,1.84,0,0,0-.25,1c0,.8-.05,1.6-.08,2.4-.05,1.26.13,2.87,1.34,3.24.59.19,1.56.32,1.37.92-.1.31-.49.4-.7.64-.64.73.46,1.42.68,2,.34.93,0,.88-.14,1.61a2.31,2.31,0,0,0,1.45,2.94,3.06,3.06,0,0,0,3.46-.9,4,4,0,0,0,3.73,1.05,2.91,2.91,0,0,0,2.11-3.05,2.5,2.5,0,0,0,2.56-.5,5.78,5.78,0,0,0,1.48-2.29c.07-.18.15-.37.22-.56l.46-1.17A4,4,0,0,0,452.4,346.24Z" style="fill:#92E3A9"></path><path d="M352.05,346a.88.88,0,0,1,.1-1,3.07,3.07,0,0,1,.83-.36,1.16,1.16,0,0,0,0-2,1.53,1.53,0,0,1-.48-.23c-.41-.38.11-1.12-.17-1.6-1.13.1-1.75-1.23-2.57-2-.18-.17-.47-.32-.66-.15s-.09.46-.15.7a.59.59,0,0,1-.3.34c-.38-.52-.77-1-1.36-1-.75,0-1.59,1.45-1.95,2-.87,1.4-.74,1.36-.2,2.81a9.11,9.11,0,0,1-1,.69c-.33.27-.51.84-.17,1.09.6-.22,1.19.44,1.29,1.07a17.26,17.26,0,0,0,.21,2.4,2.71,2.71,0,0,0,1-.7L347,348c.32.82.64,2.06,1.24,2.43.43.27,1-.07,1.35-.39l1.94-1.62c.43-.36.86-1,.56-1.43l.76-.12A2.58,2.58,0,0,1,352.05,346Z" style="fill:#92E3A9"></path><path d="M360.84,347.56a3.05,3.05,0,0,1-.74-.24,3.71,3.71,0,0,1-.54-.58c-1.06-1.11-1.6,0-2.44.33a19.36,19.36,0,0,0-2.3.84,1.85,1.85,0,0,0-.76,1.57,2.84,2.84,0,0,0,0,4.69,1.44,1.44,0,0,1,1.29-.92c.05,0,1,4.36,3.84,2.75,1.62-.93,1.21-3.82,3.79-3.44a7.41,7.41,0,0,0-.79-3.5A2.63,2.63,0,0,0,360.84,347.56Z" style="fill:#92E3A9"></path><path d="M344.56,324.17a1.73,1.73,0,0,0,1.62-2.73,3.59,3.59,0,0,0-.38-.4l.93-2.35a5.12,5.12,0,0,0,.52-2.8c-.29-1.42-1.73-2.31-3.12-2.73a3.58,3.58,0,0,1-.77-.29c0-.17,0-.35,0-.53,0-1.17-.39-2.58-1.51-2.93-.85-.27-1.76.2-2.64.12a9.24,9.24,0,0,1-2.06-.74,1.72,1.72,0,0,0-2,.39c-.39.62-.06,1.44-.22,2.15s-.82,1.22-1.26,1.81a2.82,2.82,0,0,0-.64,2.16,2.35,2.35,0,0,1-.83.53,1.5,1.5,0,0,0-.53.23,1.08,1.08,0,0,0-.29.67,5.53,5.53,0,0,0,.44,3.08c.29.66.64,1.59,0,2-.23.13-.55.14-.68.37s.3.71.69.83l2,.61c-.47,1.95-1.8,3.82,1.38,4.55.94.22,2.94.38,3.55-.62.47-.76-.35-1.37-.12-2.1a4.18,4.18,0,0,1,.24-.4l.24.06a2,2,0,0,0,1.38-.09,1.64,1.64,0,0,0,.61-.76,3.23,3.23,0,0,0,1.55,1.46C343.63,326,344.89,325.1,344.56,324.17Z" style="fill:#92E3A9"></path><path d="M161.38,361.11l-.06-1.21a2.73,2.73,0,0,0-.33-1.44c-.53-.81-1.7-.89-2.51-1.4l-.26-.4a2.11,2.11,0,0,0-.84-.86.58.58,0,0,0-.5-.18c-.35.05-.56.44-.9.55s-.51,0-.76,0c-.65.13-1,1.12-1.66,1-.45-.11-.58-.72-1-1a1.15,1.15,0,0,0-1.32.36,7.62,7.62,0,0,1-.87.92h-.14a1.5,1.5,0,0,0-.92.31,1.12,1.12,0,0,0-.19.29.71.71,0,0,0-.29.35,1.2,1.2,0,0,0,0,.5c0,.1,0,.23,0,.35a7.84,7.84,0,0,0,0,1.45,5.2,5.2,0,0,0,0,.91,6.71,6.71,0,0,0,.15.78,1.37,1.37,0,0,1-.6,1.18,1.45,1.45,0,0,0-1.58-.3.87.87,0,0,0-.48.46,1.82,1.82,0,0,0,.05.83c.22,1.42-1,2.81-.67,4.21a9.58,9.58,0,0,1,4.71,1.21c0,.29-.34.44-.62.54s-.59.38-.44.63l1.49.07a.51.51,0,0,1,.38.13.49.49,0,0,1,.09.36v.09l-.38.36-.29.08,0,.14-1.21,1.11h0a2.69,2.69,0,0,0-1.76-.67c-1,.18-1.11,1.59-1,2.62l.44,2.83a2.68,2.68,0,0,0,.29,1c.94,1.62,3.8.18,5.18,1.44a12.34,12.34,0,0,1,1,1.45c.36.46,1.09.77,1.52.36a1.22,1.22,0,0,0,.29-.55,6.56,6.56,0,0,0,.3-3c-.1-.62-.5-1.14-.29-1.79a.8.8,0,0,1,.88-.59,12.41,12.41,0,0,1-.37-3.1c-.54-.25-.91.65-1.48.83a.91.91,0,0,1-1-.58,2.64,2.64,0,0,1-.12-1.28c.52.21.94-.5.94-1.06s-.09-1.23.35-1.56l2.37,1.4a.49.49,0,0,0,.4.09c.25-.09.17-.46.2-.73a1,1,0,0,1,.82-.76,4.6,4.6,0,0,0,1.12-.37c.33-.21.55-.69.31-1s-.54-.27-.72-.5c-.32-.38,0-.93.27-1.37a2.94,2.94,0,0,0,.23-.51c.22-.61.27-1.28.43-1.91a2.76,2.76,0,0,1,.25-.66l.46-.43a.44.44,0,0,1-.08-.15,8.85,8.85,0,0,0,.56-.74.73.73,0,0,0,.09-.54.37.37,0,0,0,.05-.11A1.71,1.71,0,0,0,161.38,361.11Z" style="fill:#92E3A9"></path><path d="M167.88,383.75a14.75,14.75,0,0,0-1.43-1.9,4,4,0,0,0-.28-.3c-.15-.55-.91-.68-1.5-.66l-2.87.06-.75,1.66a1.45,1.45,0,0,0-.74.82,2.81,2.81,0,0,0,0,.87l-.09.2a.64.64,0,0,1-.26.34c-.41.22-1-.43-1.29-.1a.57.57,0,0,0-.11.36,6.18,6.18,0,0,0,.22,2.5,2.61,2.61,0,0,0,1.58,1.6l.47.47a7.74,7.74,0,0,0,.95,1.55,1.79,1.79,0,0,0,.24.59,1.13,1.13,0,0,0,.73.38,4,4,0,0,0,1,.6l-.59.8a7.59,7.59,0,0,0,1-.73,1,1,0,0,0,1-.63,1.48,1.48,0,0,0-.31,0,8.28,8.28,0,0,0,1.25-1.8c0,.07,0,.15-.08.22a2,2,0,0,1,1.39-.84c0-.93.58-1.83.43-2.75a2.54,2.54,0,0,0-.14-.47,3.76,3.76,0,0,0,.67-.83A2.17,2.17,0,0,0,167.88,383.75Z" style="fill:#92E3A9"></path><path d="M166,390.62a4,4,0,0,0-.72,1.76C165.46,391.82,165.73,391.22,166,390.62Z" style="fill:#92E3A9"></path><g style="opacity:0.4"><path d="M404.71,280.24a2.12,2.12,0,0,0,.07-.57l-2.26-.05a8.94,8.94,0,0,0-1-.27.39.39,0,0,1-.11-.15c-.26-.65.8-.88,1.46-1.09a2.52,2.52,0,0,0,1.57-2.28,7.64,7.64,0,0,0-.57-2.86A26.24,26.24,0,0,1,401,273a1.39,1.39,0,0,0-1.82-2c-.08-.32-.16-.65-.25-1-1.06.08-3.19.7-4.2.32s-1.22-2.09-2-.69a1.17,1.17,0,0,1-1.36.51c-.46-.17-.77-.61-1.22-.8-.9-.39-2,.33-2.89,0-.53-.2-.95-.73-1.51-.72-.74,0-1.08.92-1.23,1.64l-.26,1.28a1.72,1.72,0,0,1-.25.71c-.33.44-1,.47-1.4.83a1.76,1.76,0,0,0-.09,2.12,16.92,16.92,0,0,1,1.22,1.93c.27.69.27,2.09-.44,2.57s-1.06,0-1.66,0c-1.91.1-2.48,2-3,3.64a.47.47,0,0,0,0,.4c.1.15.31.14.48.19.54.17.63.9,1.06,1.26.68.56,1.83-.05,2.55.46s.56,1.3,1.06,1.78a1.79,1.79,0,0,0-.5,1.75c1.36.19,3.28.55,3.56,2.19.13.78-.95,1.72-.73,2.34.41,1.09,1.7.57,2.61.29a13.93,13.93,0,0,0,5.07-3.05c.6-.55,1.3-1.87,2.08-2.82l.34.11a5.28,5.28,0,0,0,2.19.26,2.29,2.29,0,0,0,1.77-1.2c.16-.37.29-.86.68-.92a1.06,1.06,0,0,1,.49.11,2.86,2.86,0,0,0,3.84-3,.74.74,0,0,1,.08-.57c.15-.17.41-.13.63-.18.64-.15.89-1.1.74-1.67C406.35,280.16,405.62,280.38,404.71,280.24Z"></path><path d="M436.32,290a10.83,10.83,0,0,1,3.95,1.34,7.64,7.64,0,0,0,3.41-2.19,3.77,3.77,0,0,1-1.5-.74,1.31,1.31,0,0,1-.36-1.52,1.88,1.88,0,0,1,.95-.7c1.1-.49,4.37-1,5.07-1.91.48-.59.29-.31-.15-.95-1.09-1.56-3.32-2.41-1-4.62a1.29,1.29,0,0,0,.33-.37c.2-.4-.16-.85-.52-1.12s-.8-.56-.83-1,.63-1,.93-1.47a1.34,1.34,0,0,0-1-1.9,1.77,1.77,0,0,1-.52-.05c-.5-.19-.52-1-1-1.16-.68-.19-1.16.75-1.74.88-.78.18-.61.05-1.3-.22-.32-.13-2.17-2.13-1.71-2.23a6.58,6.58,0,0,1-3.24-.08,4.48,4.48,0,0,1,.46-1.68c-1.1.14-2.36.24-3.18-.52a3.26,3.26,0,0,0-.65-.58c-1.25-.64-2.53,2-3.73,1.25-.42-.25-.57-.82-1-1s-1.23.18-1.58.7-.62,1.17-1.18,1.45a4.17,4.17,0,0,1-1.66.2,3.29,3.29,0,0,0-2.93,3.2,2,2,0,0,1-.16,1.16c-.48.69-.78.52-.72,1.43.05.62.77,1.06.66,1.79s-.87,1.12-1.52,1.51c-.87.53-3.43,1.77-1,2.21l2.31.42a2.62,2.62,0,0,1-.62,1.35,3.53,3.53,0,0,0-.81,1,1.64,1.64,0,0,0-.07.7,4.9,4.9,0,0,0,.57,2.08,3.5,3.5,0,0,1,2.57-1.2c.89.12,1.78,1.16,2.71,1,1.15-.24.51-.64.87-1.38,1-2,.66,1.28,1.81,1.65.42.13,1-.14,1.28.19s-.07,1,.19,1.35a.7.7,0,0,0,.31.23,2,2,0,0,0,2.5-.76,1.64,1.64,0,0,1,.46-.63,1.18,1.18,0,0,1,.53-.12c.87-.05,2.33.23,1.81,1.37-.26.57-1.47.27-1.46,1.21S435.47,289.91,436.32,290Z"></path><path d="M452.4,346.24a1.66,1.66,0,0,0-.47-.88c-.78-.79-1.9-.32-1.94-2,0-.56,0-1.3-.49-1.49a1.26,1.26,0,0,0-.58,0,4.27,4.27,0,0,1-1.33-.1c0-.69,0-1.39,0-2.08a1.31,1.31,0,0,0-.12-.68c-.34-.54-.93-.16-1.4-.28s-.93-.56-1.36-.68c-1.64-.49-1.27.84-2.48,1.75-1.45,1.09-1.75-.14-3-.46s-3,.8-4.08,1.25a1.81,1.81,0,0,0-.84.53,1.84,1.84,0,0,0-.25,1c0,.8-.05,1.6-.08,2.4-.05,1.26.13,2.87,1.34,3.24.59.19,1.56.32,1.37.92-.1.31-.49.4-.7.64-.64.73.46,1.42.68,2,.34.93,0,.88-.14,1.61a2.31,2.31,0,0,0,1.45,2.94,3.06,3.06,0,0,0,3.46-.9,4,4,0,0,0,3.73,1.05,2.91,2.91,0,0,0,2.11-3.05,2.5,2.5,0,0,0,2.56-.5,5.78,5.78,0,0,0,1.48-2.29c.07-.18.15-.37.22-.56l.46-1.17A4,4,0,0,0,452.4,346.24Z"></path><path d="M352.05,346a.88.88,0,0,1,.1-1,3.07,3.07,0,0,1,.83-.36,1.16,1.16,0,0,0,0-2,1.53,1.53,0,0,1-.48-.23c-.41-.38.11-1.12-.17-1.6-1.13.1-1.75-1.23-2.57-2-.18-.17-.47-.32-.66-.15s-.09.46-.15.7a.59.59,0,0,1-.3.34c-.38-.52-.77-1-1.36-1-.75,0-1.59,1.45-1.95,2-.87,1.4-.74,1.36-.2,2.81a9.11,9.11,0,0,1-1,.69c-.33.27-.51.84-.17,1.09.6-.22,1.19.44,1.29,1.07a17.26,17.26,0,0,0,.21,2.4,2.71,2.71,0,0,0,1-.7L347,348c.32.82.64,2.06,1.24,2.43.43.27,1-.07,1.35-.39l1.94-1.62c.43-.36.86-1,.56-1.43l.76-.12A2.58,2.58,0,0,1,352.05,346Z"></path><path d="M360.84,347.56a3.05,3.05,0,0,1-.74-.24,3.71,3.71,0,0,1-.54-.58c-1.06-1.11-1.6,0-2.44.33a19.36,19.36,0,0,0-2.3.84,1.85,1.85,0,0,0-.76,1.57,2.84,2.84,0,0,0,0,4.69,1.44,1.44,0,0,1,1.29-.92c.05,0,1,4.36,3.84,2.75,1.62-.93,1.21-3.82,3.79-3.44a7.41,7.41,0,0,0-.79-3.5A2.63,2.63,0,0,0,360.84,347.56Z"></path><path d="M344.56,324.17a1.73,1.73,0,0,0,1.62-2.73,3.59,3.59,0,0,0-.38-.4l.93-2.35a5.12,5.12,0,0,0,.52-2.8c-.29-1.42-1.73-2.31-3.12-2.73a3.58,3.58,0,0,1-.77-.29c0-.17,0-.35,0-.53,0-1.17-.39-2.58-1.51-2.93-.85-.27-1.76.2-2.64.12a9.24,9.24,0,0,1-2.06-.74,1.72,1.72,0,0,0-2,.39c-.39.62-.06,1.44-.22,2.15s-.82,1.22-1.26,1.81a2.82,2.82,0,0,0-.64,2.16,2.35,2.35,0,0,1-.83.53,1.5,1.5,0,0,0-.53.23,1.08,1.08,0,0,0-.29.67,5.53,5.53,0,0,0,.44,3.08c.29.66.64,1.59,0,2-.23.13-.55.14-.68.37s.3.71.69.83l2,.61c-.47,1.95-1.8,3.82,1.38,4.55.94.22,2.94.38,3.55-.62.47-.76-.35-1.37-.12-2.1a4.18,4.18,0,0,1,.24-.4l.24.06a2,2,0,0,0,1.38-.09,1.64,1.64,0,0,0,.61-.76,3.23,3.23,0,0,0,1.55,1.46C343.63,326,344.89,325.1,344.56,324.17Z"></path><path d="M161.38,361.11l-.06-1.21a2.73,2.73,0,0,0-.33-1.44c-.53-.81-1.7-.89-2.51-1.4l-.26-.4a2.11,2.11,0,0,0-.84-.86.58.58,0,0,0-.5-.18c-.35.05-.56.44-.9.55s-.51,0-.76,0c-.65.13-1,1.12-1.66,1-.45-.11-.58-.72-1-1a1.15,1.15,0,0,0-1.32.36,7.62,7.62,0,0,1-.87.92h-.14a1.5,1.5,0,0,0-.92.31,1.12,1.12,0,0,0-.19.29.71.71,0,0,0-.29.35,1.2,1.2,0,0,0,0,.5c0,.1,0,.23,0,.35a7.84,7.84,0,0,0,0,1.45,5.2,5.2,0,0,0,0,.91,6.71,6.71,0,0,0,.15.78,1.37,1.37,0,0,1-.6,1.18,1.45,1.45,0,0,0-1.58-.3.87.87,0,0,0-.48.46,1.82,1.82,0,0,0,.05.83c.22,1.42-1,2.81-.67,4.21a9.58,9.58,0,0,1,4.71,1.21c0,.29-.34.44-.62.54s-.59.38-.44.63l1.49.07a.51.51,0,0,1,.38.13.49.49,0,0,1,.09.36v.09l-.38.36-.29.08,0,.14-1.21,1.11h0a2.69,2.69,0,0,0-1.76-.67c-1,.18-1.11,1.59-1,2.62l.44,2.83a2.68,2.68,0,0,0,.29,1c.94,1.62,3.8.18,5.18,1.44a12.34,12.34,0,0,1,1,1.45c.36.46,1.09.77,1.52.36a1.22,1.22,0,0,0,.29-.55,6.56,6.56,0,0,0,.3-3c-.1-.62-.5-1.14-.29-1.79a.8.8,0,0,1,.88-.59,12.41,12.41,0,0,1-.37-3.1c-.54-.25-.91.65-1.48.83a.91.91,0,0,1-1-.58,2.64,2.64,0,0,1-.12-1.28c.52.21.94-.5.94-1.06s-.09-1.23.35-1.56l2.37,1.4a.49.49,0,0,0,.4.09c.25-.09.17-.46.2-.73a1,1,0,0,1,.82-.76,4.6,4.6,0,0,0,1.12-.37c.33-.21.55-.69.31-1s-.54-.27-.72-.5c-.32-.38,0-.93.27-1.37a2.94,2.94,0,0,0,.23-.51c.22-.61.27-1.28.43-1.91a2.76,2.76,0,0,1,.25-.66l.46-.43a.44.44,0,0,1-.08-.15,8.85,8.85,0,0,0,.56-.74.73.73,0,0,0,.09-.54.37.37,0,0,0,.05-.11A1.71,1.71,0,0,0,161.38,361.11Z"></path><path d="M167.88,383.75a14.75,14.75,0,0,0-1.43-1.9,4,4,0,0,0-.28-.3c-.15-.55-.91-.68-1.5-.66l-2.87.06-.75,1.66a1.45,1.45,0,0,0-.74.82,2.81,2.81,0,0,0,0,.87l-.09.2a.64.64,0,0,1-.26.34c-.41.22-1-.43-1.29-.1a.57.57,0,0,0-.11.36,6.18,6.18,0,0,0,.22,2.5,2.61,2.61,0,0,0,1.58,1.6l.47.47a7.74,7.74,0,0,0,.95,1.55,1.79,1.79,0,0,0,.24.59,1.13,1.13,0,0,0,.73.38,4,4,0,0,0,1,.6l-.59.8a7.59,7.59,0,0,0,1-.73,1,1,0,0,0,1-.63,1.48,1.48,0,0,0-.31,0,8.28,8.28,0,0,0,1.25-1.8c0,.07,0,.15-.08.22a2,2,0,0,1,1.39-.84c0-.93.58-1.83.43-2.75a2.54,2.54,0,0,0-.14-.47,3.76,3.76,0,0,0,.67-.83A2.17,2.17,0,0,0,167.88,383.75Z"></path><path d="M166,390.62a4,4,0,0,0-.72,1.76C165.46,391.82,165.73,391.22,166,390.62Z"></path></g></g><g id="freepik--Dragon--inject-21"><path d="M235.64,115.6s15.32,6.9,20.09,19l-6.16-2.91s6.26,6.71,6.25,18.65L253,146s1.71,7.75-2.93,16.91c0,0-5.08-10.83-5-14.41l-2,6.74s-2.84-9.66-1.2-15.8l-2.61,5.07s-1-5.15-1.66-8.84S233.16,121.29,235.64,115.6Z" style="fill:#92E3A9"></path><path d="M235.64,115.6s15.32,6.9,20.09,19l-6.16-2.91s6.26,6.71,6.25,18.65L253,146s1.71,7.75-2.93,16.91c0,0-5.08-10.83-5-14.41l-2,6.74s-2.84-9.66-1.2-15.8l-2.61,5.07s-1-5.15-1.66-8.84S233.16,121.29,235.64,115.6Z" style="fill:#fff;opacity:0.2"></path><path d="M136.78,310.51A72,72,0,0,0,155,311.79c14.27-.64,31.15-4.56,45-12.76a59.2,59.2,0,0,0,19.08-17.22,79,79,0,0,0,9.08-17.75c9.73-26.79,6.44-61.57-33-77.47-49.09-19.77-30.88-79.64,12.65-74.82,34.92,3.88,42.22,40.12,42.22,40.12s2.35-35-33.73-48.17c-29.82-10.86-56,4-64.63,25.2a60.74,60.74,0,0,0-4.06,18.77c-.93,15.87,3.8,36,24.8,50.85,31,22,34.61,37.09,25,57.88A37,37,0,0,1,192.1,265c-16.6,19.62-46.28,8-46.28,8l-5.17,21.46Z" style="fill:#92E3A9"></path><path d="M136.78,310.51c21.16,4.69,64.09-2.18,82.37-28.7a79,79,0,0,0,9.08-17.75c-6.48,12.72-17.76,20.31-27.34,25.42-16.86,9-41.24,13.34-49.24.32l-11,4.63Z" style="fill:#fff;opacity:0.4"></path><path d="M172.44,198.54c31,22,34.61,37.09,25,57.88A37,37,0,0,1,192.1,265c11-11.25,18.11-23.38,15.77-39.92s-24.93-28-37.06-35.23c-14.71-8.76-22.94-24.19-23.17-42.15C146.71,163.56,151.44,183.68,172.44,198.54Z" style="fill:#fff;opacity:0.4"></path><path d="M155,311.79c14.27-.64,31.15-4.56,45-12.76-12.87-13.59-30.66-15.15-30.66-15.15s-14.85-9-11.94,5.49C159.31,298.5,157,306.85,155,311.79Z" style="opacity:0.1"></path><path d="M212.55,277a1.29,1.29,0,0,0-1.17-1.83s1.13-1,1.84.15S212.55,277,212.55,277Z" style="opacity:0.2"></path><path d="M211.06,274.78a1.29,1.29,0,0,0-1.16-1.84s1.13-.94,1.84.16S211.06,274.78,211.06,274.78Z" style="opacity:0.2"></path><path d="M209.41,272.27a1.3,1.3,0,0,0-1.17-1.84s1.13-.95,1.84.15S209.41,272.27,209.41,272.27Z" style="opacity:0.2"></path><path d="M213.37,275a1.28,1.28,0,0,0-1.16-1.83s1.13-.95,1.83.15S213.37,275,213.37,275Z" style="opacity:0.2"></path><path d="M214.83,272.72a1.29,1.29,0,0,0-1.16-1.84s1.12-.95,1.83.15S214.83,272.72,214.83,272.72Z" style="opacity:0.2"></path><path d="M216.26,275.1a1.29,1.29,0,0,0-1.16-1.84s1.13-.94,1.84.16S216.26,275.1,216.26,275.1Z" style="opacity:0.2"></path><path d="M213.32,270.52a1.29,1.29,0,0,0-1.17-1.83s1.13-.95,1.84.15S213.32,270.52,213.32,270.52Z" style="opacity:0.2"></path><path d="M210.43,269.79a1.28,1.28,0,0,0-1.16-1.83s1.12-.95,1.83.15S210.43,269.79,210.43,269.79Z" style="opacity:0.2"></path><path d="M215.23,277.61a1.29,1.29,0,0,0-1.16-1.84s1.12-.95,1.83.15S215.23,277.61,215.23,277.61Z" style="opacity:0.2"></path><path d="M217.78,272.83a1.28,1.28,0,0,0-1.16-1.83s1.13-.95,1.83.15S217.78,272.83,217.78,272.83Z" style="opacity:0.2"></path><path d="M215.91,270.1a1.28,1.28,0,0,0-1.16-1.83s1.12-.95,1.83.15S215.91,270.1,215.91,270.1Z" style="opacity:0.2"></path><path d="M209.87,277a1.28,1.28,0,0,0-1.16-1.83s1.13-1,1.83.15S209.87,277,209.87,277Z" style="opacity:0.2"></path><path d="M208.31,274.62a1.29,1.29,0,0,0-1.16-1.84s1.12-.95,1.83.15S208.31,274.62,208.31,274.62Z" style="opacity:0.2"></path><path d="M212,272.34a1.28,1.28,0,0,0-1.16-1.83s1.13-.95,1.83.15S212,272.34,212,272.34Z" style="opacity:0.2"></path><path d="M220.34,224.25a1.29,1.29,0,0,0-2.06.67s-.64-1.32.6-1.74S220.34,224.25,220.34,224.25Z" style="opacity:0.2"></path><path d="M217.83,225.14a1.29,1.29,0,0,0-2.06.67s-.64-1.32.6-1.74S217.83,225.14,217.83,225.14Z" style="opacity:0.2"></path><path d="M215,226.13a1.29,1.29,0,0,0-2.07.67s-.64-1.33.6-1.74S215,226.13,215,226.13Z" style="opacity:0.2"></path><path d="M218.59,223a1.3,1.3,0,0,0-2.07.67s-.64-1.32.6-1.74S218.59,223,218.59,223Z" style="opacity:0.2"></path><path d="M216.76,221a1.29,1.29,0,0,0-2.06.68s-.64-1.33.6-1.74S216.76,221,216.76,221Z" style="opacity:0.2"></path><path d="M219.43,220.18a1.29,1.29,0,0,0-2.07.67s-.64-1.32.6-1.74S219.43,220.18,219.43,220.18Z" style="opacity:0.2"></path><path d="M214.26,221.91a1.29,1.29,0,0,0-2.06.67s-.64-1.32.6-1.74S214.26,221.91,214.26,221.91Z" style="opacity:0.2"></path><path d="M212.84,224.52a1.29,1.29,0,0,0-2.06.68s-.64-1.33.6-1.74S212.84,224.52,212.84,224.52Z" style="opacity:0.2"></path><path d="M221.6,221.8a1.3,1.3,0,0,0-2.07.68s-.64-1.33.6-1.74S221.6,221.8,221.6,221.8Z" style="opacity:0.2"></path><path d="M217.6,218.15a1.29,1.29,0,0,0-2.06.67s-.64-1.32.6-1.74S217.6,218.15,217.6,218.15Z" style="opacity:0.2"></path><path d="M214.5,219.29a1.29,1.29,0,0,0-2.07.67s-.64-1.32.6-1.74S214.5,219.29,214.5,219.29Z" style="opacity:0.2"></path><path d="M219.68,226.84a1.29,1.29,0,0,0-2.06.68s-.64-1.33.6-1.74S219.68,226.84,219.68,226.84Z" style="opacity:0.2"></path><path d="M217,227.77a1.29,1.29,0,0,0-2.06.67s-.64-1.32.6-1.74S217,227.77,217,227.77Z" style="opacity:0.2"></path><path d="M215.7,223.63a1.29,1.29,0,0,0-2.06.67s-.64-1.32.6-1.74S215.7,223.63,215.7,223.63Z" style="opacity:0.2"></path><path d="M198.35,193.7a1.29,1.29,0,0,0-1.23,1.79s-1.31-.66-.58-1.74S198.35,193.7,198.35,193.7Z" style="opacity:0.2"></path><path d="M196.9,195.94a1.3,1.3,0,0,0-1.24,1.79s-1.31-.67-.58-1.75S196.9,195.94,196.9,195.94Z" style="opacity:0.2"></path><path d="M195.23,198.45a1.29,1.29,0,0,0-1.23,1.79s-1.31-.67-.58-1.75S195.23,198.45,195.23,198.45Z" style="opacity:0.2"></path><path d="M196.17,193.74a1.29,1.29,0,0,0-1.23,1.79s-1.32-.67-.58-1.75S196.17,193.74,196.17,193.74Z" style="opacity:0.2"></path><path d="M193.52,193.28a1.29,1.29,0,0,0-1.23,1.79s-1.31-.66-.58-1.74S193.52,193.28,193.52,193.28Z" style="opacity:0.2"></path><path d="M195.15,191a1.29,1.29,0,0,0-1.23,1.79s-1.31-.67-.58-1.75S195.15,191,195.15,191Z" style="opacity:0.2"></path><path d="M192.1,195.54a1.29,1.29,0,0,0-1.23,1.79s-1.32-.67-.58-1.75S192.1,195.54,192.1,195.54Z" style="opacity:0.2"></path><path d="M192.56,198.48a1.3,1.3,0,0,0-1.24,1.79s-1.31-.67-.57-1.75S192.56,198.48,192.56,198.48Z" style="opacity:0.2"></path><path d="M197.86,191a1.29,1.29,0,0,0-1.23,1.79s-1.31-.67-.58-1.75S197.86,191,197.86,191Z" style="opacity:0.2"></path><path d="M192.47,190.52a1.29,1.29,0,0,0-1.23,1.79s-1.32-.66-.58-1.74S192.47,190.52,192.47,190.52Z" style="opacity:0.2"></path><path d="M190.7,193.31a1.29,1.29,0,0,0-1.24,1.79s-1.31-.66-.58-1.74S190.7,193.31,190.7,193.31Z" style="opacity:0.2"></path><path d="M199.4,196.16a1.3,1.3,0,0,0-1.23,1.8s-1.32-.67-.58-1.75S199.4,196.16,199.4,196.16Z" style="opacity:0.2"></path><path d="M197.83,198.54a1.3,1.3,0,0,0-1.24,1.79s-1.31-.67-.58-1.75S197.83,198.54,197.83,198.54Z" style="opacity:0.2"></path><path d="M194.29,196a1.29,1.29,0,0,0-1.23,1.79s-1.32-.67-.58-1.75S194.29,196,194.29,196Z" style="opacity:0.2"></path><path d="M164.54,174.4a1.23,1.23,0,0,0-1.53,1.39s-1.07-.9-.16-1.74S164.54,174.4,164.54,174.4Z" style="opacity:0.2"></path><path d="M162.71,176.15a1.22,1.22,0,0,0-1.52,1.39s-1.07-.9-.16-1.74S162.71,176.15,162.71,176.15Z" style="opacity:0.2"></path><path d="M160.64,178.11a1.22,1.22,0,0,0-1.52,1.39s-1.07-.9-.16-1.74S160.64,178.11,160.64,178.11Z" style="opacity:0.2"></path><path d="M162.51,174a1.22,1.22,0,0,0-1.52,1.39s-1.07-.89-.16-1.74S162.51,174,162.51,174Z" style="opacity:0.2"></path><path d="M160.17,173a1.22,1.22,0,0,0-1.53,1.38s-1.07-.89-.16-1.73S160.17,173,160.17,173Z" style="opacity:0.2"></path><path d="M162.16,171.24a1.23,1.23,0,0,0-1.53,1.39s-1.07-.89-.16-1.74S162.16,171.24,162.16,171.24Z" style="opacity:0.2"></path><path d="M158.37,174.75a1.22,1.22,0,0,0-1.52,1.39s-1.07-.9-.16-1.74S158.37,174.75,158.37,174.75Z" style="opacity:0.2"></path><path d="M164.67,171.8a1.23,1.23,0,0,0-1.53,1.39s-1.07-.9-.16-1.74S164.67,171.8,164.67,171.8Z" style="opacity:0.2"></path><path d="M159.79,170.2a1.22,1.22,0,0,0-1.52,1.39s-1.07-.9-.16-1.74S159.79,170.2,159.79,170.2Z" style="opacity:0.2"></path><path d="M157.55,172.4a1.22,1.22,0,0,0-1.52,1.39s-1.07-.9-.16-1.74S157.55,172.4,157.55,172.4Z" style="opacity:0.2"></path><path d="M165,176.9a1.23,1.23,0,0,0-1.53,1.39s-1.07-.9-.16-1.74S165,176.9,165,176.9Z" style="opacity:0.2"></path><path d="M163,178.75a1.22,1.22,0,0,0-1.52,1.39s-1.07-.9-.16-1.74S163,178.75,163,178.75Z" style="opacity:0.2"></path><path d="M160.28,175.68a1.22,1.22,0,0,0-1.52,1.38s-1.07-.89-.16-1.73S160.28,175.68,160.28,175.68Z" style="opacity:0.2"></path><path d="M213.35,109.63a1,1,0,0,0,.64-1.56s1.1.29.73,1.23S213.35,109.63,213.35,109.63Z" style="opacity:0.2"></path><path d="M214.08,107.7a1,1,0,0,0,.64-1.56s1.11.28.73,1.23S214.08,107.7,214.08,107.7Z" style="opacity:0.2"></path><path d="M214.93,105.52a1,1,0,0,0,.64-1.56s1.1.28.73,1.23S214.93,105.52,214.93,105.52Z" style="opacity:0.2"></path><path d="M215,109.25a1,1,0,0,0,.64-1.56s1.1.28.73,1.23S215,109.25,215,109.25Z" style="opacity:0.2"></path><path d="M217.08,109.15a1,1,0,0,0,.64-1.56s1.11.29.73,1.23S217.08,109.15,217.08,109.15Z" style="opacity:0.2"></path><path d="M216.22,111.13a1,1,0,0,0,.64-1.56s1.1.29.73,1.23S216.22,111.13,216.22,111.13Z" style="opacity:0.2"></path><path d="M217.79,107.21a1,1,0,0,0,.64-1.56s1.1.28.73,1.23S217.79,107.21,217.79,107.21Z" style="opacity:0.2"></path><path d="M214.17,111.61a1,1,0,0,0,.64-1.57s1.1.29.73,1.23S214.17,111.61,214.17,111.61Z" style="opacity:0.2"></path><path d="M218.34,111.07a1,1,0,0,0,.64-1.56s1.1.29.72,1.23S218.34,111.07,218.34,111.07Z" style="opacity:0.2"></path><path d="M219.22,108.66a1,1,0,0,0,.64-1.56s1.11.29.73,1.23S219.22,108.66,219.22,108.66Z" style="opacity:0.2"></path><path d="M212.15,107.94a1,1,0,0,0,.64-1.56s1.1.29.72,1.23S212.15,107.94,212.15,107.94Z" style="opacity:0.2"></path><path d="M213,105.88a1,1,0,0,0,.64-1.56s1.1.29.73,1.23S213,105.88,213,105.88Z" style="opacity:0.2"></path><path d="M216.05,107.2a1,1,0,0,0,.63-1.56s1.11.28.73,1.22S216.05,107.2,216.05,107.2Z" style="opacity:0.2"></path><path d="M233,120.33a.8.8,0,0,0,1-1s.73.55.17,1.13S233,120.33,233,120.33Z" style="opacity:0.2"></path><path d="M234.14,119.13c1.13.05.94-1,.94-1s.73.54.17,1.12S234.14,119.13,234.14,119.13Z" style="opacity:0.2"></path><path d="M235.42,117.77a.8.8,0,0,0,.94-1s.73.54.17,1.13S235.42,117.77,235.42,117.77Z" style="opacity:0.2"></path><path d="M234.35,120.55a.8.8,0,0,0,.94-1s.73.55.17,1.13S234.35,120.55,234.35,120.55Z" style="opacity:0.2"></path><path d="M235.92,121.1a.8.8,0,0,0,.94-1s.73.55.17,1.13S235.92,121.1,235.92,121.1Z" style="opacity:0.2"></path><path d="M234.68,122.31a.81.81,0,0,0,.95-1s.73.54.16,1.12S234.68,122.31,234.68,122.31Z" style="opacity:0.2"></path><path d="M237,119.88a.8.8,0,0,0,.95-1s.73.54.16,1.13S237,119.88,237,119.88Z" style="opacity:0.2"></path><path d="M233,122a.8.8,0,0,0,.94-1s.73.54.17,1.12S233,122,233,122Z" style="opacity:0.2"></path><path d="M236.27,122.9a.8.8,0,0,0,.94-1s.73.54.17,1.12S236.27,122.9,236.27,122.9Z" style="opacity:0.2"></path><path d="M237.64,121.38a.8.8,0,0,0,1-1s.73.55.16,1.13S237.64,121.38,237.64,121.38Z" style="opacity:0.2"></path><path d="M232.64,118.72a.8.8,0,0,0,.94-1s.73.55.17,1.13S232.64,118.72,232.64,118.72Z" style="opacity:0.2"></path><path d="M233.85,117.44a.8.8,0,0,0,.94-1s.73.55.17,1.13S233.85,117.44,233.85,117.44Z" style="opacity:0.2"></path><path d="M235.74,119.35c1.13.05.94-1,.94-1s.73.54.17,1.12S235.74,119.35,235.74,119.35Z" style="opacity:0.2"></path><path d="M163.81,153a1.22,1.22,0,0,0-2,.57s-.56-1.28.62-1.63S163.81,153,163.81,153Z" style="opacity:0.2"></path><path d="M161.4,153.74a1.23,1.23,0,0,0-2,.57s-.56-1.27.63-1.63S161.4,153.74,161.4,153.74Z" style="opacity:0.2"></path><path d="M162.19,151.69a1.23,1.23,0,0,0-2,.57s-.56-1.27.63-1.63S162.19,151.69,162.19,151.69Z" style="opacity:0.2"></path><path d="M160.52,149.77a1.22,1.22,0,0,0-2,.57s-.56-1.28.63-1.63S160.52,149.77,160.52,149.77Z" style="opacity:0.2"></path><path d="M163.07,149.09a1.23,1.23,0,0,0-2,.57s-.56-1.27.63-1.62S163.07,149.09,163.07,149.09Z" style="opacity:0.2"></path><path d="M165.08,150.7a1.23,1.23,0,0,0-2,.57s-.57-1.27.62-1.63S165.08,150.7,165.08,150.7Z" style="opacity:0.2"></path><path d="M161.41,147.11a1.23,1.23,0,0,0-2,.57s-.56-1.27.62-1.63S161.41,147.11,161.41,147.11Z" style="opacity:0.2"></path><path d="M163.1,155.41a1.23,1.23,0,0,0-2,.57s-.56-1.27.63-1.63S163.1,155.41,163.1,155.41Z" style="opacity:0.2"></path><path d="M155.22,144.19a1.22,1.22,0,0,0-2.06,0s-.17-1.39,1.07-1.38S155.22,144.19,155.22,144.19Z" style="opacity:0.2"></path><path d="M152.37,144.2a1.22,1.22,0,0,0-2.06,0s-.17-1.38,1.07-1.37S152.37,144.2,152.37,144.2Z" style="opacity:0.2"></path><path d="M156.57,142.45a1.22,1.22,0,0,0-2.06,0s-.17-1.39,1.07-1.38S156.57,142.45,156.57,142.45Z" style="opacity:0.2"></path><path d="M155.53,140.13a1.22,1.22,0,0,0-2.06,0s-.17-1.38,1.07-1.38S155.53,140.13,155.53,140.13Z" style="opacity:0.2"></path><path d="M153,140.2a1.22,1.22,0,0,0-2.06,0s-.17-1.38,1.07-1.38S153,140.2,153,140.2Z" style="opacity:0.2"></path><path d="M150.93,142.11a1.22,1.22,0,0,0-2.06,0s-.17-1.38,1.07-1.37S150.93,142.11,150.93,142.11Z" style="opacity:0.2"></path><path d="M157.15,137.85a1.22,1.22,0,0,0-2.06,0s-.17-1.39,1.07-1.38S157.15,137.85,157.15,137.85Z" style="opacity:0.2"></path><path d="M154,137.92a1.22,1.22,0,0,0-2.06,0s-.16-1.38,1.07-1.37S154,137.92,154,137.92Z" style="opacity:0.2"></path><path d="M156.36,146.28a1.22,1.22,0,0,0-2.06,0s-.17-1.38,1.07-1.38S156.36,146.28,156.36,146.28Z" style="opacity:0.2"></path><path d="M153.66,146.29a1.22,1.22,0,0,0-2.06,0s-.17-1.38,1.07-1.38S153.66,146.29,153.66,146.29Z" style="opacity:0.2"></path><path d="M153.77,142.18a1.22,1.22,0,0,0-2.06,0s-.17-1.38,1.07-1.37S153.77,142.18,153.77,142.18Z" style="opacity:0.2"></path><path d="M170.47,116.4a1.22,1.22,0,0,0-1.25-1.64s1-1,1.74,0S170.47,116.4,170.47,116.4Z" style="opacity:0.2"></path><path d="M168.69,114.17a1.22,1.22,0,0,0-1.25-1.64s1-1,1.74,0S168.69,114.17,168.69,114.17Z" style="opacity:0.2"></path><path d="M172.67,116.39a1.23,1.23,0,0,0-1.26-1.64s1-1,1.75,0S172.67,116.39,172.67,116.39Z" style="opacity:0.2"></path><path d="M173.85,114.13a1.22,1.22,0,0,0-1.25-1.63s1-1,1.74,0S173.85,114.13,173.85,114.13Z" style="opacity:0.2"></path><path d="M172.24,112.19a1.22,1.22,0,0,0-1.26-1.63s1-1,1.75,0S172.24,112.19,172.24,112.19Z" style="opacity:0.2"></path><path d="M169.45,111.74a1.22,1.22,0,0,0-1.25-1.63s1-1,1.74,0S169.45,111.74,169.45,111.74Z" style="opacity:0.2"></path><path d="M176.65,114a1.23,1.23,0,0,0-1.26-1.63s1-1,1.75,0S176.65,114,176.65,114Z" style="opacity:0.2"></path><path d="M174.65,111.58a1.22,1.22,0,0,0-1.25-1.64s1-1,1.74,0S174.65,111.58,174.65,111.58Z" style="opacity:0.2"></path><path d="M169.53,118.59a1.22,1.22,0,0,0-1.25-1.64s1-1,1.74,0S169.53,118.59,169.53,118.59Z" style="opacity:0.2"></path><path d="M167.85,116.48a1.22,1.22,0,0,0-1.25-1.64s1-1,1.75,0S167.85,116.48,167.85,116.48Z" style="opacity:0.2"></path><path d="M171.15,114a1.22,1.22,0,0,0-1.25-1.63s1-1,1.74,0S171.15,114,171.15,114Z" style="opacity:0.2"></path><path d="M193.87,288.7a1.3,1.3,0,0,0-.82-2s1.28-.73,1.78.48S193.87,288.7,193.87,288.7Z" style="opacity:0.2"></path><path d="M192.8,286.26a1.3,1.3,0,0,0-.82-2s1.28-.73,1.78.48S192.8,286.26,192.8,286.26Z" style="opacity:0.2"></path><path d="M191.61,283.49a1.3,1.3,0,0,0-.82-2s1.28-.73,1.78.48S191.61,283.49,191.61,283.49Z" style="opacity:0.2"></path><path d="M195,286.85a1.29,1.29,0,0,0-.82-2s1.28-.73,1.78.47S195,286.85,195,286.85Z" style="opacity:0.2"></path><path d="M196.87,284.89a1.29,1.29,0,0,0-.82-2s1.28-.74,1.78.47S196.87,284.89,196.87,284.89Z" style="opacity:0.2"></path><path d="M197.86,287.49a1.29,1.29,0,0,0-.82-2s1.28-.74,1.78.47S197.86,287.49,197.86,287.49Z" style="opacity:0.2"></path><path d="M195.77,282.46a1.29,1.29,0,0,0-.82-2s1.27-.73,1.78.47S195.77,282.46,195.77,282.46Z" style="opacity:0.2"></path><path d="M193.06,281.23a1.29,1.29,0,0,0-.82-2s1.27-.73,1.77.47S193.06,281.23,193.06,281.23Z" style="opacity:0.2"></path><path d="M196.4,289.77a1.29,1.29,0,0,0-.82-2s1.28-.73,1.78.47S196.4,289.77,196.4,289.77Z" style="opacity:0.2"></path><path d="M199.76,285.52a1.29,1.29,0,0,0-.82-2s1.27-.73,1.77.47S199.76,285.52,199.76,285.52Z" style="opacity:0.2"></path><path d="M198.4,282.51a1.29,1.29,0,0,0-.82-2s1.27-.74,1.77.47S198.4,282.51,198.4,282.51Z" style="opacity:0.2"></path><path d="M191.24,288.22a1.29,1.29,0,0,0-.82-2s1.27-.73,1.78.47S191.24,288.22,191.24,288.22Z" style="opacity:0.2"></path><path d="M190.12,285.61a1.3,1.3,0,0,0-.82-2s1.27-.73,1.78.48S190.12,285.61,190.12,285.61Z" style="opacity:0.2"></path><path d="M194.15,284a1.29,1.29,0,0,0-.82-2s1.28-.73,1.78.47S194.15,284,194.15,284Z" style="opacity:0.2"></path><path d="M145.82,273s17.74,13.6,38,6S222.41,258,228.22,244.1l-1.72.32L231.23,225l-3.61.68-4.7-23.78-2,.38-10-13.15-.92,3.55-15.07-9.87-.53,2.63-11.86-9,.67,3.56L169.7,164.65l-.91,2.49-8.44-19.26-1.38,2.3,3.13-13.3-1.19.22,7-8.78-2.12-.77,10-7.46-2.75-.75,13.88-6.42-2.17-.61,17.19-3.23-4.2-.73,14.93,1L207,106.6s-26,2.85-34.53,10-18,18.88-15.38,35.16c1.9,11.84,10.18,22.75,20.09,28.51s26.84,11.31,35.9,20.63,11.89,28.48,9.39,39.56-13.41,22.94-24.36,30l-.92-2.23-18.78,9.63,1.31-5.53-19.44,4.4,3.94-5.36L151,270.12Z" style="fill:#92E3A9"></path><path d="M145.82,273s17.74,13.6,38,6S222.41,258,228.22,244.1l-1.72.32L231.23,225l-3.61.68-4.7-23.78-2,.38-10-13.15-.92,3.55-15.07-9.87-.53,2.63-11.86-9,.67,3.56L169.7,164.65l-.91,2.49-8.44-19.26-1.38,2.3,3.13-13.3-1.19.22,7-8.78-2.12-.77,10-7.46-2.75-.75,13.88-6.42-2.17-.61,17.19-3.23-4.2-.73,14.93,1L207,106.6s-26,2.85-34.53,10-18,18.88-15.38,35.16c1.9,11.84,10.18,22.75,20.09,28.51s26.84,11.31,35.9,20.63,11.89,28.48,9.39,39.56-13.41,22.94-24.36,30l-.92-2.23-18.78,9.63,1.31-5.53-19.44,4.4,3.94-5.36L151,270.12Z" style="fill:#fff;opacity:0.2"></path><path d="M110.48,376.93a1.6,1.6,0,0,0,.52-.1,3.49,3.49,0,0,0,1.8-1.36,8.86,8.86,0,0,0,.61-1.14,15.44,15.44,0,0,1,2.33-3.44c.44-.49,1.62-1.24,1.84-1.85a33.75,33.75,0,0,0-1.78,7.12c-.34,2.81.69,7.66,4.83,6.26a3.36,3.36,0,0,0,2.21-2.9,22.1,22.1,0,0,0-.51-3.21c-.15-1.69.62-3.31,1.28-4.87s.57-3.19.86-4.9c1,2.12,3.24,9.75,6.91,7.87a4.2,4.2,0,0,0,1.84-1.59,3.65,3.65,0,0,0,.21-2.64,16.66,16.66,0,0,0-1-2.52c-2.11-4.64-2.79-10.1-3-15.17-.27-5.52-.14-11.47,1.95-16.66,3.63-9.07.09-9.67-1.54-8.16a82.47,82.47,0,0,1-6.72,4.94,18.43,18.43,0,0,1,1.21-3.07,50,50,0,0,1,5.54-8.81,88.74,88.74,0,0,1,10.65-11.33c2.15-1.94,3.22-3.76,3.5-5.45.53-3.09-1.62-5.76-4.86-8-7.41-5.11-20.56-7.86-20.56-7.86a24.7,24.7,0,0,0-7.08,8.14c-6.27,10.68-9.1,27-8.19,36.39,1.18,12.43,6.44,9.34,9.13,8.74l.53-.11c2.87-.59,8.13-1.33,8.13-1.33s-2,17.07-4.69,22.62-6.57,5.29-7.58,8.83C108.4,372.71,108.21,376.87,110.48,376.93Z" style="fill:#92E3A9"></path><path d="M111.45,296.25c2.72,9.2,8,19,18.35,24.48a88.74,88.74,0,0,1,10.65-11.33c2.15-1.94,3.22-3.76,3.5-5.45a70.77,70.77,0,0,0-4.86-8c-7.41-5.11-20.56-7.86-20.56-7.86A24.7,24.7,0,0,0,111.45,296.25Z" style="opacity:0.2"></path><path d="M110.48,376.93a1.6,1.6,0,0,0,.52-.1,3.49,3.49,0,0,0,1.8-1.36,8.86,8.86,0,0,0,.61-1.14,15.44,15.44,0,0,1,2.33-3.44c.44-.49,1.62-1.24,1.84-1.85a33.75,33.75,0,0,0-1.78,7.12c-.34,2.81.69,7.66,4.83,6.26a3.36,3.36,0,0,0,2.21-2.9,22.1,22.1,0,0,0-.51-3.21c-.15-1.69.62-3.31,1.28-4.87s.57-3.19.86-4.9c1,2.12,3.24,9.75,6.91,7.87a4.2,4.2,0,0,0,1.84-1.59,3.65,3.65,0,0,0,.21-2.64,16.66,16.66,0,0,0-1-2.52c-2.11-4.64-2.79-10.1-3-15.17-.27-5.52-.14-11.47,1.95-16.66,3.63-9.07.09-9.67-1.54-8.16s-6.73,4.95-6.73,4.95a19.12,19.12,0,0,1,1.22-3.08,41.61,41.61,0,0,1-11.34,11.73c2.87-.59,8.13-1.33,8.13-1.33s-2,17.07-4.69,22.62-6.57,5.29-7.58,8.83C108.4,372.71,108.21,376.87,110.48,376.93Z" style="opacity:0.2"></path><path d="M122.45,380.22a6.25,6.25,0,0,0-3,.57c-1.2.71-1.11,1.33-1.11,1.33s2.54,3.11,5.14,3.38A6,6,0,0,1,122.45,380.22Z" style="fill:#263238"></path><path d="M112.17,375.11a4.73,4.73,0,0,0-2.26-.72c-1.07,0-1.23.49-1.23.49s.58,3,2.23,4.15A4.6,4.6,0,0,1,112.17,375.11Z" style="fill:#263238"></path><path d="M133.26,371.68a6.46,6.46,0,0,0-3.08.86c-1.18.83-1,1.47-1,1.47s2.9,3,5.6,3A6.25,6.25,0,0,1,133.26,371.68Z" style="fill:#263238"></path><path d="M337.26,316.27a5.34,5.34,0,0,0-2.12,5.24,6.52,6.52,0,0,1,4.38-3.06C342.54,317.94,337.26,316.27,337.26,316.27Z" style="fill:#263238"></path><path d="M330,286.31c7.59.85,12,6.48,15,13.58,3.68,8.53,11.44,9.84,18.94,11.24,1.9.35,11,8,9.72,9.08-.68.6-2.86,1.91-3.89.94a23.55,23.55,0,0,0-8.77-5.52c1.49,1,2.51,5.66,1.87,6.1-1.81,1.28-4.87.57-5.27-.27-1-2-3.92-5.09-6.76-5.39-5.33-.56-8.52,2.62-11.46,2.89-1.06.1-4.19-1.43-2.52-3.4s6.62-4.05,6.62-4.05a47.27,47.27,0,0,0-9.49-7c-9.41-5.49-14.24-12.19-16-16.85Z" style="fill:#92E3A9"></path><path d="M373.19,319.68s2,2,.46,4.12c0,0-1.29-2.35-2.35-2.37S373.19,319.68,373.19,319.68Z" style="fill:#263238"></path><path d="M362.31,321.33c-.06-.45-2.78-.88-3.43-.12s1.24,2.6,1.56,4.21C360.44,325.42,362.57,323.4,362.31,321.33Z" style="fill:#263238"></path><path d="M302.33,281.73a35.08,35.08,0,0,0,4.5,4.41,32.62,32.62,0,0,0,17.82,7.59l6.24-5.59a63.8,63.8,0,0,0-9.19-13.61,109,109,0,0,0-8.53-8.95S292.42,270.19,302.33,281.73Z" style="fill:#92E3A9"></path><path d="M302.33,281.73a35.08,35.08,0,0,0,4.5,4.41,42,42,0,0,0,14.87-11.61,109,109,0,0,0-8.53-8.95S292.42,270.19,302.33,281.73Z" style="opacity:0.2"></path><polygon points="324.86 223.09 317.41 229.42 317.79 231.46 307.37 232.84 307.9 235.7 287.44 237.15 289.34 239.19 273.03 235.69 273.68 239.16 253.7 232.23 254.41 236.06 238.15 229.81 237.76 231.62 218.02 223.94 217.33 226.37 193.47 216.96 193.87 219.11 168.76 214.04 169.33 217.1 146.86 217.57 148.46 221.02 131.78 225.56 133.4 228.11 120.48 236.5 123.11 237.67 114.23 247.87 118.85 252.95 226.63 246.46 306.03 250.29 326.97 234.3 324.86 223.09" style="fill:#92E3A9"></polygon><polygon points="324.86 223.09 317.41 229.42 317.79 231.46 307.37 232.84 307.9 235.7 287.44 237.15 289.34 239.19 273.03 235.69 273.68 239.16 253.7 232.23 254.41 236.06 238.15 229.81 237.76 231.62 218.02 223.94 217.33 226.37 193.47 216.96 193.87 219.11 168.76 214.04 169.33 217.1 146.86 217.57 148.46 221.02 131.78 225.56 133.4 228.11 120.48 236.5 123.11 237.67 114.23 247.87 118.85 252.95 226.63 246.46 306.03 250.29 326.97 234.3 324.86 223.09" style="fill:#fff;opacity:0.2"></polygon><path d="M111.54,286.73a42,42,0,0,0,4.68,9.56c5.12,7.74,12.53,13.12,20.56,14.22,26.25,3.61,32.44-19.73,14.73-28.68,0,0-2.81-13.22,11.07-19.19,11.28-4.82,31.63,7.07,68.61,14.87,2.85.61,5.81,1.18,8.87,1.74,1.93.33,3.91.67,5.93,1,4.38.69,9,1.29,13.74,1.8,55.6,5.9,20.63-41.32,20.63-41.32-58.15-1.51-97.67-41.73-143.87-12.26C124.57,236.06,117.11,245,113,254.21c0,.1-.09.2-.12.3a44.41,44.41,0,0,0-3.68,20.59s0,0,0,0c0,.54.07,1.08.12,1.63s.14,1.33.24,2h0c.07.52.15,1,.25,1.56s.25,1.28.39,1.9v0c.12.55.25,1.1.4,1.63.18.69.38,1.37.6,2.05C111.35,286.17,111.44,286.45,111.54,286.73Z" style="fill:#92E3A9"></path><path d="M116.23,296.29c5.12,7.75,12.53,13.12,20.54,14.22,26.26,3.6,32.46-19.73,14.74-28.68,0,0-2.81-13.21,11.07-19.18C175.27,257.2,199.49,273,246,280.23l5.34-11.67c-26.27-1.89-62.46-26.38-102-14.87C123.42,261.24,114.88,280.49,116.23,296.29Z" style="fill:#fff;opacity:0.4"></path><path d="M231.19,277.51c2.85.61,5.81,1.18,8.87,1.74L249.52,266c-5.33-4.92-2.31-12.35-2.31-12.35-6.32,5-3.88,12.74-3.88,12.74C238.49,268.72,233.55,274.5,231.19,277.51Z" style="opacity:0.1"></path><path d="M312.68,170.65c.44-.66,14.08-6.45,14.08-6.45l-1.8,3.57,14.32-.59-3.07,1.91,13.39,4.28-1.28,1.33,12,8s-4-1-3.13.58S362.8,196,362.8,196l-2.1-.43s-6.09,19.25-6.7,18.79S312.68,170.65,312.68,170.65Z" style="fill:#92E3A9"></path><path d="M312.68,170.65c.44-.66,14.08-6.45,14.08-6.45l-1.8,3.57,14.32-.59-3.07,1.91,13.39,4.28-1.28,1.33,12,8s-4-1-3.13.58S362.8,196,362.8,196l-2.1-.43s-6.09,19.25-6.7,18.79S312.68,170.65,312.68,170.65Z" style="fill:#fff;opacity:0.2"></path><path d="M255.52,281.05c.37.11.73.22,1.11.31a52.11,52.11,0,0,0,12,1.46q.87,0,1.77,0c41.27.2,81.4-21.21,90-58.73a67.61,67.61,0,0,0,1.71-15.82c0-1.16-.05-2.29-.11-3.39,0-.3,0-.6-.07-.89-.11-1.63-.3-3.18-.54-4.67-.05-.36-.11-.71-.18-1.06-.09-.52-.19-1-.31-1.53,0-.3-.13-.61-.19-.91-.13-.51-.25-1-.39-1.5s-.21-.73-.32-1.09h0c-9.54-31.39-49-27.78-65.28-15.44,0,0-4.74,18.94,5.06,23.18a12.82,12.82,0,0,0,7,.67,27.16,27.16,0,0,0,4-.93l.44-.13c8.25-2.63,13.36-.77,15.75,3.25,1.85,3.11,2.07,7.51.87,12.1-.06.22-.11.44-.19.66-.17.59-.36,1.17-.56,1.76-.11.31-.24.6-.37.91-.22.58-.48,1.17-.76,1.74-.15.33-.32.65-.5,1a30.39,30.39,0,0,1-11.82,12.31c-18.93,10.66-37.08,3.26-47,8.81C258.14,247.92,232.18,274,255.52,281.05Z" style="fill:#92E3A9"></path><path d="M254.83,279.73a10.48,10.48,0,0,0,.69,1.32,52.23,52.23,0,0,0,14.86,1.8c41.26.2,81.4-21.21,90-58.73a84.49,84.49,0,0,0-.41-14.37c-4.12-36.51-45.53-26.52-45.53-26.52L299.77,201l-5,6.12a47.8,47.8,0,0,1,12.09-5.47,34.68,34.68,0,0,1,4-.92l.44-.13c8.25-2.63,13.36-.77,15.74,3.25a23.09,23.09,0,0,1,7.36,9.65c11.29,25.31-9.38,50.21-37.67,56.32-24,5.19-39.35-2.16-39.35-2.16Z" style="fill:#fff;opacity:0.4"></path><path d="M256.64,281.36a52,52,0,0,0,12,1.46,39.56,39.56,0,0,0,6.85-7.73s10.64-4.91,10-13.17c0,0-4.14,6.85-11.21,8.77Z" style="opacity:0.1"></path><path d="M261.34,184c1.52,7.24,20.18,8.35,20.18,8.35l.65-5.89.85-7.85s-8.71.2-12.3-1,16.88-21.77,17.47-22.37c-.7.48-23.14,16.11-26.6,25.82A5.25,5.25,0,0,0,261.34,184Z" style="fill:#263238"></path><path d="M261.34,184c3.16,5.35,16.71,5.17,17.16,5.52l3.67-3.06.85-7.85s-8.71.2-12.3-1,16.88-21.77,17.47-22.37c-.7.48-23.14,16.11-26.6,25.82A5.25,5.25,0,0,0,261.34,184Z" style="fill:#fff;opacity:0.2"></path><path d="M309.66,206a11.06,11.06,0,0,0,7.91-1.48,65.54,65.54,0,0,0,8.32-6.53,10.88,10.88,0,0,1-7.16,2.71s2.72-7.29,7.91-9.65c0,0-5-1.29-7.44.35a42.22,42.22,0,0,0,5.61-10.09,18.35,18.35,0,0,1-5.81,2.63s1.22-6.2-1.52-10.8-1.18-10.86-1.18-10.86-5.46,1.85-7.77,6.77a12.84,12.84,0,0,1,4.35-7.66s-11.82-.17-18.8,8.47a14,14,0,0,1,4.25-8.81s-11.41,3.22-14,12.54a13,13,0,0,1,2.3-6.26s-11.73,2.42-7,19.89S309.66,206,309.66,206Z" style="fill:#92E3A9"></path><path d="M309.66,206a11.06,11.06,0,0,0,7.91-1.48,65.54,65.54,0,0,0,8.32-6.53,10.88,10.88,0,0,1-7.16,2.71s2.72-7.29,7.91-9.65c0,0-5-1.29-7.44.35a42.22,42.22,0,0,0,5.61-10.09,18.35,18.35,0,0,1-5.81,2.63s1.22-6.2-1.52-10.8-1.18-10.86-1.18-10.86-5.46,1.85-7.77,6.77a12.84,12.84,0,0,1,4.35-7.66s-11.82-.17-18.8,8.47a14,14,0,0,1,4.25-8.81s-11.41,3.22-14,12.54a13,13,0,0,1,2.3-6.26s-11.73,2.42-7,19.89S309.66,206,309.66,206Z" style="fill:#fff;opacity:0.2"></path><path d="M310.9,189.24c5.45,1,4.33,14.13,1.38,16.56s-9.74,5.84-11.39,15.18-3.61,10.31-6.85,10.75-4.8-3.28-4.8-3.28,3.58-11.84,1.15-17.09S295,186.31,310.9,189.24Z" style="fill:#92E3A9"></path><path d="M310.9,189.24c5.45,1,4.33,14.13,1.38,16.56s-9.74,5.84-11.39,15.18-3.61,10.31-6.85,10.75-4.8-3.28-4.8-3.28,3.58-11.84,1.15-17.09S295,186.31,310.9,189.24Z" style="fill:#fff;opacity:0.4"></path><path d="M305.58,192.93s2.45,4.8-.7,8.89-5.24,10.27-6.24,17.2-2.71,9.16-5.62,10-3.13-.77-3.13-.77,2.9-9.08,1.34-14.92S305.58,192.93,305.58,192.93Z" style="fill:#263238"></path><path d="M291.33,227c2.68-6-.31-14.84,1.69-17.79.48-.7-3.1,2.87-3.06,3.09s1.7,3.48,1.7,3.48l-1.68,0,2,3.26-2.35-1,1.78,3.53-2.47-1.19s2.75,4.41,2,4.26-2.25-1.74-2.25-1.74.72,2.79,1.54,3.66C290.71,227.07,291.23,227.2,291.33,227Z" style="fill:#92E3A9"></path><path d="M291.33,227c2.68-6-.31-14.84,1.69-17.79.48-.7-3.1,2.87-3.06,3.09s1.7,3.48,1.7,3.48l-1.68,0,2,3.26-2.35-1,1.78,3.53-2.47-1.19s2.75,4.41,2,4.26-2.25-1.74-2.25-1.74.72,2.79,1.54,3.66C290.71,227.07,291.23,227.2,291.33,227Z" style="fill:#fff;opacity:0.5"></path><path d="M302,204.66a4.23,4.23,0,0,0-2.46-1.75l1.56,4.31L299,205.64l.77,4.12-1.94-1.25,1.37,4.09-2.6-1.58,1.69,4.47-2.73-1.37,1.81,4.36-2.36-.83,1.85,3.83-2.23-.53,1.62,3.28-2.81-.49,1.4,2.89-3.09-1.47,1,2.79-3.41-2.26a3.65,3.65,0,0,0,.93,3c1.21,1.14,6.05-.16,7.51-6.78s2.07-9.68,2.93-12.82S302.48,205.26,302,204.66Z" style="fill:#92E3A9"></path><path d="M302,204.66a4.23,4.23,0,0,0-2.46-1.75l1.56,4.31L299,205.64l.77,4.12-1.94-1.25,1.37,4.09-2.6-1.58,1.69,4.47-2.73-1.37,1.81,4.36-2.36-.83,1.85,3.83-2.23-.53,1.62,3.28-2.81-.49,1.4,2.89-3.09-1.47,1,2.79-3.41-2.26a3.65,3.65,0,0,0,.93,3c1.21,1.14,6.05-.16,7.51-6.78s2.07-9.68,2.93-12.82S302.48,205.26,302,204.66Z" style="fill:#fff;opacity:0.7000000000000001"></path><path d="M297.6,201.65a12.81,12.81,0,0,1,.93,4.94l-2.44-2.1.74,3.95-2.12-1.3.71,3.79-1.74-.53.59,3.13-2.06-.64.23,3.7-1.91-.83.23,3-1.87-.42V221l-2-.65-.38,2.54-2.17-1.12-.37,3.05-2.4-1.43L281.4,226l-1.9-1.6-.6,2.07-2.36-2.12.29,1.57s-2.12-1.31-2.69-5.29S289.05,200.61,297.6,201.65Z" style="fill:#92E3A9"></path><path d="M297.6,201.65a12.81,12.81,0,0,1,.93,4.94l-2.44-2.1.74,3.95-2.12-1.3.71,3.79-1.74-.53.59,3.13-2.06-.64.23,3.7-1.91-.83.23,3-1.87-.42V221l-2-.65-.38,2.54-2.17-1.12-.37,3.05-2.4-1.43L281.4,226l-1.9-1.6-.6,2.07-2.36-2.12.29,1.57s-2.12-1.31-2.69-5.29S289.05,200.61,297.6,201.65Z" style="fill:#fff;opacity:0.7000000000000001"></path><path d="M277,224.26s7.84-2.16,11.38-6.15,5.4-13.5,8.71-15.23,9.72-1.49,8.56-7.68,5.25-6,5.25-6,1.3-7.58-5.09-7.74c0,0,2.78-5.11.94-7.13a1.78,1.78,0,0,0-.54-.42c-7.48-4.18-10.08-.2-12.52,2.32a23.88,23.88,0,0,0-7.86,1.7s-2.6-2.73-6,.14h0c-4.29,3.78-2.06,8.9-1.46,10.07l.13.26a17.65,17.65,0,0,0-2.57,4.15,12.58,12.58,0,0,0-1,3.4c-.59,4.14,3.74,7.87,3.74,7.87v.06c0,.11-.05.36-.1.71-.35,2.06-1.59,7.69-5.31,10.18a6.38,6.38,0,0,1-1.64.85,7,7,0,0,1-1.13.3c-1.13.19-1.73.54-1.94,1C267.4,219.27,277,224.26,277,224.26Z" style="fill:#92E3A9"></path><path d="M295.43,197.65c0-1.36-2.07-.75-3.19.6s-2.23,3.83-4.37,3.32c0,0,1.49,1,3.61-1.36C291.48,200.21,295.42,201,295.43,197.65Z" style="fill:#263238"></path><path d="M292.51,199.88a1.41,1.41,0,1,0,.35-1.7A1.25,1.25,0,0,0,292.51,199.88Z" style="fill:#fff"></path><path d="M279.91,218.23c0-1.6-2.15-1-2.69.2a4,4,0,0,0,.24,2.86l.19-1.93S279.88,219.68,279.91,218.23Z" style="fill:#263238"></path><path d="M286.13,201.2c-1.42-.73-2.15-4.24-.86-6.44a6.09,6.09,0,0,1,2.56-2.7,3.93,3.93,0,0,0-.42,1.87s1.2-2.91,5.63-4.55l-.81,1.34s7-1.69,8.32-3.35c0,0-.09,6.58-6.21,9l.59-1.48s-.53,1.76-3.5,3.52a2.35,2.35,0,0,0-.1-1.52s-.24,2.53-1.53,3.65A3.22,3.22,0,0,1,286.13,201.2Z" style="fill:#fff;opacity:0.2"></path><path d="M278.63,203.87v.06a1.86,1.86,0,0,0,1-.91s1.54-2.74,1.26-3.58-4.25-3.93-3.08-6.08a2.72,2.72,0,0,0-.32,3.1,9.89,9.89,0,0,1-1.57-3.86,12.58,12.58,0,0,0-1,3.4C274.3,200.14,278.63,203.87,278.63,203.87Z" style="fill:#fff;opacity:0.2"></path><path d="M282.3,218c1.23-2-.85-4.26-3.1-3.67s-5.16,3.84-3.68,6.91l1,.27s-.29-3.61,1.54-5,2.62,2.3,2.62,2.3S281.87,218.66,282.3,218Z" style="fill:#fff;opacity:0.2"></path><path d="M268.51,217c.37,1.71,2.52,3.9,6.27,4.84a6,6,0,0,1-.61-3.23,15.31,15.31,0,0,0-2.59-2.89,7,7,0,0,1-1.13.3C269.32,216.16,268.72,216.51,268.51,217Z" style="fill:#fff;opacity:0.2"></path><path d="M273.22,214.82l2,2a9.52,9.52,0,0,1,2.73-2.93,5.28,5.28,0,0,1,4.2-.17s.79-1-.6-1.38a5.87,5.87,0,0,0-2.72-.11c1.2-1,3-.17,3-.17s1.17-.68.74-1.45-2.94-.58-2.94-.58c1-1,4.16.07,4.14-1.52s-3.27-.8-3.27-.8c1.37-1.17,3.86-.33,3.86-.33s2.18-1.09,1.08-1.8-3.78-.14-3.78-.14c1.53-1.54,4.19-.11,5.3-1.11a1.77,1.77,0,0,0,.39-2.23,4.7,4.7,0,0,1-2.08-.46c-1-.5-1.05-2.87-1.08-3.78a14.6,14.6,0,0,1,.93-3.36l-.12-.65c-2.54,1.27-2,4.23-2,4.5-.77-2.65.23-6.79.3-7.09-.09.16-.79,1.53-1.38,2.88s0,4.26,0,4.26a3.53,3.53,0,0,1-.64-2.21c-.78-.54-.93-2.34-.93-2.34s-1.3.77-1.21,1.83,2.78,3.57,2.47,5.58c-.26,1.67-2.21,2.78-3.08,3.41C278.18,206.7,276.94,212.33,273.22,214.82Z" style="fill:#fff;opacity:0.2"></path><path d="M299.8,171.46c-3.8,2.18-3.91,7.57-3.91,7.57a2,2,0,0,1-1.17-1.21,6.72,6.72,0,0,1-2.67,4.56,28.19,28.19,0,0,0-4.44,4.53l-.52-2.76-3.19,4.3-1.5-2.35-.73,1.93s-3.12-7.86-.19-11.55,8.63-5.68,8.63-5.68l2.65,1.06,6.76-1.9Z" style="fill:#92E3A9"></path><path d="M299.8,171.46c-3.8,2.18-3.91,7.57-3.91,7.57a2,2,0,0,1-1.17-1.21,6.72,6.72,0,0,1-2.67,4.56,28.19,28.19,0,0,0-4.44,4.53l-.52-2.76-3.19,4.3-1.5-2.35-.73,1.93s-3.12-7.86-.19-11.55,8.63-5.68,8.63-5.68l2.65,1.06,6.76-1.9Z" style="fill:#fff;opacity:0.2"></path><path d="M301.41,183.5a11.41,11.41,0,0,0,.84,2s15-3.84,20.9-9.47c5.56-5.27,3.36-24.75,3.07-27.17a1.51,1.51,0,0,1,0-.25s-2.39,17.27-5,19.5-17.29,6-17.29,6C302.21,174.9,300,178.78,301.41,183.5Z" style="fill:#263238"></path><path d="M301.41,183.5c4.21-1.05,16-4.43,20.89-10.49,5.58-6.93,4.14-22,3.92-24.13a1.51,1.51,0,0,1,0-.25s-2.39,17.27-5,19.5-17.29,6-17.29,6C302.21,174.9,300,178.78,301.41,183.5Z" style="fill:#fff;opacity:0.2"></path><path d="M258.65,317.83a5.34,5.34,0,0,0-.91,5.58,6.5,6.5,0,0,1,3.61-4C264.18,318.29,258.65,317.83,258.65,317.83Z" style="fill:#263238"></path><path d="M256.89,259.56c-13,3.23-22,26.16-24.81,29.29-1.77,1.95,4.06,12.94,20.81,18.24a47.22,47.22,0,0,1,10.79,4.72s-4.36,3.11-5.56,5.41,2.2,3.09,3.2,2.76c2.81-.91,5.23-4.71,10.55-5.34,2.83-.34,6.4,2,7.78,3.77.58.73,3.72.75,5.2-.9.52-.57-1.5-4.92-3.17-5.54a23.62,23.62,0,0,1,9.77,3.45c1.22.72,3.06-1,3.59-1.76,1-1.38-9.55-6.8-11.48-6.73-7.62.29-15.48.72-20.95-6.78s-10.5-9.74-10.5-9.74,4.3-5.31,7.7-6.77,16.95-11.5,14.93-16.57S267.29,257,256.89,259.56Z" style="fill:#92E3A9"></path><path d="M294.45,313.24s2.39,1.51,1.36,3.92c0,0-1.78-2-2.82-1.79S294.45,313.24,294.45,313.24Z" style="fill:#263238"></path><path d="M284.21,317.25c-.16-.43-2.91-.25-3.38.64s1.79,2.26,2.45,3.75C283.28,321.64,284.91,319.21,284.21,317.25Z" style="fill:#263238"></path><path d="M194.05,336.59c-.33,1.66.7,3.44,1.22,5a1.61,1.61,0,0,0,.46.8,1.58,1.58,0,0,0,.86.26l1.71.19a1.8,1.8,0,0,0,.8,0,1.57,1.57,0,0,0,.61-.48,4.18,4.18,0,0,0,.92-1.33c.39-1,.34-6.48,1.65-6.48a1,1,0,0,1,.54.22c.91.69,1.41,1.84,2.36,2.47a3.78,3.78,0,0,1,.73.53,2.52,2.52,0,0,1,.33.75,6.4,6.4,0,0,0,1.44,2.4,1.66,1.66,0,0,0,.44.35,1.54,1.54,0,0,0,.88,0,9.06,9.06,0,0,0,3.24-.91,2,2,0,0,0,.8-.77,2.07,2.07,0,0,0,.05-1.35,14,14,0,0,0-2-3.74c-.31-.47-3-3-.61-2.51a7.24,7.24,0,0,1,4,2.23,3,3,0,0,0,.79.73,1.76,1.76,0,0,0,1.26.09,3.12,3.12,0,0,0,2.06-4,6.37,6.37,0,0,0-1.59-2c-.53-.49-1.06-1-1.57-1.47a3.43,3.43,0,0,0-.71-.56,2.88,2.88,0,0,0-.83-.31c-1.87-.48-4.05-.51-5.4-2-.94-1-1.8-2.28-2.66-3.37-2.08-2.62-4-5.37-6-8.08-1.41-2-2.82-4-4.3-5.88-.56-.71-1.11-1.41-1.69-2.1-1.39-1.68-3-3.86-5.11-4.76-.17-.08-1.46-.62-1.59-.32L185,304.9q2.37,4.58,4.7,9.17c1.25,2.46,2.5,4.93,3.72,7.4.56,1.11,1.16,2.22,1.66,3.38a7.38,7.38,0,0,1,.38,1.12c.31,1.13.43,2.31.63,3.47a5.56,5.56,0,0,1,.14,1.51,5.24,5.24,0,0,1-.29,1.23C195.45,333.7,194.37,335,194.05,336.59Z" style="fill:#92E3A9"></path><path d="M200.07,340.86a6.21,6.21,0,0,0-3.06-.41c-1.37.29-1.47.92-1.47.92s1.44,3.74,3.81,4.82A6,6,0,0,1,200.07,340.86Z" style="fill:#263238"></path><path d="M214.61,334.2a6.23,6.23,0,0,1,2.53-1.78c1.35-.37,1.73.14,1.73.14s.45,4-1.17,6A6,6,0,0,0,214.61,334.2Z" style="fill:#263238"></path><path d="M211.23,337.78c-2-.12-3.66,1.51-2.74,3s3.17,3,3.37,3.76a9.73,9.73,0,0,0,1.28-4C213.15,338.63,212.77,337.87,211.23,337.78Z" style="fill:#263238"></path><path d="M185,304.9q2.37,4.58,4.7,9.17c1.25,2.46,2.5,4.93,3.72,7.4.56,1.11,1.16,2.22,1.66,3.38a7.38,7.38,0,0,1,.38,1.12c1.52-5.48,1.11-12.44.07-18.6-.56-.71-1.11-1.41-1.69-2.1-1.39-1.68-3-3.86-5.11-4.76-.17-.08-1.46-.62-1.59-.32Z" style="opacity:0.2"></path><path d="M154.73,279.29c11.93-1.29,32.66,12,35.36,20.35s5.78,12.84,0,16.33-13.62-9.18-21.32-10-14.17-17.12-15-21.48S154.73,279.29,154.73,279.29Z" style="fill:#92E3A9"></path><path d="M109.86,280.29c1.41.39,1.94-1.29,1.94-1.29a1.8,1.8,0,0,1-2.19-.27C109.68,279.25,109.76,279.77,109.86,280.29Z" style="fill:#fff;opacity:0.2"></path><path d="M112.88,279.42a1.78,1.78,0,0,0,2.71,1.28s-.61,1.94-2.25,1.18S112.88,279.42,112.88,279.42Z" style="fill:#fff;opacity:0.2"></path><path d="M111.54,286.73a2.44,2.44,0,0,0,.78-1.11,2.26,2.26,0,0,1-1.06.27C111.35,286.17,111.44,286.45,111.54,286.73Z" style="fill:#fff;opacity:0.2"></path><path d="M113.52,283.06a1.78,1.78,0,0,0,2.71,1.28s-.62,1.94-2.25,1.18S113.52,283.06,113.52,283.06Z" style="fill:#fff;opacity:0.2"></path><path d="M109.36,276.74c1.6.69,2.19-1.21,2.19-1.21a1.76,1.76,0,0,1-2.31-.42C109.27,275.65,109.31,276.19,109.36,276.74Z" style="fill:#fff;opacity:0.2"></path><path d="M112.42,275.87a1.79,1.79,0,0,0,2.72,1.28s-.62,1.94-2.25,1.18S112.42,275.87,112.42,275.87Z" style="fill:#fff;opacity:0.2"></path><path d="M110.66,283.84c1.33.31,1.85-1.31,1.85-1.31a1.82,1.82,0,0,1-2.25-.32C110.38,282.76,110.51,283.31,110.66,283.84Z" style="fill:#fff;opacity:0.2"></path><path d="M112.68,305.59a1.78,1.78,0,0,0,2.83,1s-.41,2-2.12,1.39S112.68,305.59,112.68,305.59Z" style="opacity:0.2"></path><path d="M116.18,306.73a1.78,1.78,0,0,0,2.83,1s-.42,2-2.12,1.39S116.18,306.73,116.18,306.73Z" style="opacity:0.2"></path><path d="M120.12,308.05a1.78,1.78,0,0,0,2.83,1s-.42,2-2.12,1.4S120.12,308.05,120.12,308.05Z" style="opacity:0.2"></path><path d="M113.51,308.49a1.78,1.78,0,0,0,2.83,1s-.42,2-2.13,1.4S113.51,308.49,113.51,308.49Z" style="opacity:0.2"></path><path d="M113.85,312.18a1.78,1.78,0,0,0,2.83,1s-.42,2-2.12,1.4S113.85,312.18,113.85,312.18Z" style="opacity:0.2"></path><path d="M110.26,310.81a1.78,1.78,0,0,0,2.83,1s-.42,2-2.12,1.39S110.26,310.81,110.26,310.81Z" style="opacity:0.2"></path><path d="M117.36,313.27a1.78,1.78,0,0,0,2.83,1s-.42,2-2.12,1.4S117.36,313.27,117.36,313.27Z" style="opacity:0.2"></path><path d="M121.12,311.61a1.78,1.78,0,0,0,2.82,1s-.41,2-2.12,1.4S121.12,311.61,121.12,311.61Z" style="opacity:0.2"></path><path d="M109.25,307.21a1.78,1.78,0,0,0,2.83,1s-.42,2-2.12,1.4S109.25,307.21,109.25,307.21Z" style="opacity:0.2"></path><path d="M110.55,314.57a1.78,1.78,0,0,0,2.83,1s-.42,2-2.13,1.4S110.55,314.57,110.55,314.57Z" style="opacity:0.2"></path><path d="M114.9,315.93a1.78,1.78,0,0,0,2.83,1s-.42,2-2.12,1.39S114.9,315.93,114.9,315.93Z" style="opacity:0.2"></path><path d="M115.59,303.32a1.78,1.78,0,0,0,2.82,1s-.41,2-2.12,1.39S115.59,303.32,115.59,303.32Z" style="opacity:0.2"></path><path d="M119.31,304.56a1.78,1.78,0,0,0,2.83,1s-.42,2-2.12,1.39S119.31,304.56,119.31,304.56Z" style="opacity:0.2"></path><path d="M117.24,310.18a1.78,1.78,0,0,0,2.82,1s-.41,2-2.12,1.4S117.24,310.18,117.24,310.18Z" style="opacity:0.2"></path><path d="M110.85,329a1.28,1.28,0,0,0,2.14.34s0,1.47-1.33,1.27S110.85,329,110.85,329Z" style="opacity:0.2"></path><path d="M113.49,329.37a1.29,1.29,0,0,0,2.14.35s0,1.47-1.33,1.27S113.49,329.37,113.49,329.37Z" style="opacity:0.2"></path><path d="M116.47,329.8a1.28,1.28,0,0,0,2.14.34s0,1.47-1.32,1.28S116.47,329.8,116.47,329.8Z" style="opacity:0.2"></path><path d="M111.81,331a1.3,1.3,0,0,0,2.15.35s0,1.47-1.33,1.27S111.81,331,111.81,331Z" style="opacity:0.2"></path><path d="M112.54,333.56a1.29,1.29,0,0,0,2.14.35s0,1.47-1.33,1.27S112.54,333.56,112.54,333.56Z" style="opacity:0.2"></path><path d="M109.8,333.06a1.29,1.29,0,0,0,2.15.34s0,1.47-1.33,1.27S109.8,333.06,109.8,333.06Z" style="opacity:0.2"></path><path d="M115.18,333.88a1.29,1.29,0,0,0,2.15.34s0,1.48-1.33,1.28S115.18,333.88,115.18,333.88Z" style="opacity:0.2"></path><path d="M117.64,332.2a1.3,1.3,0,0,0,2.15.35s0,1.47-1.33,1.27S117.64,332.2,117.64,332.2Z" style="opacity:0.2"></path><path d="M108.61,330.62a1.29,1.29,0,0,0,2.15.34s0,1.48-1.33,1.28S108.61,330.62,108.61,330.62Z" style="opacity:0.2"></path><path d="M110.5,335.69a1.28,1.28,0,0,0,2.14.35s0,1.47-1.33,1.27S110.5,335.69,110.5,335.69Z" style="opacity:0.2"></path><path d="M113.78,336.1a1.3,1.3,0,0,0,2.15.35s0,1.47-1.33,1.27S113.78,336.1,113.78,336.1Z" style="opacity:0.2"></path><path d="M112.62,327a1.29,1.29,0,0,0,2.14.35s0,1.47-1.32,1.27S112.62,327,112.62,327Z" style="opacity:0.2"></path><path d="M115.43,327.42a1.29,1.29,0,0,0,2.15.34s0,1.48-1.33,1.28S115.43,327.42,115.43,327.42Z" style="opacity:0.2"></path><path d="M114.69,331.69a1.29,1.29,0,0,0,2.15.34s0,1.48-1.33,1.28S114.69,331.69,114.69,331.69Z" style="opacity:0.2"></path><path d="M165.19,295.22a1.78,1.78,0,0,0,2.09-2.15s1.63,1.21.38,2.51S165.19,295.22,165.19,295.22Z" style="opacity:0.2"></path><path d="M167.68,292.52a1.78,1.78,0,0,0,2.1-2.15s1.63,1.21.38,2.51S167.68,292.52,167.68,292.52Z" style="opacity:0.2"></path><path d="M170.53,289.49a1.78,1.78,0,0,0,2.09-2.15s1.64,1.21.39,2.51S170.53,289.49,170.53,289.49Z" style="opacity:0.2"></path><path d="M168.16,295.68a1.78,1.78,0,0,0,2.1-2.15s1.63,1.21.38,2.51S168.16,295.68,168.16,295.68Z" style="opacity:0.2"></path><path d="M171.66,296.91a1.78,1.78,0,0,0,2.09-2.14s1.63,1.21.38,2.51S171.66,296.91,171.66,296.91Z" style="opacity:0.2"></path><path d="M168.91,299.6a1.78,1.78,0,0,0,2.1-2.15s1.63,1.21.38,2.51S168.91,299.6,168.91,299.6Z" style="opacity:0.2"></path><path d="M174.12,294.18a1.78,1.78,0,0,0,2.09-2.15s1.63,1.21.38,2.51S174.12,294.18,174.12,294.18Z" style="opacity:0.2"></path><path d="M174.18,290.07a1.78,1.78,0,0,0,2.09-2.14s1.63,1.21.38,2.51S174.18,290.07,174.18,290.07Z" style="opacity:0.2"></path><path d="M165.22,299a1.78,1.78,0,0,0,2.09-2.15s1.63,1.21.38,2.51S165.22,299,165.22,299Z" style="opacity:0.2"></path><path d="M172.44,300.91a1.78,1.78,0,0,0,2.1-2.14s1.63,1.21.38,2.51S172.44,300.91,172.44,300.91Z" style="opacity:0.2"></path><path d="M175.51,297.53a1.78,1.78,0,0,0,2.09-2.15s1.63,1.21.38,2.51S175.51,297.53,175.51,297.53Z" style="opacity:0.2"></path><path d="M164.33,291.63a1.79,1.79,0,0,0,2.1-2.15s1.63,1.21.38,2.51S164.33,291.63,164.33,291.63Z" style="opacity:0.2"></path><path d="M167,288.77a1.78,1.78,0,0,0,2.09-2.15s1.63,1.21.38,2.51S167,288.77,167,288.77Z" style="opacity:0.2"></path><path d="M171.25,293a1.78,1.78,0,0,0,2.1-2.15s1.63,1.21.38,2.51S171.25,293,171.25,293Z" style="opacity:0.2"></path><path d="M182.09,310.38a1.29,1.29,0,0,0,1.56-1.51s1.16.91.22,1.83S182.09,310.38,182.09,310.38Z" style="opacity:0.2"></path><path d="M184,308.48a1.3,1.3,0,0,0,1.57-1.51s1.15.92.21,1.83S184,308.48,184,308.48Z" style="opacity:0.2"></path><path d="M186.09,306.35a1.3,1.3,0,0,0,1.57-1.51s1.15.92.21,1.83S186.09,306.35,186.09,306.35Z" style="opacity:0.2"></path><path d="M184.23,310.78a1.3,1.3,0,0,0,1.57-1.51s1.15.92.22,1.83S184.23,310.78,184.23,310.78Z" style="opacity:0.2"></path><path d="M186.74,311.75a1.28,1.28,0,0,0,1.56-1.5s1.16.91.22,1.82S186.74,311.75,186.74,311.75Z" style="opacity:0.2"></path><path d="M184.69,313.64a1.3,1.3,0,0,0,1.57-1.51s1.15.91.22,1.83S184.69,313.64,184.69,313.64Z" style="opacity:0.2"></path><path d="M188.58,309.83a1.3,1.3,0,0,0,1.57-1.51s1.15.91.22,1.83S188.58,309.83,188.58,309.83Z" style="opacity:0.2"></path><path d="M188.72,306.86a1.29,1.29,0,0,0,1.56-1.51s1.16.91.22,1.82S188.72,306.86,188.72,306.86Z" style="opacity:0.2"></path><path d="M182,313.13a1.29,1.29,0,0,0,1.56-1.51s1.16.91.22,1.83S182,313.13,182,313.13Z" style="opacity:0.2"></path><path d="M187.22,314.67a1.29,1.29,0,0,0,1.56-1.51s1.16.91.22,1.83S187.22,314.67,187.22,314.67Z" style="opacity:0.2"></path><path d="M189.51,312.29a1.3,1.3,0,0,0,1.57-1.51s1.15.91.22,1.83S189.51,312.29,189.51,312.29Z" style="opacity:0.2"></path><path d="M181.55,307.76a1.3,1.3,0,0,0,1.57-1.51s1.15.91.22,1.83S181.55,307.76,181.55,307.76Z" style="opacity:0.2"></path><path d="M183.57,305.75a1.29,1.29,0,0,0,1.56-1.51s1.16.91.22,1.83S183.57,305.75,183.57,305.75Z" style="opacity:0.2"></path><path d="M186.53,308.91a1.3,1.3,0,0,0,1.57-1.51s1.15.91.22,1.83S186.53,308.91,186.53,308.91Z" style="opacity:0.2"></path><path d="M197.55,326.66a1.28,1.28,0,0,0,1.94-1s.83,1.22-.34,1.8S197.55,326.66,197.55,326.66Z" style="opacity:0.2"></path><path d="M199.9,325.42a1.3,1.3,0,0,0,1.95-1s.83,1.22-.34,1.81S199.9,325.42,199.9,325.42Z" style="opacity:0.2"></path><path d="M202.58,324a1.29,1.29,0,0,0,1.95-1s.82,1.22-.35,1.8S202.58,324,202.58,324Z" style="opacity:0.2"></path><path d="M199.47,327.69a1.29,1.29,0,0,0,1.95-1s.82,1.22-.35,1.81S199.47,327.69,199.47,327.69Z" style="opacity:0.2"></path><path d="M201.56,329.38a1.3,1.3,0,0,0,1.95-1s.83,1.22-.34,1.81S201.56,329.38,201.56,329.38Z" style="opacity:0.2"></path><path d="M199,330.56a1.3,1.3,0,0,0,2-1s.82,1.22-.34,1.81S199,330.56,199,330.56Z" style="opacity:0.2"></path><path d="M203.9,328.1a1.29,1.29,0,0,0,1.95-1s.82,1.21-.34,1.8S203.9,328.1,203.9,328.1Z" style="opacity:0.2"></path><path d="M204.93,325.31a1.3,1.3,0,0,0,1.95-1s.82,1.22-.34,1.81S204.93,325.31,204.93,325.31Z" style="opacity:0.2"></path><path d="M196.66,329.26a1.29,1.29,0,0,0,2-1s.82,1.22-.35,1.81S196.66,329.26,196.66,329.26Z" style="opacity:0.2"></path><path d="M201.14,332.3a1.29,1.29,0,0,0,2-1s.82,1.22-.35,1.8S201.14,332.3,201.14,332.3Z" style="opacity:0.2"></path><path d="M204.05,330.72a1.29,1.29,0,0,0,1.95-1s.82,1.22-.35,1.81S204.05,330.72,204.05,330.72Z" style="opacity:0.2"></path><path d="M197.83,324a1.28,1.28,0,0,0,1.94-1s.83,1.22-.34,1.8S197.83,324,197.83,324Z" style="opacity:0.2"></path><path d="M200.35,322.69a1.29,1.29,0,0,0,2-1s.83,1.22-.34,1.81S200.35,322.69,200.35,322.69Z" style="opacity:0.2"></path><path d="M202.23,326.6a1.29,1.29,0,0,0,2-1s.82,1.22-.35,1.81S202.23,326.6,202.23,326.6Z" style="opacity:0.2"></path><path d="M254.71,255.49a1.78,1.78,0,0,0,2.89.79s-.26,2-2,1.55S254.71,255.49,254.71,255.49Z" style="opacity:0.2"></path><path d="M258.28,256.36a1.78,1.78,0,0,0,2.9.78s-.27,2-2,1.56S258.28,256.36,258.28,256.36Z" style="opacity:0.2"></path><path d="M262.31,257.37a1.78,1.78,0,0,0,2.9.78s-.26,2-2,1.56S262.31,257.37,262.31,257.37Z" style="opacity:0.2"></path><path d="M255.75,258.32a1.79,1.79,0,0,0,2.9.78s-.26,2-2,1.56S255.75,258.32,255.75,258.32Z" style="opacity:0.2"></path><path d="M256.38,262a1.78,1.78,0,0,0,2.89.78s-.26,2-2,1.56S256.38,262,256.38,262Z" style="opacity:0.2"></path><path d="M252.7,260.89a1.78,1.78,0,0,0,2.89.78s-.26,2-2,1.55S252.7,260.89,252.7,260.89Z" style="opacity:0.2"></path><path d="M260,262.79a1.79,1.79,0,0,0,2.9.78s-.26,2-2,1.55S260,262.79,260,262.79Z" style="opacity:0.2"></path><path d="M263.58,260.84a1.78,1.78,0,0,0,2.89.78s-.26,2-2,1.56S263.58,260.84,263.58,260.84Z" style="opacity:0.2"></path><path d="M251.41,257.37a1.78,1.78,0,0,0,2.9.78s-.26,2-2,1.56S251.41,257.37,251.41,257.37Z" style="opacity:0.2"></path><path d="M253.27,264.61a1.78,1.78,0,0,0,2.89.78s-.26,2-2,1.55S253.27,264.61,253.27,264.61Z" style="opacity:0.2"></path><path d="M257.72,265.63a1.78,1.78,0,0,0,2.89.79s-.26,2-2,1.55S257.72,265.63,257.72,265.63Z" style="opacity:0.2"></path><path d="M257.43,253a1.78,1.78,0,0,0,2.89.78s-.26,2-2,1.56S257.43,253,257.43,253Z" style="opacity:0.2"></path><path d="M261.23,254a1.79,1.79,0,0,0,2.9.78s-.26,2-2,1.56S261.23,254,261.23,254Z" style="opacity:0.2"></path><path d="M259.6,259.71a1.77,1.77,0,0,0,2.89.78s-.26,2-2,1.56S259.6,259.71,259.6,259.71Z" style="opacity:0.2"></path><path d="M312.62,241.84a1.77,1.77,0,0,0,2.25,2s-1.12,1.7-2.48.52S312.62,241.84,312.62,241.84Z" style="opacity:0.2"></path><path d="M315.44,244.19a1.78,1.78,0,0,0,2.26,2s-1.12,1.7-2.48.52S315.44,244.19,315.44,244.19Z" style="opacity:0.2"></path><path d="M318.62,246.87a1.78,1.78,0,0,0,2.26,2s-1.12,1.69-2.49.52S318.62,246.87,318.62,246.87Z" style="opacity:0.2"></path><path d="M312.31,244.84a1.78,1.78,0,0,0,2.26,2s-1.12,1.69-2.48.52S312.31,244.84,312.31,244.84Z" style="opacity:0.2"></path><path d="M311.27,248.39a1.79,1.79,0,0,0,2.26,2s-1.12,1.69-2.49.51S311.27,248.39,311.27,248.39Z" style="opacity:0.2"></path><path d="M308.44,245.8a1.79,1.79,0,0,0,2.26,2s-1.12,1.69-2.49.51S308.44,245.8,308.44,245.8Z" style="opacity:0.2"></path><path d="M314.13,250.7a1.78,1.78,0,0,0,2.26,2s-1.12,1.7-2.48.52S314.13,250.7,314.13,250.7Z" style="opacity:0.2"></path><path d="M318.24,250.54a1.78,1.78,0,0,0,2.26,2s-1.12,1.7-2.49.52S318.24,250.54,318.24,250.54Z" style="opacity:0.2"></path><path d="M308.83,242.08a1.78,1.78,0,0,0,2.26,2s-1.12,1.7-2.49.52S308.83,242.08,308.83,242.08Z" style="opacity:0.2"></path><path d="M307.32,249.4a1.78,1.78,0,0,0,2.26,2s-1.12,1.7-2.49.52S307.32,249.4,307.32,249.4Z" style="opacity:0.2"></path><path d="M310.87,252.27a1.78,1.78,0,0,0,2.25,2s-1.11,1.69-2.48.51S310.87,252.27,310.87,252.27Z" style="opacity:0.2"></path><path d="M316.15,240.79a1.79,1.79,0,0,0,2.26,2s-1.12,1.69-2.48.51S316.15,240.79,316.15,240.79Z" style="opacity:0.2"></path><path d="M319.15,243.33a1.78,1.78,0,0,0,2.26,2s-1.12,1.69-2.48.52S319.15,243.33,319.15,243.33Z" style="opacity:0.2"></path><path d="M315.16,247.78a1.78,1.78,0,0,0,2.26,2s-1.12,1.7-2.49.52S315.16,247.78,315.16,247.78Z" style="opacity:0.2"></path><path d="M289.66,243.47a1.78,1.78,0,0,0,1.06,2.8s-1.79,1-2.44-.72S289.66,243.47,289.66,243.47Z" style="opacity:0.2"></path><path d="M291,246.87a1.79,1.79,0,0,0,1.06,2.81s-1.79,1-2.44-.72S291,246.87,291,246.87Z" style="opacity:0.2"></path><path d="M292.58,250.73a1.78,1.78,0,0,0,1.05,2.81s-1.78,1-2.43-.72S292.58,250.73,292.58,250.73Z" style="opacity:0.2"></path><path d="M288,246a1.78,1.78,0,0,0,1,2.81s-1.78,1-2.43-.72S288,246,288,246Z" style="opacity:0.2"></path><path d="M285.38,248.6a1.78,1.78,0,0,0,1.06,2.81s-1.79,1-2.44-.72S285.38,248.6,285.38,248.6Z" style="opacity:0.2"></path><path d="M284.11,245a1.78,1.78,0,0,0,1.05,2.81s-1.78,1-2.43-.72S284.11,245,284.11,245Z" style="opacity:0.2"></path><path d="M286.81,252a1.79,1.79,0,0,0,1.06,2.81s-1.79,1-2.44-.72S286.81,252,286.81,252Z" style="opacity:0.2"></path><path d="M290.5,253.79a1.78,1.78,0,0,0,1.06,2.8s-1.79,1-2.44-.72S290.5,253.79,290.5,253.79Z" style="opacity:0.2"></path><path d="M286.21,241.89a1.78,1.78,0,0,0,1.06,2.8s-1.79,1-2.44-.72S286.21,241.89,286.21,241.89Z" style="opacity:0.2"></path><path d="M281.42,247.62a1.79,1.79,0,0,0,1.06,2.81s-1.79,1-2.44-.72S281.42,247.62,281.42,247.62Z" style="opacity:0.2"></path><path d="M283.19,251.83a1.78,1.78,0,0,0,1.05,2.81s-1.78,1-2.43-.72S283.19,251.83,283.19,251.83Z" style="opacity:0.2"></path><path d="M293.27,244.22a1.78,1.78,0,0,0,1.06,2.8s-1.79,1-2.43-.72S293.27,244.22,293.27,244.22Z" style="opacity:0.2"></path><path d="M294.72,247.87a1.78,1.78,0,0,0,1.06,2.8s-1.79,1-2.44-.72S294.72,247.87,294.72,247.87Z" style="opacity:0.2"></path><path d="M289.09,249.9a1.79,1.79,0,0,0,1.06,2.81s-1.79,1-2.44-.72S289.09,249.9,289.09,249.9Z" style="opacity:0.2"></path><path d="M239.73,242.65a1.78,1.78,0,0,0-1.19,2.75s-2-.55-1.25-2.21S239.73,242.65,239.73,242.65Z" style="opacity:0.2"></path><path d="M238.36,246.06a1.78,1.78,0,0,0-1.19,2.75s-1.95-.54-1.25-2.21S238.36,246.06,238.36,246.06Z" style="opacity:0.2"></path><path d="M236.78,249.9a1.78,1.78,0,0,0-1.18,2.76s-2-.55-1.26-2.21S236.78,249.9,236.78,249.9Z" style="opacity:0.2"></path><path d="M236.78,243.28A1.77,1.77,0,0,0,235.6,246s-2-.55-1.26-2.21S236.78,243.28,236.78,243.28Z" style="opacity:0.2"></path><path d="M233.08,243.37a1.79,1.79,0,0,0-1.19,2.76s-1.95-.55-1.25-2.21S233.08,243.37,233.08,243.37Z" style="opacity:0.2"></path><path d="M234.68,239.88a1.79,1.79,0,0,0-1.19,2.76s-2-.55-1.25-2.21S234.68,239.88,234.68,239.88Z" style="opacity:0.2"></path><path d="M231.76,246.8a1.79,1.79,0,0,0-1.19,2.76s-1.95-.55-1.25-2.21S231.76,246.8,231.76,246.8Z" style="opacity:0.2"></path><path d="M233.17,250.66a1.79,1.79,0,0,0-1.19,2.76s-1.95-.55-1.25-2.21S233.17,250.66,233.17,250.66Z" style="opacity:0.2"></path><path d="M238.34,239.11a1.79,1.79,0,0,0-1.19,2.76s-2-.55-1.25-2.21S238.34,239.11,238.34,239.11Z" style="opacity:0.2"></path><path d="M230.91,239.92a1.77,1.77,0,0,0-1.18,2.75s-2-.54-1.26-2.2S230.91,239.92,230.91,239.92Z" style="opacity:0.2"></path><path d="M229.26,244.17a1.79,1.79,0,0,0-1.19,2.76s-1.95-.55-1.25-2.21S229.26,244.17,229.26,244.17Z" style="opacity:0.2"></path><path d="M241.81,245.69a1.79,1.79,0,0,0-1.19,2.76s-2-.55-1.25-2.21S241.81,245.69,241.81,245.69Z" style="opacity:0.2"></path><path d="M240.32,249.32a1.78,1.78,0,0,0-1.19,2.76s-2-.55-1.26-2.21S240.32,249.32,240.32,249.32Z" style="opacity:0.2"></path><path d="M234.85,246.88a1.78,1.78,0,0,0-1.18,2.76s-2-.55-1.26-2.21S234.85,246.88,234.85,246.88Z" style="opacity:0.2"></path><path d="M208.16,241.86a1.78,1.78,0,0,0-1.19,2.76s-2-.55-1.26-2.21S208.16,241.86,208.16,241.86Z" style="opacity:0.2"></path><path d="M206.79,245.27A1.78,1.78,0,0,0,205.6,248s-2-.55-1.26-2.21S206.79,245.27,206.79,245.27Z" style="opacity:0.2"></path><path d="M205.21,249.12a1.78,1.78,0,0,0-1.19,2.75s-2-.54-1.25-2.21S205.21,249.12,205.21,249.12Z" style="opacity:0.2"></path><path d="M205.21,242.49a1.79,1.79,0,0,0-1.19,2.76s-2-.55-1.25-2.21S205.21,242.49,205.21,242.49Z" style="opacity:0.2"></path><path d="M201.51,242.59a1.77,1.77,0,0,0-1.19,2.75s-2-.54-1.26-2.21S201.51,242.59,201.51,242.59Z" style="opacity:0.2"></path><path d="M203.11,239.1a1.77,1.77,0,0,0-1.19,2.75s-2-.54-1.26-2.21S203.11,239.1,203.11,239.1Z" style="opacity:0.2"></path><path d="M200.19,246a1.77,1.77,0,0,0-1.19,2.75s-2-.54-1.26-2.2S200.19,246,200.19,246Z" style="opacity:0.2"></path><path d="M201.6,249.88a1.78,1.78,0,0,0-1.19,2.75s-2-.55-1.25-2.21S201.6,249.88,201.6,249.88Z" style="opacity:0.2"></path><path d="M206.77,238.33a1.78,1.78,0,0,0-1.19,2.75s-2-.54-1.25-2.2S206.77,238.33,206.77,238.33Z" style="opacity:0.2"></path><path d="M199.34,239.14a1.78,1.78,0,0,0-1.19,2.75s-2-.55-1.25-2.21S199.34,239.14,199.34,239.14Z" style="opacity:0.2"></path><path d="M197.69,243.39a1.78,1.78,0,0,0-1.19,2.75s-1.95-.54-1.25-2.2S197.69,243.39,197.69,243.39Z" style="opacity:0.2"></path><path d="M210.24,244.91a1.77,1.77,0,0,0-1.19,2.75s-2-.54-1.26-2.21S210.24,244.91,210.24,244.91Z" style="opacity:0.2"></path><path d="M208.74,248.54a1.78,1.78,0,0,0-1.19,2.75s-2-.54-1.25-2.2S208.74,248.54,208.74,248.54Z" style="opacity:0.2"></path><path d="M203.28,246.1a1.78,1.78,0,0,0-1.19,2.75s-2-.54-1.25-2.2S203.28,246.1,203.28,246.1Z" style="opacity:0.2"></path><path d="M180.16,222.81a1.78,1.78,0,0,0-.69,2.92s-2-.2-1.62-2S180.16,222.81,180.16,222.81Z" style="opacity:0.2"></path><path d="M179.4,226.41a1.79,1.79,0,0,0-.69,2.92s-2-.2-1.61-2S179.4,226.41,179.4,226.41Z" style="opacity:0.2"></path><path d="M178.52,230.47a1.78,1.78,0,0,0-.69,2.92s-2-.2-1.62-2S178.52,230.47,178.52,230.47Z" style="opacity:0.2"></path><path d="M177.37,223.94a1.78,1.78,0,0,0-.69,2.92s-2-.2-1.62-2S177.37,223.94,177.37,223.94Z" style="opacity:0.2"></path><path d="M173.74,224.68a1.78,1.78,0,0,0-.69,2.92s-2-.2-1.62-2S173.74,224.68,173.74,224.68Z" style="opacity:0.2"></path><path d="M174.71,221a1.78,1.78,0,0,0-.69,2.92s-2-.2-1.62-2S174.71,221,174.71,221Z" style="opacity:0.2"></path><path d="M173,228.29a1.79,1.79,0,0,0-.69,2.92s-2-.2-1.61-2S173,228.29,173,228.29Z" style="opacity:0.2"></path><path d="M175.09,231.85a1.78,1.78,0,0,0-.69,2.91s-2-.19-1.62-1.95S175.09,231.85,175.09,231.85Z" style="opacity:0.2"></path><path d="M178.18,219.58a1.77,1.77,0,0,0-.69,2.91s-2-.19-1.62-2S178.18,219.58,178.18,219.58Z" style="opacity:0.2"></path><path d="M171,221.66a1.78,1.78,0,0,0-.69,2.92s-2-.2-1.62-2S171,221.66,171,221.66Z" style="opacity:0.2"></path><path d="M170.12,226.14a1.77,1.77,0,0,0-.69,2.91s-2-.19-1.62-2S170.12,226.14,170.12,226.14Z" style="opacity:0.2"></path><path d="M182.74,225.45a1.78,1.78,0,0,0-.69,2.92s-2-.2-1.62-2S182.74,225.45,182.74,225.45Z" style="opacity:0.2"></path><path d="M181.9,229.29a1.78,1.78,0,0,0-.69,2.92s-2-.2-1.62-2S181.9,229.29,181.9,229.29Z" style="opacity:0.2"></path><path d="M176.1,227.83a1.78,1.78,0,0,0-.7,2.92s-2-.2-1.61-2S176.1,227.83,176.1,227.83Z" style="opacity:0.2"></path><path d="M116.65,249a1.78,1.78,0,0,0,1.68,2.48s-1.51,1.36-2.53-.13S116.65,249,116.65,249Z" style="opacity:0.2"></path><path d="M118.79,252a1.78,1.78,0,0,0,1.68,2.48s-1.51,1.35-2.53-.13S118.79,252,118.79,252Z" style="opacity:0.2"></path><path d="M121.18,255.37a1.79,1.79,0,0,0,1.69,2.49s-1.52,1.35-2.54-.13S121.18,255.37,121.18,255.37Z" style="opacity:0.2"></path><path d="M115.6,251.81a1.78,1.78,0,0,0,1.68,2.48s-1.51,1.36-2.53-.13S115.6,251.81,115.6,251.81Z" style="opacity:0.2"></path><path d="M113.69,255a1.79,1.79,0,0,0,1.68,2.49s-1.51,1.35-2.54-.13S113.69,255,113.69,255Z" style="opacity:0.2"></path><path d="M112.92,254.51a1.87,1.87,0,0,0,.37-.27,1.41,1.41,0,0,1-.25,0C113,254.31,113,254.41,112.92,254.51Z" style="opacity:0.2"></path><path d="M115.87,257.94a1.79,1.79,0,0,0,1.68,2.49s-1.51,1.35-2.53-.14S115.87,257.94,115.87,257.94Z" style="opacity:0.2"></path><path d="M119.88,258.83a1.78,1.78,0,0,0,1.68,2.48s-1.51,1.36-2.53-.13S119.88,258.83,119.88,258.83Z" style="opacity:0.2"></path><path d="M112.31,258.63a1.79,1.79,0,0,0,1.68,2.49s-1.51,1.35-2.53-.14S112.31,258.63,112.31,258.63Z" style="opacity:0.2"></path><path d="M120.34,248.87a1.79,1.79,0,0,0,1.68,2.49s-1.51,1.35-2.53-.14S120.34,248.87,120.34,248.87Z" style="opacity:0.2"></path><path d="M122.6,252.08a1.79,1.79,0,0,0,1.68,2.49s-1.51,1.35-2.54-.13S122.6,252.08,122.6,252.08Z" style="opacity:0.2"></path><path d="M117.6,255.38a1.78,1.78,0,0,0,1.69,2.48s-1.52,1.35-2.54-.13S117.6,255.38,117.6,255.38Z" style="opacity:0.2"></path><path d="M150.25,238.75a1.78,1.78,0,0,0,.39,3s-2,.54-2.21-1.25S150.25,238.75,150.25,238.75Z" style="opacity:0.2"></path><path d="M150.82,242.38a1.78,1.78,0,0,0,.4,3s-2,.54-2.21-1.25S150.82,242.38,150.82,242.38Z" style="opacity:0.2"></path><path d="M151.45,246.49a1.78,1.78,0,0,0,.39,3s-2,.54-2.21-1.25S151.45,246.49,151.45,246.49Z" style="opacity:0.2"></path><path d="M148,240.8a1.78,1.78,0,0,0,.4,3s-2,.54-2.21-1.25S148,240.8,148,240.8Z" style="opacity:0.2"></path><path d="M144.91,242.79a1.78,1.78,0,0,0,.4,3s-2,.53-2.21-1.25S144.91,242.79,144.91,242.79Z" style="opacity:0.2"></path><path d="M144.5,239a1.78,1.78,0,0,0,.39,3s-2,.54-2.21-1.25S144.5,239,144.5,239Z" style="opacity:0.2"></path><path d="M145.54,246.41a1.78,1.78,0,0,0,.4,3s-2,.54-2.21-1.25S145.54,246.41,145.54,246.41Z" style="opacity:0.2"></path><path d="M148.73,249a1.79,1.79,0,0,0,.4,3s-2,.53-2.21-1.25S148.73,249,148.73,249Z" style="opacity:0.2"></path><path d="M147.24,236.43a1.78,1.78,0,0,0,.4,3s-2,.54-2.21-1.25S147.24,236.43,147.24,236.43Z" style="opacity:0.2"></path><path d="M141.28,240.93a1.79,1.79,0,0,0,.4,3s-2,.53-2.21-1.25S141.28,240.93,141.28,240.93Z" style="opacity:0.2"></path><path d="M142.05,245.43a1.79,1.79,0,0,0,.4,3s-2,.53-2.21-1.25S142.05,245.43,142.05,245.43Z" style="opacity:0.2"></path><path d="M153.6,240.3a1.78,1.78,0,0,0,.39,3s-2,.53-2.21-1.25S153.6,240.3,153.6,240.3Z" style="opacity:0.2"></path><path d="M154.18,244.18a1.78,1.78,0,0,0,.39,3s-1.95.54-2.2-1.25S154.18,244.18,154.18,244.18Z" style="opacity:0.2"></path><path d="M148.24,244.89a1.78,1.78,0,0,0,.4,3s-2,.54-2.21-1.25S148.24,244.89,148.24,244.89Z" style="opacity:0.2"></path><path d="M243.83,277.24a1.51,1.51,0,0,0,2,1.52s-.84,1.51-2.07.6S243.83,277.24,243.83,277.24Z" style="opacity:0.2"></path><path d="M246.37,279a1.51,1.51,0,0,0,2,1.53s-.84,1.51-2.07.6S246.37,279,246.37,279Z" style="opacity:0.2"></path><path d="M249.23,281.11a1.51,1.51,0,0,0,2,1.53s-.84,1.5-2.07.59S249.23,281.11,249.23,281.11Z" style="opacity:0.2"></path><path d="M243.76,279.79a1.52,1.52,0,0,0,2,1.53s-.84,1.5-2.07.59S243.76,279.79,243.76,279.79Z" style="opacity:0.2"></path><path d="M243.1,282.86a1.52,1.52,0,0,0,2,1.53s-.84,1.51-2.07.6S243.1,282.86,243.1,282.86Z" style="opacity:0.2"></path><path d="M240.54,280.85a1.52,1.52,0,0,0,2,1.53s-.84,1.5-2.07.59S240.54,280.85,240.54,280.85Z" style="opacity:0.2"></path><path d="M245.67,284.64a1.51,1.51,0,0,0,2,1.52s-.84,1.51-2.07.6S245.67,284.64,245.67,284.64Z" style="opacity:0.2"></path><path d="M249.13,284.24a1.52,1.52,0,0,0,2,1.53s-.84,1.5-2.07.59S249.13,284.24,249.13,284.24Z" style="opacity:0.2"></path><path d="M240.64,277.68a1.5,1.5,0,0,0,2,1.52s-.84,1.51-2.07.6S240.64,277.68,240.64,277.68Z" style="opacity:0.2"></path><path d="M239.83,284a1.51,1.51,0,0,0,2,1.53s-.84,1.5-2.07.59S239.83,284,239.83,284Z" style="opacity:0.2"></path><path d="M243,286.17a1.51,1.51,0,0,0,2,1.53s-.84,1.5-2.07.59S243,286.17,243,286.17Z" style="opacity:0.2"></path><path d="M246.76,276.13a1.51,1.51,0,0,0,2,1.52s-.84,1.51-2.07.6S246.76,276.13,246.76,276.13Z" style="opacity:0.2"></path><path d="M249.45,278.08a1.52,1.52,0,0,0,2,1.53s-.84,1.5-2.07.59S249.45,278.08,249.45,278.08Z" style="opacity:0.2"></path><path d="M246.35,282.1a1.52,1.52,0,0,0,2,1.53s-.84,1.5-2.07.59S246.35,282.1,246.35,282.1Z" style="opacity:0.2"></path><path d="M312.59,281.93a1.51,1.51,0,0,0,2-1.52s1.2,1.24,0,2.16S312.59,281.93,312.59,281.93Z" style="opacity:0.2"></path><path d="M315.05,280a1.51,1.51,0,0,0,2-1.52s1.2,1.24,0,2.16S315.05,280,315.05,280Z" style="opacity:0.2"></path><path d="M317.84,277.86a1.51,1.51,0,0,0,2.05-1.51s1.2,1.23,0,2.15S317.84,277.86,317.84,277.86Z" style="opacity:0.2"></path><path d="M315,282.72a1.51,1.51,0,0,0,2.05-1.51s1.2,1.23,0,2.15S315,282.72,315,282.72Z" style="opacity:0.2"></path><path d="M317.77,284.23a1.52,1.52,0,0,0,2.05-1.52s1.2,1.24,0,2.16S317.77,284.23,317.77,284.23Z" style="opacity:0.2"></path><path d="M315.11,286.11a1.52,1.52,0,0,0,2.05-1.52s1.2,1.24,0,2.16S315.11,286.11,315.11,286.11Z" style="opacity:0.2"></path><path d="M320.2,282.27a1.51,1.51,0,0,0,2.05-1.51s1.2,1.24,0,2.16S320.2,282.27,320.2,282.27Z" style="opacity:0.2"></path><path d="M320.81,278.84a1.51,1.51,0,0,0,2.05-1.51s1.2,1.24,0,2.15S320.81,278.84,320.81,278.84Z" style="opacity:0.2"></path><path d="M312.1,285.11a1.51,1.51,0,0,0,2-1.52s1.21,1.24,0,2.16S312.1,285.11,312.1,285.11Z" style="opacity:0.2"></path><path d="M317.89,287.68a1.5,1.5,0,0,0,2-1.51s1.21,1.24,0,2.16S317.89,287.68,317.89,287.68Z" style="opacity:0.2"></path><path d="M320.91,285.27a1.51,1.51,0,0,0,2-1.52s1.2,1.24,0,2.16S320.91,285.27,320.91,285.27Z" style="opacity:0.2"></path><path d="M312.36,278.8a1.51,1.51,0,0,0,2.05-1.51s1.2,1.24,0,2.15S312.36,278.8,312.36,278.8Z" style="opacity:0.2"></path><path d="M315,276.78a1.52,1.52,0,0,0,2.05-1.52s1.2,1.24,0,2.16S315,276.78,315,276.78Z" style="opacity:0.2"></path><path d="M318,280.9a1.51,1.51,0,0,0,2-1.52s1.21,1.24,0,2.16S318,280.9,318,280.9Z" style="opacity:0.2"></path><path d="M327.65,216.62a2.08,2.08,0,0,0,.74-.73,1.74,1.74,0,0,1-.55.07C327.78,216.18,327.73,216.4,327.65,216.62Z" style="opacity:0.2"></path><path d="M328.89,216.17a1.52,1.52,0,0,0,2,1.53s-.84,1.5-2.07.59S328.89,216.17,328.89,216.17Z" style="opacity:0.2"></path><path d="M331.75,218.24a1.51,1.51,0,0,0,2,1.52s-.84,1.51-2.07.6S331.75,218.24,331.75,218.24Z" style="opacity:0.2"></path><path d="M326.72,219.29c1,.28,1.6-.84,1.6-.84a1.85,1.85,0,0,1-1.23-.07C327,218.69,326.85,219,326.72,219.29Z" style="opacity:0.2"></path><path d="M325.46,222a.53.53,0,0,0,.14.11c1.23.92,2.07-.59,2.07-.59A1.58,1.58,0,0,1,326,221C325.81,221.36,325.64,221.68,325.46,222Z" style="opacity:0.2"></path><path d="M328.2,221.76a1.51,1.51,0,0,0,2,1.53s-.84,1.51-2.07.6S328.2,221.76,328.2,221.76Z" style="opacity:0.2"></path><path d="M331.66,221.37a1.51,1.51,0,0,0,2,1.53s-.84,1.5-2.07.59S331.66,221.37,331.66,221.37Z" style="opacity:0.2"></path><path d="M325.53,223.3a1.52,1.52,0,0,0,2,1.53s-.84,1.5-2.07.59S325.53,223.3,325.53,223.3Z" style="opacity:0.2"></path><path d="M329.28,213.25a1.52,1.52,0,0,0,2,1.53s-.84,1.51-2.08.6S329.28,213.25,329.28,213.25Z" style="opacity:0.2"></path><path d="M332,215.21a1.51,1.51,0,0,0,2,1.53s-.84,1.5-2.07.59S332,215.21,332,215.21Z" style="opacity:0.2"></path><path d="M328.88,219.23a1.5,1.5,0,0,0,2,1.52s-.84,1.51-2.07.6S328.88,219.23,328.88,219.23Z" style="opacity:0.2"></path><path d="M357.32,197a1.51,1.51,0,0,0,2.33-1s.89,1.47-.51,2.09S357.32,197,357.32,197Z" style="opacity:0.2"></path><path d="M360.9,196.76c0-.3-.13-.61-.19-.91a2.65,2.65,0,0,1-.56-.19A2,2,0,0,0,360.9,196.76Z" style="opacity:0.2"></path><path d="M361.33,199.38a.07.07,0,0,0,.06,0c-.05-.36-.11-.71-.18-1.06a1.56,1.56,0,0,1-1.71,0S359.93,200,361.33,199.38Z" style="opacity:0.2"></path><path d="M358.83,201.62a1.52,1.52,0,0,0,2.34-1s.89,1.47-.52,2.09S358.83,201.62,358.83,201.62Z" style="opacity:0.2"></path><path d="M362,204.91c0-.3,0-.6-.07-.89a2.72,2.72,0,0,1-.75-.23A1.84,1.84,0,0,0,362,204.91Z" style="opacity:0.2"></path><path d="M359.63,195a1.28,1.28,0,0,0,.69-.61c-.11-.37-.21-.73-.32-1.09-.24.51-.84,1.26-2.19.62C357.81,193.88,358.23,195.59,359.63,195Z" style="opacity:0.2"></path><path d="M249.4,300.34a1.29,1.29,0,0,0,1.44-1.62s1.21.81.36,1.79S249.4,300.34,249.4,300.34Z" style="opacity:0.2"></path><path d="M251.11,298.31a1.29,1.29,0,0,0,1.43-1.62s1.22.81.36,1.79S251.11,298.31,251.11,298.31Z" style="opacity:0.2"></path><path d="M253.05,296a1.29,1.29,0,0,0,1.43-1.62s1.22.81.36,1.79S253.05,296,253.05,296Z" style="opacity:0.2"></path><path d="M251.56,300.56a1.28,1.28,0,0,0,1.43-1.62s1.22.82.37,1.8S251.56,300.56,251.56,300.56Z" style="opacity:0.2"></path><path d="M254.12,301.33a1.28,1.28,0,0,0,1.43-1.62s1.22.81.37,1.79S254.12,301.33,254.12,301.33Z" style="opacity:0.2"></path><path d="M252.24,303.36a1.28,1.28,0,0,0,1.43-1.62s1.22.81.37,1.79S252.24,303.36,252.24,303.36Z" style="opacity:0.2"></path><path d="M255.79,299.27a1.28,1.28,0,0,0,1.44-1.61s1.21.81.36,1.79S255.79,299.27,255.79,299.27Z" style="opacity:0.2"></path><path d="M255.69,296.32a1.28,1.28,0,0,0,1.43-1.62s1.22.81.37,1.79S255.69,296.32,255.69,296.32Z" style="opacity:0.2"></path><path d="M249.56,303.07a1.28,1.28,0,0,0,1.43-1.62s1.22.81.37,1.79S249.56,303.07,249.56,303.07Z" style="opacity:0.2"></path><path d="M254.83,304.18a1.28,1.28,0,0,0,1.43-1.62s1.22.81.36,1.79S254.83,304.18,254.83,304.18Z" style="opacity:0.2"></path><path d="M256.92,301.64a1.29,1.29,0,0,0,1.43-1.62s1.21.81.36,1.79S256.92,301.64,256.92,301.64Z" style="opacity:0.2"></path><path d="M248.66,297.78a1.28,1.28,0,0,0,1.43-1.62s1.22.82.37,1.8S248.66,297.78,248.66,297.78Z" style="opacity:0.2"></path><path d="M250.5,295.63a1.28,1.28,0,0,0,1.43-1.62s1.22.81.36,1.79S250.5,295.63,250.5,295.63Z" style="opacity:0.2"></path><path d="M253.69,298.53a1.28,1.28,0,0,0,1.43-1.62s1.22.81.37,1.79S253.69,298.53,253.69,298.53Z" style="opacity:0.2"></path><path d="M333.2,300a1.28,1.28,0,0,0,1.43-1.62s1.22.82.37,1.8S333.2,300,333.2,300Z" style="opacity:0.2"></path><path d="M334.91,297.94a1.28,1.28,0,0,0,1.43-1.62s1.21.82.36,1.8S334.91,297.94,334.91,297.94Z" style="opacity:0.2"></path><path d="M336.85,295.66a1.28,1.28,0,0,0,1.43-1.62s1.21.82.36,1.8S336.85,295.66,336.85,295.66Z" style="opacity:0.2"></path><path d="M335.36,300.2a1.28,1.28,0,0,0,1.43-1.62s1.22.82.36,1.8S335.36,300.2,335.36,300.2Z" style="opacity:0.2"></path><path d="M337.92,301a1.29,1.29,0,0,0,1.43-1.62s1.22.81.36,1.79S337.92,301,337.92,301Z" style="opacity:0.2"></path><path d="M336,303a1.28,1.28,0,0,0,1.43-1.62s1.22.81.37,1.79S336,303,336,303Z" style="opacity:0.2"></path><path d="M339.59,298.91a1.28,1.28,0,0,0,1.43-1.62s1.22.82.37,1.8S339.59,298.91,339.59,298.91Z" style="opacity:0.2"></path><path d="M339.49,296a1.27,1.27,0,0,0,1.43-1.61s1.22.81.37,1.79S339.49,296,339.49,296Z" style="opacity:0.2"></path><path d="M333.36,302.7a1.28,1.28,0,0,0,1.43-1.62s1.22.82.37,1.8S333.36,302.7,333.36,302.7Z" style="opacity:0.2"></path><path d="M338.63,303.82a1.29,1.29,0,0,0,1.43-1.62s1.22.81.36,1.79S338.63,303.82,338.63,303.82Z" style="opacity:0.2"></path><path d="M340.71,301.27a1.28,1.28,0,0,0,1.43-1.62s1.22.82.37,1.8S340.71,301.27,340.71,301.27Z" style="opacity:0.2"></path><path d="M332.46,297.42a1.28,1.28,0,0,0,1.43-1.62s1.22.81.37,1.79S332.46,297.42,332.46,297.42Z" style="opacity:0.2"></path><path d="M334.3,295.27a1.28,1.28,0,0,0,1.43-1.62s1.22.81.36,1.79S334.3,295.27,334.3,295.27Z" style="opacity:0.2"></path><path d="M337.49,298.16a1.28,1.28,0,0,0,1.43-1.62s1.22.82.36,1.8S337.49,298.16,337.49,298.16Z" style="opacity:0.2"></path><path d="M334,178.43a1.28,1.28,0,0,0,.39-2.12s1.46.07,1.23,1.35S334,178.43,334,178.43Z" style="opacity:0.2"></path><path d="M334.4,175.82a1.29,1.29,0,0,0,.4-2.13s1.46.07,1.23,1.35S334.4,175.82,334.4,175.82Z" style="opacity:0.2"></path><path d="M334.9,172.86a1.28,1.28,0,0,0,.39-2.12s1.46.07,1.23,1.35S334.9,172.86,334.9,172.86Z" style="opacity:0.2"></path><path d="M336,177.52a1.29,1.29,0,0,0,.4-2.13s1.46.08,1.23,1.36S336,177.52,336,177.52Z" style="opacity:0.2"></path><path d="M338.54,176.86a1.29,1.29,0,0,0,.4-2.13s1.46.08,1.23,1.36S338.54,176.86,338.54,176.86Z" style="opacity:0.2"></path><path d="M338,179.57a1.29,1.29,0,0,0,.39-2.13s1.46.07,1.23,1.35S338,179.57,338,179.57Z" style="opacity:0.2"></path><path d="M338.92,174.24a1.29,1.29,0,0,0,.4-2.13s1.46.08,1.23,1.36S338.92,174.24,338.92,174.24Z" style="opacity:0.2"></path><path d="M335.52,180.69a1.28,1.28,0,0,0,.4-2.12s1.46.07,1.23,1.35S335.52,180.69,335.52,180.69Z" style="opacity:0.2"></path><path d="M340.62,178.94a1.28,1.28,0,0,0,.39-2.12s1.46.07,1.23,1.35S340.62,178.94,340.62,178.94Z" style="opacity:0.2"></path><path d="M341.1,175.69a1.29,1.29,0,0,0,.39-2.13s1.46.07,1.23,1.35S341.1,175.69,341.1,175.69Z" style="opacity:0.2"></path><path d="M332,176.62a1.28,1.28,0,0,0,.39-2.12s1.46.07,1.24,1.35S332,176.62,332,176.62Z" style="opacity:0.2"></path><path d="M332.51,173.83a1.28,1.28,0,0,0,.39-2.12s1.46.07,1.24,1.35S332.51,173.83,332.51,173.83Z" style="opacity:0.2"></path><path d="M336.73,174.68a1.29,1.29,0,0,0,.4-2.13s1.46.07,1.23,1.35S336.73,174.68,336.73,174.68Z" style="opacity:0.2"></path></g><g id="freepik--Smoke--inject-21"><path d="M382.88,177.44a7.26,7.26,0,0,0-7.26-7.25,7.35,7.35,0,0,0-2.36.4,6.41,6.41,0,0,0-9.55,8.26,7.19,7.19,0,0,0-3.43,11.47c-12.6,9.74-36.25,23.21-73.95,27.12,0,0,50.32-1.73,81.59-24.82a7.16,7.16,0,0,0,1.57-.7,8.87,8.87,0,0,0,13-12.06A7.45,7.45,0,0,0,382.88,177.44Z" style="fill:#263238"></path><path d="M396.19,163.81a4.76,4.76,0,0,0,2.74-8.66,5.18,5.18,0,0,0,.37-1.9,5.09,5.09,0,0,0-9.74-2.06,6.13,6.13,0,0,0,.85,12.21,6.21,6.21,0,0,0,2.79-.67A4.75,4.75,0,0,0,396.19,163.81Z" style="fill:#263238"></path><path d="M241.63,204.52a3.23,3.23,0,0,0-3.43-3,3.19,3.19,0,0,0-2.25,1.12,3.22,3.22,0,0,0-3.66,5.29,1.07,1.07,0,0,0,0,.25,3.22,3.22,0,0,0,4.74,2.65,3.19,3.19,0,0,0,1.71.38,3.23,3.23,0,0,0,3-3.43,3.15,3.15,0,0,0-.5-1.52A3.23,3.23,0,0,0,241.63,204.52Z" style="fill:#263238"></path><path d="M406.55,187.13a3.23,3.23,0,0,0-5.68-1.91,3.18,3.18,0,0,0-1.88-.46,3.23,3.23,0,0,0-1.79,5.76c0,.08,0,.16,0,.24a3.22,3.22,0,0,0,4.75,2.65,3.16,3.16,0,0,0,1.7.38,3.23,3.23,0,0,0,3-3.43,3.1,3.1,0,0,0-.51-1.52A3.2,3.2,0,0,0,406.55,187.13Z" style="fill:#263238"></path><path d="M251.1,194a4.74,4.74,0,0,0,1.75-8.74,5.07,5.07,0,0,0-5.14-6.69,5,5,0,0,0-1.94.52,4.63,4.63,0,0,0-1.58-.19,4.76,4.76,0,0,0-4.46,5.05s0,0,0,.05a6.13,6.13,0,0,0,5.12,10l.23,0c3.45,19,21.38,23.42,21.38,23.42C255.57,213.27,252.14,202,251.1,194Z" style="fill:#263238"></path><g style="opacity:0.8"><path d="M382.88,177.44a7.26,7.26,0,0,0-7.26-7.25,7.35,7.35,0,0,0-2.36.4,6.41,6.41,0,0,0-9.55,8.26,7.19,7.19,0,0,0-3.43,11.47c-12.6,9.74-36.25,23.21-73.95,27.12,0,0,50.32-1.73,81.59-24.82a7.16,7.16,0,0,0,1.57-.7,8.87,8.87,0,0,0,13-12.06A7.45,7.45,0,0,0,382.88,177.44Z" style="fill:#fff"></path><path d="M396.19,163.81a4.76,4.76,0,0,0,2.74-8.66,5.18,5.18,0,0,0,.37-1.9,5.09,5.09,0,0,0-9.74-2.06,6.13,6.13,0,0,0,.85,12.21,6.21,6.21,0,0,0,2.79-.67A4.75,4.75,0,0,0,396.19,163.81Z" style="fill:#fff"></path><path d="M241.63,204.52a3.23,3.23,0,0,0-3.43-3,3.19,3.19,0,0,0-2.25,1.12,3.22,3.22,0,0,0-3.66,5.29,1.07,1.07,0,0,0,0,.25,3.22,3.22,0,0,0,4.74,2.65,3.19,3.19,0,0,0,1.71.38,3.23,3.23,0,0,0,3-3.43,3.15,3.15,0,0,0-.5-1.52A3.23,3.23,0,0,0,241.63,204.52Z" style="fill:#fff"></path><path d="M406.55,187.13a3.23,3.23,0,0,0-5.68-1.91,3.18,3.18,0,0,0-1.88-.46,3.23,3.23,0,0,0-1.79,5.76c0,.08,0,.16,0,.24a3.22,3.22,0,0,0,4.75,2.65,3.16,3.16,0,0,0,1.7.38,3.23,3.23,0,0,0,3-3.43,3.1,3.1,0,0,0-.51-1.52A3.2,3.2,0,0,0,406.55,187.13Z" style="fill:#fff"></path><path d="M251.1,194a4.74,4.74,0,0,0,1.75-8.74,5.07,5.07,0,0,0-5.14-6.69,5,5,0,0,0-1.94.52,4.63,4.63,0,0,0-1.58-.19,4.76,4.76,0,0,0-4.46,5.05s0,0,0,.05a6.13,6.13,0,0,0,5.12,10l.23,0c3.45,19,21.38,23.42,21.38,23.42C255.57,213.27,252.14,202,251.1,194Z" style="fill:#fff"></path></g></g></svg>
