<svg xmlns="http://www.w3.org/2000/svg" viewBox="0 0 500 500"><g id="freepik--background-complete--inject-100"><path d="M147.44,131.8c1.92,17,2.75,88.34,1.75,123.75-.22,7.6-.15,15.44.11,23.31,0,.28,0,.57,0,.86.19,4.73.44,9.45.76,14.13l0,.66c.06.77.12,1.54.16,2.31,0,.24.05.47.06.7,0,.45.07.92.1,1.37.51,6.48,1.13,12.8,1.8,18.88.05.54.13,1.08.19,1.6,1.37,11.9,3,22.72,4.59,31.42.07.39.14.79.22,1.18.42,2.22.83,4.29,1.22,6.18.37,1.69.72,3.25,1.05,4.67H165A278.29,278.29,0,0,0,174,329.9c.1-.48.21-1,.31-1.47A375,375,0,0,0,181,282.11c0-.27,0-.55.07-.83.63-8,1-16.31,1-24.71v-1.16c0-.64,0-1.27,0-1.91q-.06-6-.35-12.44c0-.33,0-.67,0-1-1.14-24.57-4.58-53.82-8.85-80.57,0-.36-.1-.71-.17-1.08-.73-4.62-1.51-9.17-2.29-13.6l-.24-1.41c-6.29-35.29-13.55-63-17.78-63.91C143.86,77.62,145,110.08,147.44,131.8Z" style="fill:#dbdbdb"></path><path d="M163.6,288.43a1.56,1.56,0,0,0,.44.16c-.06,3.79-.13,7.59-.23,11.4-4.32-2.57-9.41-3.58-13.72-6.14-.21-.12-.41-.23-.61-.37s-.46.21-.25.35.6.46.9.68c4.26,3,9.24,4.72,13.53,7.71l.09,0c-.54,20.2-1.55,40.39-2.63,60.57h1.13c.59-8.52,1.19-17,1.73-25.54l.05,0c3.39-2.32,6.67-4.83,9.92-7.35l2.76-2.16c.36-.27,0-.86-.38-.61-.69.42-1.37.86-2.07,1.3-3.41,2.14-6.84,4.34-10.13,6.67q.45-7.41.86-14.81a60.31,60.31,0,0,1,6.43-5.25.2.2,0,0,0-.22-.33,43.34,43.34,0,0,0-6.13,3.78c.15-2.76.3-5.52.43-8.27q1-21.78.74-43.47c5.23-3.47,10.54-6.82,15.85-10.18l3.38-2.15a.33.33,0,0,0-.35-.56c-1,.51-2,1-3,1.55-5.38,2.72-10.75,5.52-15.89,8.66-.06-4.78-.18-9.55-.31-14.33l.15-.05c5.33-2.65,10.45-5.75,15.68-8.63.86-.46,1.72-.93,2.6-1.38a.32.32,0,0,0-.28-.58c-.79.32-1.57.64-2.36.94a131.88,131.88,0,0,0-15.85,7.39q-.78-24.31-2.93-48.61c-1-11.13-2-22.23-3-33.34,4.37-1.88,8.69-3.92,13-6l3.91-1.92c.32-.16.06-.7-.28-.57l-3.8,1.41c-4.36,1.65-8.69,3.34-13,5.18-.34-3.54-.65-7.1-1-10.66a.71.71,0,0,0,.3-.1,71.7,71.7,0,0,0,11.35-8c1.38-1.13,2.75-2.29,4.12-3.42.34-.29,0-.88-.38-.6-1.31.9-2.64,1.76-4,2.61-3.89,2.45-7.88,4.74-11.62,7.39q-1.2-12.65-2.46-25.28a25,25,0,0,0,2.83-2.14l3.92-3c.35-.27,0-.84-.38-.58-1.37.89-2.75,1.79-4.12,2.7-.78.49-1.62,1-2.39,1.51-1.23-12.29-2.48-24.58-3.82-36.85-.06-.52-.86-.5-.82,0,1.52,21.08,3.37,42.13,5.15,63.16,1.72,20.43,3.68,40.82,5.21,61.26-1.74-1-3.51-2-5.24-3-.37-.21-.64.35-.31.57,1.91,1.28,3.79,2.58,5.67,3.9.13,1.85.29,3.72.42,5.59-3.74-2.21-7.53-4.29-11.44-6.2a.38.38,0,0,0-.36.67,117.35,117.35,0,0,1,11.73,7.65,1.13,1.13,0,0,0,.22.11c.9,13.47,1.57,27,1.76,40.48.12,8.28.09,16.57,0,24.85-2.51-1.21-5-2.39-7.52-3.66-2.32-1.18-5.05-2.14-7.25-3.6-.29-.2-.58-.4-.86-.62a.24.24,0,1,0-.32.35,10.85,10.85,0,0,0,1.21,1.13,43.67,43.67,0,0,0,5.5,3.39C157.79,284.84,160.69,286.65,163.6,288.43Z" style="fill:#c7c7c7"></path><path d="M198.31,326.84c0,.64.05,1.27.07,1.89.5,13.41,1.71,25.62,3.38,34.09h9.64c3.28-10.88,7.92-27.89,12.88-44.88.12-.4.24-.82.35-1.22,1.06-3.59,2.12-7.16,3.19-10.68.06-.26.15-.53.23-.8,5.1-16.82,10.24-32.06,14.31-39.28,6.84-12.16,21.23-33.63,34.57-54.69l.77-1.22c16.79-26.56,31.65-52.18,27.4-57.45-4.68-5.76-17.39-1.27-31.57,8.87-.37.25-.74.52-1.11.8-2,1.48-4.09,3.09-6.16,4.8l-.86.7a165.39,165.39,0,0,0-19.5,19.35c-3.52,4.13-6.89,8.43-10.09,12.82-.23.32-.49.66-.7,1a262,262,0,0,0-20.51,33.47c-.25.47-.49.94-.72,1.39-5.1,10-8.72,18.92-10.44,25.13-.77,2.78-1.46,5.85-2.05,9.13-.06.34-.13.68-.18,1C198.44,287,197.69,308,198.31,326.84Z" style="fill:#ebebeb"></path><path d="M196,325.85c.77,1,1.58,1.94,2.42,2.88a76.06,76.06,0,0,0,9.48,8.9l0,0c-.77,8.38-1.39,16.77-1.72,25.17h1.89c.94-11.88,1.63-23.75,2.92-35.6a1.54,1.54,0,0,0,.4-.21c4.16-3.22,8.48-6.22,12.9-9.07l1.36-.89c.4-.25.05-.83-.39-.63-.2.1-.42.18-.62.3a81.68,81.68,0,0,0-13.37,7.92c.3-2.68.66-5.36,1-8q.07-.48.15-1c5.36-2.51,10.46-6.23,15.37-9.57.37-.25.72-.5,1.09-.73a.21.21,0,0,0-.22-.35c-.2.1-.42.18-.64.28-5,2.28-10.62,4.51-15.18,7.74a288.31,288.31,0,0,1,8.63-38.69c4.66-1.31,9.25-2.85,13.89-4.19.39-.1.22-.65-.17-.58-4.39.8-8.79,1.62-13.12,2.78A181.52,181.52,0,0,1,242,228.61c4.12-6.45,8.63-12.68,13.3-18.8a.87.87,0,0,0,.31.1c7.08.64,14.24,1.36,21.36,1.36,1,0,2.08,0,3.1-.05.45,0,.59-.72.12-.79-.82-.13-1.63-.27-2.45-.38-6.94-1-14-1.49-21-2.15,4.79-6.18,9.73-12.25,14.63-18.3a459.72,459.72,0,0,1,31.37-34.7.24.24,0,0,0-.34-.33,237.13,237.13,0,0,0-25.52,25.78,62,62,0,0,0-1.31-8.24c-.63-3.55-1.29-7.11-2-10.64-.12-.6-.25-1.22-.39-1.83s-1.09-.45-1,.14c.1.83.2,1.67.3,2.49.84,6.69,1.93,13.34,2.79,20-1.6,1.86-3.14,3.77-4.71,5.64-.59-6.9-2.42-14.19-4.24-20.87l-.35-1.29c-.14-.49-.81-.27-.74.2s.17,1.19.23,1.79c1,7.22,1.83,14.85,3.71,21.8v0c-1.51,1.82-3.05,3.62-4.54,5.44-6.94,8.48-13.94,17-20.29,26-3-6.94-5.8-14-8.48-21.07-.23-.63-.49-1.29-.72-1.92a.38.38,0,0,0-.74.2c.24.9.49,1.79.76,2.69A182.46,182.46,0,0,0,243,222.78c-2.36,3.44-4.64,6.92-6.75,10.51s-4.07,7.22-5.9,10.92c-2.13-3.38-4.19-6.82-6.18-10.29-.12-.21-.5-.06-.4.17a71.63,71.63,0,0,0,5.78,11.8c-1.28,2.65-2.5,5.31-3.64,8-3.65-6.56-7.17-13.33-11.34-19.54-.29-.46-.59-.89-.89-1.33a.5.5,0,0,0-.87.51c.33.73.67,1.47,1,2.21,3.3,6.92,7.4,13.59,11.19,20.27a201.77,201.77,0,0,0-6.82,19.69c-1,3.37-1.86,6.77-2.68,10.19-4.84-5.19-9.39-10.66-14.18-15.89-.3-.31-.58-.63-.87-.93s-.6-.66-.9-1-.61.09-.42.32c.4.54.82,1.08,1.24,1.61.25.34.5.66.77,1,4.46,5.71,9.18,11.21,13.55,17a1.89,1.89,0,0,0,.26.24,307,307,0,0,0-5.6,34.38c-.47,4.29-.92,8.6-1.34,12.9-3.4-2.75-6.62-5.68-9.77-8.71-.57-.54-1.14-1.07-1.69-1.63A.46.46,0,0,0,196,325.85Z" style="fill:#c7c7c7"></path><path d="M230.88,362.82l.52-1c.18-.35.37-.69.53-1,6.15-11.81,11.68-26.29,14.58-33.34.52-1.26,1.29-3,2.28-5,.19-.39.39-.77.59-1.19,3.68-7.54,9.68-19.07,15.45-30.87l.38-.79c1.14-2.34,2.28-4.69,3.37-7l.3-.65c8.08-17.18,14.3-33,10.64-35.83s-10.79,1.29-18.81,8.93l-.64.62c-8.92,8.65-18.79,21.59-25.92,34.44-.22.37-.42.74-.62,1.11a106.74,106.74,0,0,0-5.63,11.91A226.06,226.06,0,0,0,220.29,326c-.12.4-.24.81-.34,1.21-.68,2.49-1.32,5-1.89,7.37-.1.4-.18.79-.27,1.17a184.29,184.29,0,0,0-4.46,27.12Z" style="fill:#dbdbdb"></path><path d="M231.93,360.82c-1.86.64-3.72,1.29-5.54,2h3.15c.62-.31,1.24-.62,1.86-1l2-1.05a.24.24,0,0,0-.17-.44Z" style="fill:#c7c7c7"></path><path d="M216.57,333.93c.38.6.8,1.19,1.22,1.77,2.55,3.52,5.5,6.72,8.3,10.06a.72.72,0,0,0,.15.11c-.61,1.71-1.19,3.42-1.78,5.13-1.76-1.62-3.37-3.45-5.13-5.06-.21-.2-.52.12-.35.34,1.53,2.18,3.35,4,5,6.05-1.19,3.48-2.38,7-3.5,10.49h2.4c4.25-11.8,8.39-23.65,12.78-35.39a.78.78,0,0,0,.29,0c4.3-1.54,8.54-3.32,12.83-4.92.92-.37,1.86-.71,2.8-1,.47-.15.18-.84-.27-.71-.65.19-1.29.39-1.94.56-4.28,1.24-8.56,2.36-12.8,3.73q2.88-7.67,6-15.26c2.13-5.21,4.44-10.29,6.89-15.28,5.14-1.34,10.24-2.8,15.4-4.06.6-.17,1.22-.3,1.82-.45.36-.09.31-.64-.06-.57l-1.38.23c-5,.82-9.92,1.71-14.81,2.89,1.32-2.67,2.71-5.3,4.12-7.9,4.71-.6,9.39-1.22,14.06-2,.52-.06,1.06-.17,1.58-.25a.24.24,0,0,0-.05-.47l-1.23.07c-4.49.2-8.95.55-13.42.94a359.55,359.55,0,0,1,21.93-34.69.17.17,0,0,0-.26-.22,193.81,193.81,0,0,0-14.53,19.29c-.55-4.09-1.16-8.16-1.89-12.22,0-.06,0-.13,0-.2a.33.33,0,0,0-.65.07c0,.25,0,.5.05.75.25,4.48.65,8.92,1.1,13.38a.52.52,0,0,0,.07.23A253.27,253.27,0,0,0,242,305.47a142.78,142.78,0,0,0-7.8-15.36l-.67-1.06c-.22-.33-.67,0-.57.3.2.63.4,1.25.62,1.87,2,5.71,4.82,11.24,7.37,16.7-.84,1.93-1.64,3.89-2.45,5.83a86.16,86.16,0,0,0-6.82-10.82c-.25-.34-.73,0-.52.38a106.91,106.91,0,0,1,6.45,12.55c-2.79,6.84-5.44,13.78-8,20.75-3.06-3.57-6-7.27-9.26-10.66-.3-.32-.62-.62-.92-.92s-.79.18-.56.54c.37.53.76,1.07,1.14,1.59,2.9,4,6,7.77,8.72,11.9-.57,1.57-1.13,3.16-1.7,4.75-3.06-3-5.86-6.25-8.91-9.28-.32-.35-.67-.7-1-1S216.38,333.64,216.57,333.93Z" style="fill:#c7c7c7"></path><path d="M68.45,280.06c.12.3.25.58.37.88,5.08,12,10,22.91,12.58,29.11a88.76,88.76,0,0,1,4.5,16.17c.08.44.16.87.26,1.31.52,2.73,1,5.56,1.53,8.41,0,.22.07.43.1.64,1.57,9.23,3,18.71,4.79,26.24H108c.25-1.68.47-3.47.64-5.37.27-2.83.45-5.88.57-9q0-.56,0-1.11c.32-13.19-.77-28.4-3.37-40.62-.07-.3-.12-.6-.2-.9-.57-2.6-1.21-5-1.93-7.31a99.45,99.45,0,0,0-3.85-10.05c-.13-.31-.27-.62-.4-.92l-.25-.54A233.26,233.26,0,0,0,80.75,254.3a6.74,6.74,0,0,0-.42-.62c-1.29-1.91-2.58-3.77-3.87-5.55-.2-.3-.4-.58-.62-.87-9-12.4-17.74-21.48-22.3-21.48C46.63,225.78,57.84,255,68.45,280.06Z" style="fill:#ebebeb"></path><path d="M54,231.71c9.85,17.73,20.75,34.74,29,53.24a121,121,0,0,0-14.61-4.89c-.2-.07-.42-.12-.62-.17a.33.33,0,0,0-.18.63l1.17.42C74,282.79,79,284.83,84,287.08c1.64,3.78,3.17,7.62,4.56,11.56a168.25,168.25,0,0,1,7.54,31.92c-3.39-1.48-6.7-3.17-10.2-4.34-.36-.13-.73-.25-1.08-.35a.41.41,0,0,0-.32.75c.56.32,1.11.62,1.66.91,3.35,1.77,6.89,3.16,10.22,5,.31,2.31.57,4.62.83,7-3.14-1.25-6.37-2.26-9.52-3.53l-1.61-.67a.12.12,0,0,0-.12.2c.61.38,1.21.75,1.83,1.11,3.08,1.75,6.38,3.13,9.48,4.89a.88.88,0,0,0,.15,0c.71,7.07,1.18,14.17,1.56,21.3h1.69c0-1.95-.11-3.91-.2-5.85l.14-.07c2.33-2.06,4.44-4.34,6.6-6.55.65-.65,1.31-1.32,2-1.94s1.09-1.06,1.66-1.56c.23-.22-.07-.62-.34-.44-.44.29-.87.57-1.29.89-.77.52-1.52,1.09-2.26,1.69a65.64,65.64,0,0,0-6.57,5.92,230.58,230.58,0,0,0-4.12-35.11.64.64,0,0,0,.52-.28c1.69-2.18,3.31-4.39,4.89-6.64q2.13-3,4.17-6.2c.4-.6.79-1.22,1.19-1.84.17-.25-.22-.55-.4-.32q-.48.63-1,1.26c-1.37,1.76-2.78,3.52-4.19,5.26-1.84,2.31-3.72,4.62-5.58,6.92q-.78-3.69-1.72-7.34c0-.05.08-.07.11-.13,2.15-3.14,4.08-6.41,6.07-9.64.13-.22-.2-.49-.37-.28-2.13,2.71-4.27,5.39-6.32,8.17-.48-1.79-1-3.6-1.57-5.38,2.58-4.59,5-9.31,7.32-14,.15-.3.3-.62.47-.92.27-.56.55-1.13.84-1.68a.32.32,0,0,0-.56-.32c-.23.35-.46.72-.68,1.08-.07.08-.12.18-.19.26-2.81,4.39-5.51,8.9-7.87,13.54-.35-1.05-.71-2.13-1.09-3.18A234.87,234.87,0,0,0,75.76,266c1.81-3.82,3.4-7.76,5-11.66.24-.57.47-1.14.7-1.71.11-.27-.33-.45-.45-.2-.22.44-.45.85-.67,1.29-1.84,3.57-3.72,7.12-5.39,10.77C74,262.73,73,261,72.05,259.29a61.85,61.85,0,0,0,4.41-11.16c.17-.53.32-1.07.47-1.59.1-.37-.45-.62-.62-.27s-.32.66-.47,1c-1.64,3.39-3.33,6.87-4.72,10.39-5.25-9-10.9-17.73-16.74-26.14A.2.2,0,0,0,54,231.71Z" style="fill:#c7c7c7"></path><path d="M332,290.75c0,2.38,0,4.7,0,7,0,.38,0,.76,0,1.13,0,.76,0,1.5,0,2.25q.21,10,.78,18.92c.06.88.12,1.74.16,2.61.18,2.51.38,5,.61,7.33.06.72.14,1.42.2,2.1,1.29,12.83,3.21,23.31,5.62,30.75h17.26c.2-.66.41-1.33.61-2,1.45-5,2.81-11,4.08-17.7l.27-1.47c.41-2.22.81-4.53,1.19-6.89.09-.53.18-1.08.25-1.63.19-1.09.35-2.19.52-3.31.05-.29.09-.59.14-.9.5-3.28,1-6.67,1.4-10.13,0-.32.09-.63.12-.95q.78-6.13,1.44-12.49c.22-2.1.43-4.19.63-6.31.85-9,1.5-18.08,1.94-26.79q.3-6.08.44-11.86c0-.35,0-.69,0-1,.21-9.15.13-17.59-.31-24.72a378.82,378.82,0,0,1,.15-40.1c0-.3,0-.61,0-.91,2.19-44.68,8.37-89.2-2.92-89.94-6.15-.42-15.54,29.33-22.94,67.6-.09.46-.17.93-.28,1.38v0a683.63,683.63,0,0,0-9.5,68c0,.53-.08,1-.12,1.57-.17,2.08-.34,4.16-.47,6.22-.11,1.53-.22,3.05-.31,4.56-.07,1.22-.13,2.42-.21,3.6v.12C332.27,268.68,332,280.08,332,290.75Z" style="fill:#ebebeb"></path><path d="M330.77,297.6c.21.21.41.42.62.61l.65.65c.81.79,1.63,1.55,2.48,2.3,4.23,3.78,8.84,7.19,13.34,10.59,0,2.85,0,5.69,0,8.53,0,5.46,0,10.68.07,15.77,0,.61,0,1.2,0,1.8a5.61,5.61,0,0,0,0,.58v0c.05,3.87.11,7.69.19,11.52,0,.35,0,.7,0,1.07,0,.71,0,1.43.06,2.14,0,1.69.08,3.38.12,5.08.05,1.5.1,3,.16,4.55h1.75c0-3.27,0-6.47-.07-9.74v-1.55c0-4.1-.06-8.33-.06-12.94,2.74-1.53,5.37-3.24,8-5,.69-.46,1.37-.93,2.05-1.4,1.18-.79,2.33-1.6,3.5-2.4l.69-.46c.32-.21,0-.73-.37-.55l-.18.11-3.41,1.92c-.67.35-1.35.73-2,1.09-2.77,1.52-5.53,3-8.24,4.69V334c0-1.44,0-2.87,0-4.32,2.8-1.87,5.61-3.86,8.39-5.91l1.2-.89a3.91,3.91,0,0,0,.41-.3c.73-.53,1.45-1.06,2.18-1.61l2.89-2.18.71-.54c.31-.23,0-.75-.36-.55l-.23.14c-.9.53-1.78,1.06-2.66,1.61q-1,.61-2.1,1.26c-.58.35-1.16.7-1.73,1.06l-1.24.76c-2.47,1.54-4.95,3.15-7.46,4.93q0-5.18,0-10.34c0-1.81,0-3.6,0-5.4,0-.26,0-.51,0-.77q0-13.32.15-26.63c5.44-3.08,10.74-6.43,16-9.74.35-.22.09-.78-.29-.58-5.27,2.7-10.55,5.43-15.72,8.33,0-2.92.06-5.84.12-8.77,6.19-4.7,13-8.61,19.31-13.17.52-.35,1-.72,1.53-1.1.31-.24,0-.8-.42-.59l-1.07.65c-6.47,3.87-12.67,8.29-19.32,11.85.32-16.53.9-33,1.95-49.53a1.16,1.16,0,0,0,.41-.16c5.08-3.43,10.2-6.76,15.19-10.31a.31.31,0,0,0-.33-.51c-5.13,2.86-10.12,6-15.15,9,.31-4.59.63-9.2,1-13.79,5.48-3.62,10.93-7.27,16.08-11.33l.78-.61c.29-.23-.05-.74-.37-.54l-.38.24c-5.3,3.37-10.55,6.86-15.93,10.13.91-10.75,2-21.48,3.46-32.2q1.13-8.22,2.41-16.45c4.24-3.22,8.59-6.28,12.8-9.55.37-.27-.06-.93-.46-.67-4,2.59-8,5.33-12,8q.6-3.85,1.25-7.71c1.85-1.57,3.77-3,5.69-4.52.33-.26-.06-.88-.43-.64-1.63,1.08-3.27,2.15-4.93,3.18q2.7-16,5.92-31.84c.07-.43-.55-.67-.67-.23a569.24,569.24,0,0,0-12.53,69c-3.45-3-6.95-5.9-10.46-8.81l-2.28-1.88c-.43-.35-1,.35-.66.73.89.85,1.78,1.68,2.66,2.53v0q4.82,4.56,9.71,9.06a1,1,0,0,0,.8.31c-.93,7.66-1.69,15.34-2.37,23a1,1,0,0,0-.08.87c-1.33,15.54-2.2,31.13-2.78,46.74-4.8-4.1-9.69-8.22-14.78-12l-1.46-1.06c-.44-.31-1,.33-.64.73.66.64,1.31,1.27,2,1.9,4.74,4.48,9.81,8.68,14.81,12.85h0q-.45,13.18-.62,26.39c0,.28,0,.54,0,.81-.06,3.44-.11,6.87-.13,10.32,0,2.54,0,5.08-.06,7.62a36.48,36.48,0,0,0-8.83-5.27c-.2-.09-.34.21-.17.33,3.16,2.13,5.9,4.85,9,7q0,3.51,0,7c-4.44-3.33-8.81-6.81-13.37-10-.8-.58-1.62-1.12-2.46-1.66-.29-.21-.58-.39-.87-.57a0,0,0,0,0,0,0C330.84,297,330.52,297.37,330.77,297.6Z" style="fill:#c7c7c7"></path><path d="M262.5,228.67c.23.36.46.74.7,1.11,12.12,19.13,25.17,38.61,31.39,49.65,3.68,6.55,8.34,20.39,13,35.65.08.25.16.49.23.73,1,3.18,1.92,6.42,2.87,9.68.11.36.22.73.32,1.11,3.87,13.24,7.53,26.48,10.37,36.22h10.85c.39-2.53.74-5.3,1.05-8.26,0-.46.09-.91.15-1.37,0-.62.1-1.26.17-1.92l.09-1c.36-4.35.65-9,.83-13.84,0-.58.05-1.14.06-1.72.16-4.55.22-9.23.17-13.91a267,267,0,0,0-1.58-28.14c-.34-3-.75-5.86-1.22-8.59,0-.3-.1-.6-.16-.91-.54-3-1.16-5.78-1.86-8.3A135.85,135.85,0,0,0,320.44,252c-.2-.43-.43-.85-.64-1.28-.38-.74-.78-1.5-1.19-2.26a240.39,240.39,0,0,0-17.44-28.09c-.21-.3-.42-.59-.64-.88-2.9-4-6-7.88-9.15-11.62a150.19,150.19,0,0,0-17.7-17.56l-.78-.64c-1.88-1.55-3.75-3-5.59-4.35l-1-.74c-12.85-9.2-24.39-13.26-28.63-8C233.78,181.33,247.27,204.58,262.5,228.67Z" style="fill:#dbdbdb"></path><path d="M268.27,210.13c4.44,5.48,8.92,11,13.27,16.61-6.33.58-12.73,1-19,1.93l-2.2.35c-.43.07-.31.71.09.71.94,0,1.87.05,2.81.05,6.46,0,13-.66,19.4-1.23a.83.83,0,0,0,.28-.08c4.24,5.55,8.33,11.21,12.07,17.06a164.08,164.08,0,0,1,18,39.64c-3.91-1.05-7.91-1.79-11.9-2.52a.28.28,0,0,0-.15.53c4.21,1.22,8.38,2.62,12.61,3.8,1,3.36,1.94,6.76,2.78,10.16a9.3,9.3,0,0,1,.27,1.07c.25,1,.49,1.93.7,2.9,1.65,6.95,3,14,4.08,21a35.81,35.81,0,0,0-3.3-2.06c-3.38-1.89-7.07-3.41-10.48-4.95l-.59-.27a.18.18,0,0,0-.18.32l1,.68c3.36,2.28,6.83,4.78,10.42,6.83,1.15.67,2.31,1.29,3.49,1.84.05.31.11.59.16.9.35,2.43.65,4.86.94,7.3-1.31-.95-2.63-1.86-4-2.71a66.48,66.48,0,0,0-8.16-4.48c-.18-.11-.38-.19-.56-.28a.34.34,0,0,0-.35.58q.62.39,1.23.81c2.73,1.74,5.42,3.55,8,5.47,1.25.9,2.47,1.81,3.68,2.75a1.05,1.05,0,0,0,.37.18c1,9.26,1.61,18.54,2.31,27.82h1.84c-.32-6.12-.79-12.24-1.35-18.34l0,0a71.06,71.06,0,0,0,7.25-6.61s0,0,0,0c.46-.47.9-.95,1.34-1.43.26-.31.53-.61.79-.91.47-.57.95-1.13,1.4-1.71.32-.41-.2-1-.59-.58l-.81.78-.73.7c-.42.43-.85.84-1.29,1.25l-.15.13c-2.4,2.25-4.85,4.44-7.42,6.53-.38-3.93-.79-7.83-1.22-11.73a275.5,275.5,0,0,0-4.77-29.69c-.09-.51-.22-1-.32-1.49a1.26,1.26,0,0,0,.24-.22s0,0,.05-.06c3.94-5.21,8.22-10.19,12.25-15.36.46-.57.9-1.15,1.34-1.73.17-.21.32-.43.49-.64s-.2-.47-.38-.27l-.09.1c-.52.54-1,1.08-1.52,1.63-4.35,4.75-8.47,9.7-12.87,14.4-.55-2.26-1.11-4.51-1.73-6.77-.23-.82-.46-1.64-.7-2.46a182.25,182.25,0,0,0-6.19-17.87c2.58-4.56,5.34-9.12,7.82-13.79.82-1.52,1.61-3.07,2.34-4.62.33-.65.64-1.32.94-2a.46.46,0,0,0-.79-.46c-.27.38-.53.78-.79,1.17-.52.76-1,1.52-1.49,2.3-3.16,5-5.95,10.29-8.82,15.46-1-2.46-2.15-4.88-3.3-7.28a66,66,0,0,0,5.25-10.71c.09-.21-.26-.35-.37-.15-1.81,3.15-3.68,6.25-5.61,9.34-1.66-3.36-3.44-6.68-5.35-9.93s-4-6.4-6.13-9.52a168.17,168.17,0,0,0,7.19-19.86c.23-.8.46-1.63.67-2.43a.34.34,0,0,0-.65-.18l-.66,1.73c-2.43,6.43-4.91,12.83-7.71,19.13-5.74-8.14-12.12-15.89-18.4-23.57-1.35-1.66-2.75-3.3-4.12-4.94l0,0c1.7-6.31,2.49-13.23,3.36-19.78.06-.55.14-1.1.21-1.63s-.55-.62-.67-.18-.21.78-.32,1.17a109.77,109.77,0,0,0-3.84,18.95c-1.43-1.72-2.83-3.44-4.28-5.13.78-6.06,1.77-12.1,2.53-18.17.09-.74.18-1.5.27-2.26.06-.54-.82-.66-.94-.14s-.23,1.11-.35,1.66c-.67,3.22-1.26,6.43-1.84,9.67a57.11,57.11,0,0,0-1.2,7.48,216,216,0,0,0-23.15-23.42.22.22,0,0,0-.3.32A416.22,416.22,0,0,1,268.27,210.13Z" style="fill:#c7c7c7"></path><path d="M396.13,349.8c0,.33,0,.67,0,1,0,1.28.11,2.54.17,3.76s.16,2.51.27,3.71c.14,1.58.3,3.1.5,4.55h14.37c1.52-6.65,2.75-14.81,4.11-22.75l.09-.58c.44-2.59.9-5.14,1.4-7.62.06-.39.13-.8.23-1.2A79.78,79.78,0,0,1,421.37,316c2.39-5.64,6.81-15.55,11.42-26.43.11-.25.23-.53.34-.8,9.62-22.75,19.79-49.25,13.53-49.25-4.14,0-12,8.24-20.24,19.49-.2.26-.38.52-.56.79-1.17,1.63-2.34,3.3-3.52,5l-.38.57c-1.49,2.2-3,4.48-4.39,6.81A198.1,198.1,0,0,0,405,295.53l-.38.85a92.64,92.64,0,0,0-3.49,9.12c-.66,2-1.23,4.26-1.75,6.62l-.18.82c-.29,1.34-.57,2.74-.81,4.15-.2,1.2-.4,2.42-.58,3.67-.71,4.88-1.2,10-1.46,15.16,0,.64-.06,1.26-.1,1.9,0,.19,0,.39,0,.61v0C396.07,342.32,396.05,346.15,396.13,349.8Z" style="fill:#dbdbdb"></path><path d="M394.65,349.39c.52.46,1,.93,1.51,1.41l.26.25.23.22,1.79,1.81c1.79,1.84,3.57,3.73,5.51,5.43l.12.08c-.06,1.4-.11,2.81-.16,4.23h1.57c0-.67.08-1.34.11-2,.32-5.43.7-10.84,1.24-16.24a.33.33,0,0,0,.14,0c.88-.5,1.78-1,2.69-1.42,2-1,4-1.91,5.92-3,.56-.32,1.11-.66,1.66-1,.1-.07,0-.22-.11-.18-.49.21-1,.43-1.46.61-1.89.78-3.82,1.44-5.73,2.13-1,.35-1.95.7-2.91,1.08.21-2.1.47-4.2.75-6.3,1.09-.59,2.22-1.14,3.34-1.67,2-.94,4-1.84,5.95-2.86l1.49-.83a.38.38,0,0,0-.29-.69,10,10,0,0,0-1,.32,60.81,60.81,0,0,0-5.92,2.43c-1.11.51-2.22,1-3.34,1.51l.36-2.42c.08-.47.15-.93.23-1.38.53-3.3,1.15-6.6,1.91-9.87.1-.5.22-1,.35-1.52a130.89,130.89,0,0,1,4-13.78,2.08,2.08,0,0,1,.12-.32c1.22-3.45,2.57-6.83,4-10.16,4.51-2,9.13-3.9,13.78-5.58l1.07-.38a.3.3,0,0,0-.17-.57c-.18,0-.38.09-.56.15a110.33,110.33,0,0,0-13.26,4.44c7.51-16.79,17.39-32.22,26.33-48.3a.18.18,0,0,0-.3-.18c-5.32,7.63-10.43,15.56-15.19,23.72-1.26-3.19-2.8-6.37-4.29-9.44l-.43-.88c-.15-.32-.65-.09-.56.23s.27.95.43,1.44a55.74,55.74,0,0,0,4,10.13c-.89,1.55-1.77,3.12-2.62,4.68-1.52-3.31-3.22-6.54-4.9-9.78-.21-.38-.41-.77-.6-1.15s-.51-.08-.41.17l.63,1.55c1.45,3.55,2.88,7.13,4.54,10.59a220.35,220.35,0,0,0-10.88,23c-.82,2-1.59,4.09-2.34,6.16-.35,1-.67,1.93-1,2.9a142.63,142.63,0,0,0-7.3-12.54l-.63-1a.3.3,0,0,0-.51.3c.26.5.52,1,.76,1.52,2.29,4.55,4.58,9.12,7.07,13.55-.51,1.63-1,3.25-1.42,4.9-1.86-2.53-3.81-5-5.74-7.42-.15-.2-.45,0-.33.25,1.81,2.94,3.56,5.9,5.5,8.75a1,1,0,0,0,.11.1c-.37,1.39-.7,2.77-1,4.17-.16.62-.29,1.25-.43,1.87l-.14.64-.27-.34c-.29-.36-.59-.74-.9-1.11-2.57-3.19-5.17-6.38-7.69-9.62q-.47-.57-.9-1.14s0-.05-.07-.06-.43.15-.29.35l.27.42c.26.43.53.84.81,1.25,2.11,3.27,4.3,6.46,6.64,9.56.29.42.59.83.93,1.24s.42.57.65.86a.6.6,0,0,0,.47.26q-.7,3.51-1.27,7c-.1.56-.19,1.13-.26,1.69a226,226,0,0,0-2.21,23.13,63.8,63.8,0,0,0-5.7-5.19c-.55-.44-1.12-.88-1.7-1.3l-.34-.25-.27-.18c-.38-.29-.78-.55-1.17-.81A.26.26,0,0,0,394.65,349.39Z" style="fill:#c7c7c7"></path></g><g id="freepik--Shadow--inject-100"><ellipse cx="196.91" cy="419.7" rx="105.57" ry="22.46" style="fill:#ebebeb"></ellipse></g><g id="freepik--Floor--inject-100"><path d="M48.57,362.82c129.05-.62,273.81-.62,402.86,0-129,.61-273.81.61-402.86,0Z" style="fill:#263238"></path><path d="M152.42,392.75c81.92-.61,173.83-.62,255.75,0-81.92.61-173.83.61-255.75,0Z" style="fill:#263238"></path><path d="M291.79,417.52c24-.67,48.06-.67,72,0-24,.67-48.06.67-72,0Z" style="fill:#263238"></path><path d="M163.82,450.37c33.69-.67,71.16-.65,104.87,0-33.72.65-71.17.66-104.87,0Z" style="fill:#263238"></path><path d="M64,402.68c39.07-.66,82.51-.65,121.6,0-39.1.65-82.52.67-121.6,0Z" style="fill:#263238"></path></g><g id="freepik--Plants--inject-100"><path d="M291.18,313.33c0,1.63,0,3.22,0,4.79,0,.26,0,.52,0,.77,0,.53,0,1,0,1.55-.1,4.57-.27,8.91-.53,13-.05.61-.09,1.2-.12,1.8-.12,1.72-.26,3.4-.42,5,0,.49-.09,1-.13,1.44-.89,8.81-2.21,16-3.87,21.12H274.19c-.13-.45-.28-.91-.42-1.39-1-3.41-1.93-7.53-2.8-12.16l-.18-1c-.29-1.53-.56-3.11-.82-4.73l-.18-1.12c-.12-.75-.24-1.5-.35-2.28,0-.19-.06-.4-.09-.61-.35-2.26-.66-4.59-1-7,0-.22-.07-.44-.09-.65-.35-2.81-.69-5.67-1-8.58-.15-1.44-.29-2.88-.43-4.33-.58-6.17-1-12.42-1.34-18.4-.13-2.78-.24-5.51-.3-8.15,0-.24,0-.47,0-.71-.15-6.28-.09-12.08.21-17a261.36,261.36,0,0,0-.1-27.53q0-.31,0-.63c-1.5-30.68-5.74-61.26,2-61.77,4.23-.28,10.67,20.14,15.76,46.43.06.31.11.64.19,1h0c2.8,14.67,5.17,31.1,6.52,46.72,0,.37.05.72.09,1.08.11,1.43.23,2.86.32,4.27.07,1,.15,2.1.21,3.13.05.83.09,1.66.14,2.47V290C291,298.17,291.18,306,291.18,313.33Z" style="fill:#37474f"></path><path d="M292,318c-.15.14-.29.29-.43.41s-.3.31-.45.45c-.55.55-1.12,1.07-1.7,1.58-2.91,2.6-6.07,4.94-9.16,7.28,0,1.95,0,3.9,0,5.86,0,3.75,0,7.33,0,10.83,0,.41,0,.82,0,1.23a2.67,2.67,0,0,1,0,.4v0c0,2.66-.08,5.28-.13,7.91,0,.24,0,.48,0,.73,0,.49,0,1,0,1.48,0,1.15,0,2.31-.08,3.48s-.07,2.08-.11,3.13h-1.2c0-2.25,0-4.44,0-6.69v-1.06c0-2.82,0-5.73,0-8.89-1.88-1.05-3.68-2.22-5.47-3.44q-.71-.47-1.41-1l-2.4-1.65-.47-.31c-.22-.15,0-.5.25-.38a.57.57,0,0,0,.13.08l2.33,1.31c.46.24.93.51,1.39.76,1.9,1,3.8,2.08,5.66,3.21V343c0-1,0-2,0-3-1.92-1.28-3.85-2.65-5.76-4.06l-.83-.61-.28-.21-1.49-1.1-2-1.5-.5-.37c-.2-.16,0-.51.25-.38l.16.1c.62.36,1.22.73,1.83,1.1l1.44.87,1.19.73.85.52c1.7,1.06,3.4,2.16,5.12,3.39,0-2.37,0-4.75,0-7.11,0-1.24,0-2.47,0-3.7,0-.18,0-.36,0-.54q0-9.14-.1-18.28c-3.74-2.12-7.37-4.42-11-6.69-.24-.15-.06-.54.2-.4,3.62,1.86,7.25,3.73,10.8,5.72,0-2,0-4-.09-6-4.25-3.23-8.91-5.91-13.26-9.05-.35-.24-.7-.49-1-.75s0-.55.28-.41l.74.45c4.44,2.66,8.7,5.69,13.26,8.14-.22-11.35-.61-22.69-1.33-34a1.19,1.19,0,0,1-.29-.12c-3.48-2.35-7-4.64-10.43-7.08a.21.21,0,0,1,.23-.34c3.52,2,6.95,4.08,10.4,6.15-.21-3.16-.43-6.32-.69-9.47-3.77-2.49-7.5-5-11-7.78-.18-.14-.36-.29-.54-.42s0-.51.25-.38l.26.17c3.65,2.32,7.25,4.71,10.95,7-.63-7.38-1.4-14.74-2.38-22.1-.51-3.77-1.07-7.54-1.65-11.3-2.92-2.22-5.9-4.32-8.8-6.56-.25-.19.05-.64.32-.46,2.78,1.78,5.48,3.66,8.23,5.48-.27-1.76-.57-3.53-.86-5.29-1.27-1.08-2.59-2.09-3.91-3.1-.22-.18.05-.61.3-.44,1.11.74,2.24,1.47,3.38,2.18q-1.85-11-4.06-21.87c-.05-.29.37-.46.46-.15a390.7,390.7,0,0,1,8.6,47.37c2.37-2.05,4.78-4.06,7.19-6.05l1.56-1.3c.3-.24.72.24.45.51-.6.58-1.22,1.15-1.82,1.74h0c-2.21,2.09-4.42,4.17-6.67,6.22a.7.7,0,0,1-.55.21c.64,5.27,1.16,10.54,1.63,15.82a.67.67,0,0,1,.05.6c.92,10.67,1.52,21.37,1.91,32.1,3.3-2.82,6.65-5.65,10.15-8.23l1-.73c.31-.21.71.23.44.5-.45.44-.89.88-1.35,1.31-3.26,3.08-6.74,6-10.18,8.82h0q.31,9.06.43,18.13c0,.19,0,.36,0,.55,0,2.36.08,4.72.09,7.09,0,1.75,0,3.49,0,5.23a25,25,0,0,1,6.07-3.62c.13-.06.22.15.11.23-2.17,1.46-4.05,3.33-6.17,4.84,0,1.6,0,3.21,0,4.81,3.05-2.29,6.05-4.68,9.18-6.84.55-.4,1.12-.77,1.69-1.14.2-.15.4-.27.6-.4h0C292,317.62,292.18,317.87,292,318Z" style="fill:#263238"></path><path d="M335.4,158.85c1.82,15,2.61,78,1.65,109.26-.2,6.71-.13,13.63.11,20.58,0,.25,0,.5,0,.76.18,4.17.42,8.34.72,12.47,0,.2,0,.39,0,.58.06.68.11,1.37.15,2.05a6.2,6.2,0,0,1,.06.62c0,.4.07.81.1,1.21.48,5.71,1.06,11.3,1.7,16.66.05.48.12,1,.18,1.42,1.29,10.5,2.84,20.05,4.35,27.74l.21,1c.4,2,.78,3.78,1.16,5.46.34,1.49.67,2.87,1,4.12h5.21a233.33,233.33,0,0,0,8.47-29.07c.1-.42.19-.86.29-1.3a308.91,308.91,0,0,0,6.4-40.89c0-.24,0-.49.07-.73.59-7.09.94-14.4.95-21.82v-1c0-.56,0-1.12,0-1.68q-.06-5.26-.33-11c0-.3,0-.6,0-.9-1.07-21.7-4.33-47.52-8.38-71.14,0-.32-.1-.63-.17-1-.69-4.08-1.42-8.09-2.17-12-.07-.43-.15-.84-.22-1.25-6-31.16-12.85-55.61-16.86-56.43C332,111,333.07,139.67,335.4,158.85Z" style="fill:#37474f"></path><path d="M350.72,297.13a1.47,1.47,0,0,0,.41.15c-.05,3.34-.12,6.7-.22,10.06-4.09-2.26-8.91-3.15-13-5.42-.19-.1-.39-.2-.58-.32s-.43.18-.23.31.56.4.85.59c4,2.64,8.76,4.17,12.83,6.81l.08,0c-.51,17.84-1.47,35.66-2.49,53.48h1.07c.56-7.52,1.13-15,1.64-22.55,0,0,0,0,0,0,3.22-2.05,6.33-4.26,9.41-6.49l2.61-1.9a.32.32,0,1,0-.36-.54l-2,1.14c-3.23,1.89-6.48,3.84-9.6,5.9.29-4.37.56-8.72.81-13.08a56.54,56.54,0,0,1,6.1-4.63c.2-.13,0-.41-.21-.3a43.14,43.14,0,0,0-5.8,3.33c.13-2.43.27-4.86.4-7.29q.9-19.23.7-38.38c5-3.07,10-6,15-9l3.21-1.9c.34-.21,0-.66-.33-.49-1,.45-1.93.9-2.88,1.36-5.1,2.41-10.18,4.88-15.06,7.65-.06-4.22-.17-8.43-.29-12.66l.14,0c5.06-2.35,9.91-5.09,14.87-7.62q1.22-.63,2.46-1.23c.31-.15.06-.64-.27-.51-.74.28-1.49.57-2.24.84a130,130,0,0,0-15,6.52q-.74-21.47-2.77-42.92c-.93-9.82-1.91-19.63-2.88-29.44,4.15-1.66,8.24-3.46,12.29-5.3l3.7-1.7c.3-.14.06-.62-.26-.5l-3.61,1.24c-4.13,1.46-8.23,3-12.28,4.57-.32-3.12-.61-6.26-.93-9.4a1.08,1.08,0,0,0,.29-.09,69.05,69.05,0,0,0,10.75-7.08l3.91-3a.32.32,0,0,0-.36-.53c-1.24.8-2.5,1.56-3.77,2.31-3.69,2.16-7.47,4.18-11,6.52q-1.14-11.16-2.34-22.32a22.57,22.57,0,0,0,2.68-1.89l3.72-2.69a.31.31,0,1,0-.36-.51c-1.3.78-2.61,1.58-3.91,2.38-.73.44-1.53.85-2.27,1.34-1.16-10.85-2.34-21.7-3.62-32.54-.05-.46-.81-.44-.77,0,1.44,18.61,3.19,37.19,4.88,55.77,1.63,18,3.49,36,4.94,54.08-1.65-.88-3.33-1.76-5-2.68a.29.29,0,0,0-.29.5c1.81,1.14,3.59,2.28,5.38,3.45.12,1.64.27,3.29.4,4.93-3.56-1.94-7.15-3.78-10.85-5.47-.42-.19-.75.38-.35.6a109.12,109.12,0,0,1,11.13,6.75l.2.09c.86,11.9,1.5,23.81,1.68,35.75.11,7.31.08,14.63,0,21.94-2.37-1.07-4.76-2.11-7.13-3.23a71.1,71.1,0,0,1-6.87-3.18c-.27-.18-.55-.36-.81-.55s-.51.1-.3.31a9.17,9.17,0,0,0,1.14,1,42.58,42.58,0,0,0,5.21,3C345.21,294,348,295.56,350.72,297.13Z" style="fill:#263238"></path><path d="M359.75,332.33c0,.54,0,1.08.05,1.6a199,199,0,0,0,2.87,28.89h8.17c2.78-9.22,6.71-23.63,10.92-38l.3-1c.89-3,1.79-6.06,2.69-9,.06-.23.13-.46.2-.69,4.32-14.25,8.68-27.16,12.13-33.28,5.79-10.31,18-28.5,29.3-46.35l.65-1c14.23-22.51,26.82-44.22,23.22-48.68-4-4.88-14.74-1.08-26.76,7.52-.31.21-.62.44-.93.68-1.72,1.25-3.47,2.61-5.23,4.06l-.72.59a139.7,139.7,0,0,0-16.53,16.41c-3,3.49-5.84,7.14-8.55,10.86-.2.27-.41.55-.6.82A222.22,222.22,0,0,0,373.55,254l-.61,1.18a126.05,126.05,0,0,0-8.85,21.3c-.65,2.36-1.23,5-1.73,7.74-.06.28-.11.57-.16.85C359.86,298.57,359.22,316.32,359.75,332.33Z" style="fill:#455a64"></path><path d="M357.76,331.49c.65.84,1.33,1.65,2,2.44a66,66,0,0,0,8,7.54l0,0c-.65,7.1-1.18,14.21-1.46,21.33H368c.8-10.07,1.38-20.13,2.47-30.17a1,1,0,0,0,.34-.18c3.53-2.73,7.19-5.27,10.94-7.68l1.15-.76a.31.31,0,0,0-.33-.53c-.17.08-.35.15-.52.25a69.51,69.51,0,0,0-11.34,6.72c.26-2.27.56-4.55.88-6.82,0-.27.09-.55.13-.84,4.55-2.13,8.86-5.28,13-8.1.32-.22.61-.43.93-.63s0-.38-.19-.3-.35.16-.54.24c-4.26,1.93-9,3.82-12.86,6.56a243.38,243.38,0,0,1,7.31-32.78c4-1.11,7.84-2.42,11.77-3.55a.26.26,0,0,0-.14-.5c-3.72.68-7.45,1.38-11.12,2.36a153.27,153.27,0,0,1,16.83-37c3.49-5.47,7.31-10.75,11.27-15.94a.8.8,0,0,0,.26.09c6,.54,12.07,1.15,18.11,1.15.88,0,1.76,0,2.62,0,.39,0,.5-.61.1-.67q-1-.18-2.07-.33c-5.88-.86-11.86-1.26-17.77-1.82,4.07-5.24,8.25-10.38,12.4-15.5a393.52,393.52,0,0,1,26.58-29.41c.19-.19-.1-.46-.28-.29a203,203,0,0,0-21.63,21.86,51.61,51.61,0,0,0-1.11-7c-.53-3-1.09-6-1.73-9-.1-.52-.21-1-.32-1.55s-.93-.39-.87.11c.08.71.17,1.42.26,2.12.71,5.66,1.63,11.3,2.35,17-1.35,1.57-2.65,3.19-4,4.78a101.08,101.08,0,0,0-3.59-17.69l-.3-1.1c-.11-.41-.68-.22-.62.18s.14,1,.2,1.51c.8,6.13,1.54,12.59,3.13,18.48h0c-1.28,1.55-2.59,3.07-3.85,4.62-5.88,7.18-11.82,14.41-17.2,22-2.58-5.88-4.91-11.86-7.18-17.85l-.61-1.63c-.14-.37-.73-.23-.63.17.2.76.41,1.52.64,2.28a154.2,154.2,0,0,0,6.72,18.53c-2,2.92-3.94,5.87-5.72,8.91s-3.46,6.12-5,9.26q-2.71-4.31-5.24-8.72c-.1-.19-.43-.06-.34.14a60.92,60.92,0,0,0,4.9,10c-1.08,2.24-2.12,4.5-3.09,6.8-3.09-5.55-6.07-11.29-9.61-16.56-.24-.38-.5-.75-.75-1.12a.43.43,0,0,0-.74.42c.28.63.57,1.25.88,1.88,2.8,5.86,6.28,11.52,9.49,17.18A167,167,0,0,0,376.65,289c-.84,2.85-1.58,5.73-2.28,8.63-4.1-4.4-7.95-9-12-13.46-.26-.27-.5-.54-.74-.8s-.51-.55-.76-.82-.52.07-.36.27l1.05,1.36c.21.29.43.56.65.84,3.78,4.84,7.79,9.5,11.49,14.4a1,1,0,0,0,.22.2,260.52,260.52,0,0,0-4.75,29.14q-.6,5.45-1.13,10.93c-2.89-2.33-5.61-4.81-8.28-7.38-.49-.46-1-.91-1.44-1.38A.39.39,0,0,0,357.76,331.49Z" style="fill:#263238"></path><path d="M379.69,362.82c.14-.27.3-.54.44-.81l.46-.88c5.21-10,9.89-22.28,12.35-28.26.44-1.07,1.09-2.5,1.93-4.25.16-.33.33-.65.5-1,3.12-6.39,8.21-16.16,13.09-26.15.11-.23.21-.44.33-.67,1-2,1.93-4,2.85-6l.26-.55c6.84-14.56,12.11-28,9-30.36S411.77,265,405,271.49c-.19.17-.36.34-.54.53a133.27,133.27,0,0,0-22,29.18l-.53.94a94.84,94.84,0,0,0-4.77,10.09,191.52,191.52,0,0,0-6.44,19.35c-.1.34-.2.68-.29,1-.58,2.11-1.12,4.2-1.6,6.25-.09.34-.16.66-.23,1a155.85,155.85,0,0,0-3.78,23Z" style="fill:#37474f"></path><path d="M380.59,361.13c-1.58.54-3.16,1.09-4.7,1.69h2.66c.53-.26,1.06-.53,1.58-.81l1.7-.9a.2.2,0,0,0-.14-.37Z" style="fill:#263238"></path><path d="M367.56,338.33c.33.52.69,1,1,1.51,2.16,3,4.66,5.69,7,8.52l.13.1c-.51,1.45-1,2.9-1.51,4.34-1.49-1.37-2.85-2.92-4.34-4.28-.19-.17-.44.1-.3.28,1.29,1.85,2.84,3.41,4.24,5.13-1,2.95-2,5.92-3,8.89h2c3.6-10,7.11-20,10.83-30a1,1,0,0,0,.24,0c3.65-1.31,7.25-2.82,10.88-4.18.78-.31,1.58-.59,2.37-.88.4-.13.16-.71-.22-.6-.56.16-1.1.33-1.65.47-3.62,1.05-7.26,2-10.85,3.17q2.44-6.5,5.05-12.94c1.81-4.41,3.77-8.72,5.84-12.95,4.36-1.13,8.68-2.37,13-3.43.51-.15,1-.26,1.55-.39.3-.07.25-.54-.06-.48l-1.16.2c-4.22.69-8.41,1.45-12.56,2.44q1.69-3.39,3.5-6.69c4-.51,7.95-1,11.91-1.7l1.34-.21a.2.2,0,0,0-.05-.4c-.34,0-.69,0-1,.06-3.81.17-7.59.46-11.38.79a304.16,304.16,0,0,1,18.59-29.39.15.15,0,0,0-.23-.19,165.18,165.18,0,0,0-12.31,16.35c-.47-3.47-1-6.92-1.6-10.36a.86.86,0,0,1,0-.17.28.28,0,0,0-.55.06c0,.21,0,.43,0,.64.21,3.79.55,7.55.93,11.33a.39.39,0,0,0,.06.2,213.74,213.74,0,0,0-16.34,30.67,120.53,120.53,0,0,0-6.62-13c-.18-.3-.37-.6-.57-.89s-.57,0-.48.25c.17.53.34,1.05.52,1.58,1.69,4.84,4.09,9.53,6.25,14.16-.71,1.63-1.39,3.29-2.07,4.94a73.25,73.25,0,0,0-5.78-9.18c-.21-.28-.63,0-.44.33A91.29,91.29,0,0,1,385.36,323c-2.37,5.79-4.62,11.67-6.79,17.58-2.6-3-5.06-6.17-7.85-9l-.78-.79c-.27-.27-.67.16-.47.46s.64.91,1,1.35c2.46,3.36,5.11,6.59,7.39,10.08-.49,1.33-1,2.68-1.44,4-2.6-2.53-5-5.29-7.55-7.86-.27-.3-.57-.6-.87-.88S367.41,338.09,367.56,338.33Z" style="fill:#263238"></path><path d="M284.93,292.68c.1.26.21.5.31.75,4.3,10.16,8.44,19.41,10.67,24.67a75.21,75.21,0,0,1,3.8,13.7c.07.37.14.74.23,1.11.44,2.31.88,4.71,1.29,7.13l.09.54c1.33,7.82,2.54,15.86,4.06,22.24h13.05c.21-1.42.4-2.94.54-4.55.22-2.4.38-5,.48-7.67q0-.47,0-.93a157.13,157.13,0,0,0-2.86-34.43c-.05-.25-.1-.51-.17-.76-.48-2.2-1-4.28-1.63-6.19a85.35,85.35,0,0,0-3.27-8.52c-.11-.26-.22-.53-.34-.78l-.21-.46a197.94,197.94,0,0,0-15.65-27.68c-.11-.18-.23-.35-.35-.52-1.1-1.62-2.19-3.2-3.28-4.7-.17-.26-.34-.5-.53-.74-7.65-10.51-15-18.2-18.9-18.2C266.44,246.69,275.94,271.44,284.93,292.68Z" style="fill:#455a64"></path><path d="M272.72,251.71c8.35,15,17.58,29.44,24.59,45.12a102.79,102.79,0,0,0-12.38-4.15,5.18,5.18,0,0,0-.53-.14c-.35-.1-.48.41-.15.54l1,.35c4.35,1.57,8.66,3.3,12.87,5.2,1.39,3.21,2.68,6.46,3.86,9.8a142.53,142.53,0,0,1,6.39,27.05c-2.87-1.25-5.68-2.68-8.65-3.68-.3-.11-.61-.21-.91-.3a.35.35,0,0,0-.27.64c.47.27.94.53,1.41.77,2.84,1.51,5.83,2.68,8.66,4.23.26,2,.48,3.92.7,5.89-2.66-1.06-5.4-1.91-8.07-3-.45-.19-.91-.37-1.36-.57a.1.1,0,0,0-.1.17c.51.33,1,.64,1.55.94,2.61,1.49,5.41,2.65,8,4.14a1.12,1.12,0,0,0,.13,0c.6,6,1,12,1.32,18.05h1.44c-.05-1.65-.1-3.31-.17-5a.24.24,0,0,0,.11-.06c2-1.74,3.76-3.67,5.59-5.55.56-.55,1.11-1.12,1.68-1.65s.92-.89,1.41-1.32c.19-.18-.06-.52-.29-.37s-.74.49-1.09.76c-.65.44-1.29.92-1.92,1.43a57.39,57.39,0,0,0-5.57,5,193.84,193.84,0,0,0-3.49-29.75.54.54,0,0,0,.44-.24c1.44-1.84,2.81-3.72,4.15-5.62,1.21-1.72,2.38-3.48,3.53-5.26.34-.51.67-1,1-1.56.14-.21-.18-.47-.34-.27-.27.36-.55.71-.84,1.07-1.16,1.49-2.35,3-3.55,4.46-1.56,2-3.15,3.92-4.73,5.86-.44-2.09-.92-4.16-1.46-6.22,0,0,.07-.05.1-.11,1.82-2.66,3.45-5.43,5.14-8.17.12-.18-.17-.41-.31-.24-1.8,2.3-3.62,4.57-5.35,6.93-.42-1.52-.86-3.05-1.34-4.56,2.19-3.89,4.2-7.89,6.21-11.88.12-.26.25-.53.39-.78.23-.47.47-.95.71-1.42a.27.27,0,1,0-.46-.27l-.59.91-.15.22c-2.39,3.72-4.67,7.54-6.68,11.48-.29-.9-.59-1.81-.92-2.7a197.11,197.11,0,0,0-12.34-27.25c1.53-3.24,2.88-6.58,4.23-9.89l.6-1.44c.08-.23-.29-.39-.38-.17s-.39.72-.57,1.09c-1.57,3-3.16,6-4.58,9.13-.79-1.46-1.61-2.93-2.44-4.37a53.66,53.66,0,0,0,3.74-9.46q.21-.69.39-1.35c.09-.31-.38-.53-.52-.23s-.27.56-.4.84c-1.39,2.87-2.82,5.82-4,8.8-4.45-7.62-9.23-15-14.19-22.15A.16.16,0,0,0,272.72,251.71Z" style="fill:#263238"></path><path d="M119.09,309.75c0,1.74,0,3.46,0,5.14,0,.28,0,.56,0,.83l0,1.65q.15,7.36.57,13.93c.05.65.09,1.29.13,1.93.13,1.85.28,3.65.44,5.4,0,.52.1,1,.15,1.54,1,9.45,2.36,17.17,4.14,22.65h12.71c.15-.49.3-1,.45-1.49,1.06-3.65,2.07-8.08,3-13,.07-.36.14-.72.2-1.08.31-1.64.6-3.34.88-5.08.06-.39.13-.79.19-1.2.13-.8.25-1.61.38-2.44,0-.21.06-.43.1-.66.37-2.42.7-4.91,1-7.46,0-.23.07-.47.09-.7.38-3,.74-6.08,1.06-9.2.16-1.54.32-3.09.46-4.64.63-6.62,1.11-13.32,1.43-19.73.15-3,.26-5.91.33-8.74,0-.26,0-.5,0-.76.16-6.74.1-13-.22-18.21a277.82,277.82,0,0,1,.11-29.53c0-.22,0-.45,0-.67,1.61-32.9,6.16-65.69-2.15-66.24-4.53-.3-11.44,21.6-16.9,49.79-.06.34-.12.68-.2,1h0c-3,15.73-5.55,33.35-7,50.1,0,.39,0,.77-.09,1.15-.12,1.54-.24,3.07-.34,4.58-.08,1.14-.16,2.26-.23,3.36-.05.9-.1,1.78-.15,2.66v.09C119.31,293.49,119.09,301.89,119.09,309.75Z" style="fill:#455a64"></path><path d="M118.2,314.79a6.33,6.33,0,0,0,.46.44c.15.17.32.33.48.49.59.58,1.2,1.14,1.82,1.69,3.12,2.78,6.51,5.29,9.82,7.8,0,2.1,0,4.19,0,6.28,0,4,0,7.87.06,11.62,0,.44,0,.88,0,1.32a2.94,2.94,0,0,0,0,.42v0c0,2.85.08,5.66.14,8.48,0,.26,0,.52,0,.79,0,.52,0,1.05,0,1.58,0,1.24.06,2.48.09,3.74,0,1.11.07,2.23.11,3.35h1.29c0-2.41,0-4.76,0-7.17v-1.14c0-3-.05-6.14-.05-9.53,2-1.13,4-2.39,5.87-3.69.5-.33,1-.68,1.51-1l2.58-1.77.5-.33c.24-.16,0-.54-.27-.41l-.13.08L140,339.24l-1.49.81c-2,1.12-4.08,2.24-6.07,3.45v-1.93c0-1.06,0-2.11,0-3.18,2.06-1.38,4.13-2.84,6.18-4.35l.89-.65.3-.23,1.6-1.18,2.13-1.61.52-.4c.23-.17,0-.55-.26-.4l-.17.1c-.66.39-1.31.78-2,1.19s-1,.61-1.55.93-.85.51-1.27.78-.61.37-.91.56c-1.83,1.13-3.65,2.32-5.5,3.63,0-2.54,0-5.09,0-7.62,0-1.33,0-2.65,0-4,0-.19,0-.38,0-.57q0-9.81.12-19.61c4-2.28,7.9-4.74,11.81-7.18.26-.16.07-.57-.21-.43-3.89,2-7.78,4-11.58,6.14,0-2.15,0-4.3.09-6.46,4.55-3.46,9.56-6.34,14.22-9.7.38-.26.75-.52,1.12-.8s0-.6-.3-.44-.54.31-.8.48c-4.76,2.84-9.33,6.1-14.22,8.72.23-12.17.66-24.33,1.43-36.47a1.1,1.1,0,0,0,.31-.12c3.74-2.52,7.51-5,11.18-7.6a.22.22,0,0,0-.24-.36c-3.78,2.1-7.45,4.37-11.16,6.59.23-3.38.46-6.77.74-10.16,4-2.66,8.05-5.35,11.85-8.34l.57-.45c.21-.16,0-.55-.27-.4l-.28.18c-3.91,2.49-7.77,5.05-11.73,7.46.67-7.92,1.5-15.81,2.55-23.71q.83-6.06,1.77-12.12c3.12-2.37,6.33-4.62,9.43-7,.27-.2-.05-.68-.34-.49-3,1.9-5.88,3.92-8.82,5.88.29-1.89.6-3.79.92-5.68,1.36-1.15,2.77-2.24,4.18-3.33.25-.19,0-.64-.31-.47q-1.8,1.2-3.63,2.34,2-11.74,4.36-23.44c.05-.32-.41-.5-.49-.17a418,418,0,0,0-9.23,50.79c-2.54-2.19-5.12-4.34-7.71-6.48l-1.68-1.39c-.31-.26-.77.26-.48.54l2,1.87h0q3.54,3.36,7.15,6.67a.78.78,0,0,0,.59.23c-.68,5.64-1.24,11.3-1.75,17a.69.69,0,0,0-.05.64c-1,11.45-1.63,22.92-2.05,34.43-3.54-3-7.14-6.06-10.89-8.83-.36-.27-.71-.53-1.07-.78s-.76.24-.47.53c.48.47,1,.95,1.45,1.4,3.5,3.31,7.23,6.4,10.91,9.47h0q-.33,9.7-.46,19.44c0,.2,0,.39,0,.59,0,2.53-.08,5.06-.09,7.6,0,1.87,0,3.74,0,5.61a27.15,27.15,0,0,0-6.51-3.88c-.14-.07-.25.16-.12.25,2.33,1.56,4.34,3.57,6.62,5.18,0,1.72,0,3.45,0,5.16-3.27-2.45-6.48-5-9.84-7.33-.59-.43-1.2-.83-1.81-1.22-.22-.16-.43-.29-.64-.43h0C118.25,314.35,118,314.62,118.2,314.79Z" style="fill:#263238"></path><path d="M67.92,264c.17.27.34.55.52.82C77.36,278.93,87,293.27,91.55,301.4c2.71,4.83,6.15,15,9.57,26.26,0,.18.11.36.16.54.71,2.34,1.41,4.73,2.12,7.12l.24.82c2.84,9.76,5.54,19.51,7.63,26.68h8c.29-1.86.55-3.9.77-6.08,0-.34.07-.68.11-1s.08-.93.12-1.41c0-.26,0-.52.07-.78.27-3.2.48-6.63.62-10.19,0-.42,0-.84,0-1.26.11-3.35.16-6.8.13-10.25A197.28,197.28,0,0,0,120,311.12c-.25-2.2-.55-4.32-.89-6.32,0-.23-.08-.45-.13-.67-.39-2.21-.85-4.26-1.36-6.12a101.18,101.18,0,0,0-7-16.8l-.47-.94c-.28-.55-.57-1.11-.87-1.67A177.76,177.76,0,0,0,96.4,257.92c-.16-.22-.31-.44-.47-.65-2.14-2.92-4.39-5.8-6.74-8.55a110.42,110.42,0,0,0-13-12.94l-.57-.47c-1.39-1.14-2.76-2.22-4.12-3.2l-.75-.55c-9.46-6.77-18-9.76-21.08-5.91C46.77,229.16,56.7,246.29,67.92,264Z" style="fill:#37474f"></path><path d="M72.17,250.37c3.27,4,6.57,8.1,9.77,12.23-4.65.43-9.37.75-14,1.42l-1.62.26c-.31.06-.22.53.07.53.69,0,1.37,0,2.07,0,4.76,0,9.55-.48,14.29-.91a.65.65,0,0,0,.2-.05c3.12,4.09,6.14,8.25,8.89,12.56a120.57,120.57,0,0,1,13.26,29.2c-2.88-.78-5.82-1.32-8.76-1.86a.2.2,0,0,0-.11.39c3.1.9,6.17,1.93,9.28,2.8.75,2.47,1.44,5,2.05,7.48a7.44,7.44,0,0,1,.2.78c.18.71.36,1.43.52,2.14,1.21,5.12,2.18,10.29,3,15.46a26.2,26.2,0,0,0-2.43-1.53c-2.48-1.38-5.21-2.5-7.71-3.64l-.44-.2a.14.14,0,0,0-.14.24l.74.5c2.48,1.68,5,3.52,7.67,5,.86.49,1.71.95,2.58,1.35,0,.23.08.44.11.67.26,1.79.48,3.58.7,5.37-1-.69-1.94-1.37-2.94-2a50.59,50.59,0,0,0-6-3.31l-.41-.2a.25.25,0,0,0-.26.43l.91.59c2,1.29,4,2.62,5.91,4,.92.66,1.81,1.34,2.71,2a.67.67,0,0,0,.27.13c.74,6.82,1.18,13.65,1.7,20.49h1.35c-.23-4.51-.58-9-1-13.51h0a52.46,52.46,0,0,0,5.34-4.87s0,0,0,0c.34-.35.66-.7,1-1.06s.39-.44.58-.67c.35-.41.69-.83,1-1.25s-.15-.72-.44-.43l-.59.57-.54.52L120,343a1,1,0,0,0-.11.1c-1.77,1.65-3.57,3.27-5.47,4.8q-.42-4.34-.89-8.63a204,204,0,0,0-3.52-21.87c-.07-.37-.15-.73-.23-1.1a1.29,1.29,0,0,0,.18-.16l0,0c2.9-3.84,6.06-7.51,9-11.31.33-.43.66-.85,1-1.28l.36-.47c.12-.16-.15-.35-.28-.2l-.07.08c-.38.39-.75.79-1.12,1.2-3.2,3.49-6.24,7.14-9.47,10.6-.4-1.67-.82-3.33-1.28-5-.17-.61-.33-1.21-.51-1.82a133.75,133.75,0,0,0-4.56-13.16c1.9-3.35,3.93-6.71,5.75-10.15.61-1.12,1.19-2.26,1.73-3.41.25-.48.47-1,.69-1.46a.34.34,0,0,0-.58-.34c-.2.28-.39.57-.58.86-.38.56-.74,1.12-1.1,1.69-2.33,3.69-4.38,7.59-6.49,11.39-.76-1.81-1.58-3.59-2.43-5.36A48.42,48.42,0,0,0,104,280.1c.07-.15-.19-.25-.27-.11q-2,3.48-4.13,6.88-1.83-3.72-3.94-7.31c-1.41-2.39-2.94-4.72-4.52-7a124.74,124.74,0,0,0,5.3-14.63c.17-.59.34-1.2.49-1.79a.25.25,0,0,0-.48-.13c-.15.42-.32.85-.48,1.27-1.79,4.74-3.62,9.45-5.68,14.09-4.23-6-8.92-11.7-13.55-17.36-1-1.22-2-2.43-3-3.64h0a113.62,113.62,0,0,0,2.47-14.57c0-.4.11-.8.16-1.2s-.4-.46-.49-.13l-.24.86a80.44,80.44,0,0,0-2.83,13.95c-1-1.26-2.08-2.53-3.15-3.77.57-4.47,1.3-8.91,1.86-13.38.07-.55.14-1.11.2-1.67,0-.39-.6-.48-.69-.1s-.17.82-.26,1.22c-.49,2.37-.93,4.74-1.35,7.12a42.72,42.72,0,0,0-.89,5.51,158.51,158.51,0,0,0-17-17.24.16.16,0,0,0-.23.23A305,305,0,0,1,72.17,250.37Z" style="fill:#263238"></path><path d="M142.19,332.33c0,.54,0,1.08.05,1.6a199,199,0,0,0,2.87,28.89h8.17c2.78-9.22,6.71-23.63,10.92-38l.3-1c.89-3,1.78-6.06,2.69-9,.06-.23.13-.46.2-.69,4.32-14.25,8.68-27.16,12.13-33.28,5.79-10.31,18-28.5,29.29-46.35l.66-1c14.23-22.51,26.82-44.22,23.21-48.68-4-4.88-14.73-1.08-26.75,7.52-.31.21-.62.44-.94.68-1.71,1.25-3.46,2.61-5.22,4.06l-.73.59a140.4,140.4,0,0,0-16.52,16.41c-3,3.49-5.84,7.14-8.55,10.86-.2.27-.41.55-.6.82A222.22,222.22,0,0,0,156,254l-.61,1.18a125.22,125.22,0,0,0-8.85,21.3c-.65,2.36-1.23,5-1.73,7.74-.06.28-.11.57-.16.85C142.3,298.57,141.66,316.32,142.19,332.33Z" style="fill:#37474f"></path><path d="M140.2,331.49c.65.84,1.33,1.65,2,2.44a66,66,0,0,0,8,7.54l0,0c-.65,7.1-1.18,14.21-1.46,21.33h1.6c.8-10.07,1.38-20.13,2.47-30.17a1,1,0,0,0,.34-.18c3.52-2.73,7.19-5.27,10.94-7.68l1.15-.76a.31.31,0,0,0-.33-.53c-.17.08-.35.15-.52.25a69.51,69.51,0,0,0-11.34,6.72c.26-2.27.56-4.55.88-6.82.05-.27.09-.55.13-.84,4.55-2.13,8.86-5.28,13-8.1.32-.22.61-.43.93-.63s0-.38-.19-.3-.35.16-.54.24c-4.26,1.93-9,3.82-12.86,6.56a243.38,243.38,0,0,1,7.31-32.78c3.95-1.11,7.84-2.42,11.77-3.55a.26.26,0,0,0-.14-.5c-3.72.68-7.46,1.38-11.12,2.36a153.27,153.27,0,0,1,16.83-37c3.49-5.47,7.31-10.75,11.27-15.94a.8.8,0,0,0,.26.09c6,.54,12.07,1.15,18.1,1.15.88,0,1.77,0,2.63,0,.38,0,.5-.61.1-.67-.7-.12-1.38-.23-2.07-.33-5.88-.86-11.86-1.26-17.77-1.82,4.06-5.24,8.25-10.38,12.4-15.5a391.34,391.34,0,0,1,26.58-29.41c.19-.19-.1-.46-.28-.29a202,202,0,0,0-21.63,21.86,51.61,51.61,0,0,0-1.11-7c-.54-3-1.09-6-1.73-9-.1-.52-.21-1-.33-1.55s-.92-.39-.86.11c.08.71.17,1.42.25,2.12.71,5.66,1.64,11.3,2.36,17-1.35,1.57-2.65,3.19-4,4.78a102,102,0,0,0-3.59-17.69l-.3-1.1c-.11-.41-.68-.22-.62.18s.14,1,.19,1.51c.81,6.13,1.55,12.59,3.14,18.48h0c-1.28,1.55-2.59,3.07-3.85,4.62-5.88,7.18-11.82,14.41-17.2,22-2.58-5.88-4.91-11.86-7.18-17.85l-.61-1.63c-.15-.37-.73-.23-.63.17.2.76.41,1.52.64,2.28a154.2,154.2,0,0,0,6.72,18.53c-2,2.92-3.94,5.87-5.73,8.91s-3.45,6.12-5,9.26q-2.72-4.31-5.24-8.72c-.1-.19-.43-.06-.34.14a61.68,61.68,0,0,0,4.89,10c-1.07,2.24-2.11,4.5-3.08,6.8C162.51,265,159.53,259.24,156,254c-.24-.38-.5-.75-.75-1.12a.43.43,0,0,0-.74.42c.28.63.57,1.25.88,1.88,2.8,5.86,6.28,11.52,9.48,17.18A172.26,172.26,0,0,0,159.08,289c-.83,2.85-1.57,5.73-2.27,8.63-4.1-4.4-7.95-9-12-13.46-.26-.27-.5-.54-.74-.8s-.51-.55-.77-.82-.51.07-.35.27L144,284.2c.21.29.43.56.65.84,3.78,4.84,7.79,9.5,11.49,14.4a1.29,1.29,0,0,0,.21.2,262.81,262.81,0,0,0-4.74,29.14q-.6,5.45-1.13,10.93c-2.89-2.33-5.61-4.81-8.28-7.38-.49-.46-1-.91-1.44-1.38A.39.39,0,0,0,140.2,331.49Z" style="fill:#263238"></path><path d="M179.38,353.23c0,.25,0,.49,0,.74,0,.94.07,1.87.12,2.77s.12,1.84.2,2.73c.1,1.16.23,2.28.37,3.35h10.58c1.12-4.9,2-10.91,3-16.76l.06-.42c.33-1.91.66-3.79,1-5.61,0-.29.1-.6.17-.89a58.65,58.65,0,0,1,3-10.79c1.76-4.16,5-11.46,8.41-19.47.08-.19.17-.39.25-.59,7.09-16.75,14.58-36.27,10-36.27-3,0-8.87,6.07-14.91,14.36-.14.19-.28.38-.41.58-.87,1.2-1.73,2.43-2.59,3.71a4.21,4.21,0,0,0-.28.41c-1.1,1.62-2.18,3.3-3.24,5a146.23,146.23,0,0,0-9.26,17.16l-.28.63a68.57,68.57,0,0,0-2.57,6.72c-.48,1.5-.91,3.13-1.29,4.87l-.14.61c-.21,1-.41,2-.59,3.05s-.29,1.78-.42,2.7c-.53,3.6-.89,7.39-1.08,11.17,0,.47,0,.93-.08,1.4,0,.14,0,.29,0,.44v0C179.34,347.72,179.33,350.54,179.38,353.23Z" style="fill:#455a64"></path><path d="M178.3,352.93c.38.33.75.68,1.11,1l.19.18.16.17c.45.43.89.88,1.33,1.33,1.32,1.35,2.63,2.74,4,4l.09.05c0,1-.08,2.07-.11,3.12h1.15c0-.5.06-1,.08-1.49.23-4,.51-8,.92-12a.26.26,0,0,0,.1,0c.65-.37,1.31-.71,2-1,1.46-.73,3-1.41,4.36-2.23.41-.23.81-.48,1.22-.74.08-.05,0-.16-.08-.13q-.54.24-1.08.45c-1.38.57-2.81,1.06-4.22,1.57-.71.25-1.43.51-2.14.79.16-1.55.35-3.09.55-4.64.81-.43,1.64-.84,2.47-1.23,1.46-.69,2.94-1.35,4.37-2.1l1.1-.62a.27.27,0,0,0-.21-.5,6,6,0,0,0-.72.23,45.69,45.69,0,0,0-4.35,1.79c-.82.37-1.64.75-2.47,1.11l.27-1.78c.06-.34.11-.68.17-1,.39-2.43.85-4.86,1.41-7.26.07-.37.16-.75.26-1.12a96.83,96.83,0,0,1,2.93-10.15,2.34,2.34,0,0,1,.09-.24c.9-2.54,1.89-5,3-7.48,3.31-1.5,6.72-2.87,10.14-4.11.26-.08.53-.19.79-.28a.22.22,0,0,0-.13-.42l-.41.11a83,83,0,0,0-9.77,3.27c5.54-12.36,12.82-23.73,19.4-35.56a.13.13,0,0,0-.22-.14c-3.92,5.62-7.69,11.46-11.19,17.47-.93-2.35-2.06-4.69-3.16-6.95-.1-.22-.21-.44-.31-.65s-.48-.07-.42.16.2.71.32,1.07a41.77,41.77,0,0,0,2.94,7.46c-.65,1.14-1.3,2.29-1.92,3.45-1.12-2.45-2.38-4.82-3.61-7.2-.16-.28-.3-.58-.45-.86s-.37-.05-.3.13l.47,1.14c1.06,2.62,2.12,5.25,3.34,7.8a161.64,161.64,0,0,0-8,16.95c-.6,1.5-1.18,3-1.72,4.53-.26.72-.5,1.43-.73,2.14a103.87,103.87,0,0,0-5.38-9.24c-.15-.23-.31-.48-.47-.71a.22.22,0,0,0-.37.22l.56,1.12c1.68,3.35,3.37,6.72,5.21,10-.38,1.2-.73,2.39-1.05,3.6-1.37-1.86-2.8-3.65-4.22-5.46-.12-.15-.34,0-.25.19,1.33,2.16,2.62,4.34,4.05,6.44a.6.6,0,0,1,.08.08c-.27,1-.51,2-.74,3.07-.11.45-.21.91-.31,1.37l-.1.47-.2-.24-.66-.82c-1.9-2.35-3.81-4.7-5.67-7.09-.22-.28-.45-.56-.66-.84l-.06,0c-.12-.06-.31.11-.21.25s.13.22.2.32c.19.31.39.61.59.92,1.56,2.4,3.17,4.75,4.9,7,.21.3.44.6.68.91l.48.63a.45.45,0,0,0,.35.19c-.35,1.73-.66,3.45-.94,5.19-.07.41-.13.83-.19,1.24a164.27,164.27,0,0,0-1.62,17,48.89,48.89,0,0,0-4.2-3.82c-.41-.33-.83-.65-1.26-1l-.24-.18-.21-.13c-.28-.21-.57-.4-.86-.59A.18.18,0,0,0,178.3,352.93Z" style="fill:#263238"></path></g><g id="freepik--Bird--inject-100"><path d="M198.67,383.65s-5.74,4-3.73,9.5c.21.57,0,.57-1-.36s-3.86-7.22.05-11.76a6.15,6.15,0,0,1,2.86.38A7.74,7.74,0,0,1,198.67,383.65Z" style="fill:#263238"></path><path d="M178.83,308.22s-2.28,15.58-3.33,18-4.2,7.29-4.31,8,1.4,7.35,2,8,3,1.75,3.61,2.86,13.71,23.21,14.7,24.5a15.27,15.27,0,0,1,2.16,7.23c.06,2.51-.17,4.61.35,5.77s3.15,3.5,3.39,4.61,1.92,11.55,3.32,13.77,4.82,2.39,6.08,3.85,5.53,6.24,6.81,7.41,6.07,7.87,9,9.51,7.29-3.15,7.29-5.25-4.2-5.31-7.17-8.46-6.36-7.64-6.36-7.64,10.15,5.3,13.07,6.7,13.41,2.69,15.46,3.45,11.25,5,13.47,4.6,3.68-7.05,3.15-8.57-5.31-1.93-7.52-3-11.38-2.75-13.54-3-11.43-4.08-11.43-4.08,12.07,1.22,15.81,1.22,9-.46,9.45-1.46.64-7-1.64-8.28-10.15.93-13.7.7-12.19-1.11-15-2.33-15.57-15.34-16.5-18-6-18.08-6-19.36-2-19-1.63-21.82c.18-1.5,4.18-7,7-12a49.45,49.45,0,0,0,3.66-8.44,24,24,0,0,0-4.94,3.23c-2,1.81-6.84,3.95-6.84,3.95l2.51-2.68s-4.33,2.36-5.82,3.9c-1,1.06-3.69,1.05-3.69,1.05a13,13,0,0,1-3.91-1.52c-1.22-.93-2.92-2.12-2.92-2.12l2.34,2.53a13,13,0,0,1-2.8-1.17A18.91,18.91,0,0,1,182,311l.73,1.69a4.1,4.1,0,0,1-1.91-1.47C180.21,310.25,178.83,308.22,178.83,308.22Z" style="fill:#FF81AE"></path><path d="M178.83,308.22s-2.28,15.58-3.33,18-4.2,7.29-4.31,8,1.4,7.35,2,8,3,1.75,3.61,2.86,13.71,23.21,14.7,24.5a15.27,15.27,0,0,1,2.16,7.23c.06,2.51-.17,4.61.35,5.77s3.15,3.5,3.39,4.61,1.92,11.55,3.32,13.77,4.82,2.39,6.08,3.85,5.53,6.24,6.81,7.41,6.07,7.87,9,9.51,7.29-3.15,7.29-5.25-4.2-5.31-7.17-8.46-6.36-7.64-6.36-7.64,10.15,5.3,13.07,6.7,13.41,2.69,15.46,3.45,11.25,5,13.47,4.6,3.68-7.05,3.15-8.57-5.31-1.93-7.52-3-11.38-2.75-13.54-3-11.43-4.08-11.43-4.08,12.07,1.22,15.81,1.22,9-.46,9.45-1.46.64-7-1.64-8.28-10.15.93-13.7.7-12.19-1.11-15-2.33-15.57-15.34-16.5-18-6-18.08-6-19.36-2-19-1.63-21.82c.18-1.5,4.18-7,7-12a49.45,49.45,0,0,0,3.66-8.44,24,24,0,0,0-4.94,3.23c-2,1.81-6.84,3.95-6.84,3.95l2.51-2.68s-4.33,2.36-5.82,3.9c-1,1.06-3.69,1.05-3.69,1.05a13,13,0,0,1-3.91-1.52c-1.22-.93-2.92-2.12-2.92-2.12l2.34,2.53a13,13,0,0,1-2.8-1.17A18.91,18.91,0,0,1,182,311l.73,1.69a4.1,4.1,0,0,1-1.91-1.47C180.21,310.25,178.83,308.22,178.83,308.22Z" style="opacity:0.1"></path><path d="M257.92,413.51s8.51-.34,10.63,5.83c.22.63.45.49.69-1s-1.59-8.86-8.74-10.24c0,0-2.06,1.18-2.49,2.23A7.6,7.6,0,0,0,257.92,413.51Z" style="fill:#263238"></path><path d="M223.58,420.42s7.37,3,6.73,9.49c-.07.67.2.63,1-.58s2.44-8.59-3.49-12.82a5.47,5.47,0,0,0-2.89.81A8.19,8.19,0,0,0,223.58,420.42Z" style="fill:#263238"></path><path d="M252.16,395.06s6.4-2.78,10,1.85c.38.47.5.28.22-1s-4.1-7.08-10-6.16a6.14,6.14,0,0,0-1.18,2.63A7.78,7.78,0,0,0,252.16,395.06Z" style="fill:#263238"></path><g style="opacity:0.2"><path d="M195.27,320a106,106,0,0,1-18.47.68c.06-.35.13-.71.19-1.07Z"></path><path d="M201.31,324.2c-.12.19-.22.37-.32.55-2.68-.22-4.24-.46-4.24-.46Z"></path><path d="M201.19,345.12a103.86,103.86,0,0,1-17.55-.75l17.45-.36C201.12,344.39,201.16,344.76,201.19,345.12Z"></path><path d="M210,401.18c-1.67.9-3.35,1.72-5,2.48l-.91-.38Z"></path><path d="M201.53,349.06c-4.54-.24-7.34-.66-7.34-.66l7.29-.15c0,.34,0,.58,0,.69A.57.57,0,0,0,201.53,349.06Z"></path><path d="M199.26,360.67A100.81,100.81,0,0,1,186.87,362l-.63-1.06Z"></path><path d="M199.91,327a.52.52,0,0,0,0,.11,2.76,2.76,0,0,0,0,.44,91.37,91.37,0,0,1-12.34-.75Z"></path><path d="M214.07,376.73A93.57,93.57,0,0,1,199.81,381l13.92-4.63C213.84,376.48,214,376.61,214.07,376.73Z"></path><path d="M221.63,414.21c-1.07,1.26-2.16,2.46-3.23,3.58l-.27-.31Z"></path><path d="M215.33,401a89.08,89.08,0,0,1-6.59,6l-.37-.41Z"></path><path d="M184.71,339.58a92.15,92.15,0,0,1-12.35.34c-.05-.18-.1-.36-.16-.54Z"></path><path d="M207,366.59a84.22,84.22,0,0,1-9.13-.7l8.94.14Z"></path><path d="M182.61,353.51a29.69,29.69,0,0,0,11.52.33Z"></path><path d="M208,369.15a28.08,28.08,0,0,1-6.43-.75l6.11.18A5.91,5.91,0,0,0,208,369.15Z"></path><path d="M200.66,385.07a27.46,27.46,0,0,1-3.35,1.79,2.48,2.48,0,0,0-.25-.43Z"></path><path d="M199.94,393.06a29.91,29.91,0,0,0,9.25-6.87Z"></path><path d="M236.94,399.51l.19.07c-.31.61-.51.95-.51.95Z"></path><path d="M240.08,389.54a29.55,29.55,0,0,1-2,7.77l-.48-.05Z"></path><path d="M225.8,386.89a28.15,28.15,0,0,1-2.09,4.8l1.56-4.94Z"></path><path d="M241.69,405.08a27.68,27.68,0,0,1-1.11,4.52l-.54-.1Z"></path><path d="M256,404.24a29.18,29.18,0,0,1-2.65,5.56l2.13-5.71Z"></path><path d="M235,398.8l.52.19a28.05,28.05,0,0,1-2.15,5Z"></path><path d="M236.83,393a27.53,27.53,0,0,1-.76,4.16l-.53-.05Z"></path><path d="M181.88,329.26a29.92,29.92,0,0,0,11.52.33Z"></path></g><path d="M210.5,306.65a49.45,49.45,0,0,1-3.66,8.44c-1.84,3.35-4.23,6.9-5.67,9.35-4.17,2.19-8.17,4.08-10.19,4.45-5.33,1-11.81,3.29-13.66,5.95a58.7,58.7,0,0,0-3.75,7.67,2.68,2.68,0,0,1-.34-.28c-.64-.64-2.16-7.29-2-8s3.26-5.55,4.31-8,3.33-18,3.33-18,1.38,2,2,3a4,4,0,0,0,1.9,1.46l-.7-1.65a18.18,18.18,0,0,0,2.43,2.77,13,13,0,0,0,2.8,1.17l-2.34-2.53s1.7,1.19,2.92,2.12a13,13,0,0,0,3.91,1.52c.1,0,2.67,0,3.69-1.05a33.91,33.91,0,0,1,5.81-3.89l-2.49,2.66c.29-.12,4.91-2.19,6.83-3.94A24,24,0,0,1,210.5,306.65Z" style="opacity:0.1"></path><path d="M318.46,183.27c2-2.17,13.25-11.43,15.88-12.62s13.56.25,18.55-.64S367,167.15,367,167.15l5.69-7a39.31,39.31,0,0,1-2.25-9.64c-.71-5.92,1.61-29.8-21.9-43s-56.37,4.9-68.74,12.27-26.3,12-32.51,13.08S182,121,153.82,129.27,73.89,169.48,62,192.75,41.88,273.6,57.59,317.26c5.29,14.7,52.1,22,77.65,16.73s62.36-16.11,76.55-23.26,72.57-59.52,85.8-83C307.06,210.87,315.5,186.54,318.46,183.27Z" style="fill:#FF81AE"></path><path d="M318.46,183.27c2-2.17,13.25-11.43,15.88-12.62s13.56.25,18.55-.64S367,167.15,367,167.15l5.69-7a39.31,39.31,0,0,1-2.25-9.64c-.71-5.92,1.61-29.8-21.9-43s-56.37,4.9-68.74,12.27-26.3,12-32.51,13.08S182,121,153.82,129.27,73.89,169.48,62,192.75,41.88,273.6,57.59,317.26c5.29,14.7,52.1,22,77.65,16.73s62.36-16.11,76.55-23.26,72.57-59.52,85.8-83C307.06,210.87,315.5,186.54,318.46,183.27Z" style="opacity:0.5"></path><g style="opacity:0.2"><path d="M159.43,210.85a120.43,120.43,0,0,0-31.92,32.66c-2.37,3.62-4.51,7.35-6.6,11.14,0,.09.08.18.14.09a185.47,185.47,0,0,1,13.75-18.2c2.41-2.9,4.91-5.73,7.51-8.46s5.28-5.52,8-8.16c3.08-2.95,6.25-5.85,9.54-8.57C160.23,211.07,159.78,210.6,159.43,210.85Z"></path><path d="M173.69,198.24c-2.2.73-4.31,1.6-6.43,2.53a56,56,0,0,0-6.31,3.12,56.12,56.12,0,0,0-16.2,14.72c-.05.07.06.16.12.1,1.65-1.62,3.27-3.25,5-4.76s3.54-3,5.38-4.38A110.35,110.35,0,0,1,166.81,202a60.07,60.07,0,0,1,7-3.33C174.06,198.56,173.92,198.16,173.69,198.24Z"></path><path d="M194.21,222.1c-1.56,2.08-3.15,4.18-4.9,6.09a72.7,72.7,0,0,1-5.4,5.28c-1.92,1.7-3.82,3.42-5.8,5s-4,3.09-6,4.59c-2.34,1.72-4.71,3.39-7.17,4.94a.11.11,0,0,0,.09.19,59.57,59.57,0,0,0,13.35-7.87,55.9,55.9,0,0,0,5.83-5.15c1.79-1.84,3.45-3.83,5.06-5.82a84.36,84.36,0,0,0,5.27-7.08A.19.19,0,0,0,194.21,222.1Z"></path><path d="M204.89,206.45c-2.93,3.09-6.09,5.94-9,9.1-1.41,1.56-2.81,3.13-4.21,4.69-.7.79-1.41,1.55-2.14,2.31s-1.5,1.69-2.32,2.47c-.07.07,0,.19.1.12.79-.81,1.67-1.52,2.48-2.3s1.51-1.44,2.28-2.15c1.57-1.44,3.12-2.91,4.63-4.41,3-3,5.63-6.37,8.4-9.61C205.28,206.53,205,206.31,204.89,206.45Z"></path><path d="M203,188.28a135.49,135.49,0,0,0-12.52,6.28,91.81,91.81,0,0,0-11.6,8.08c-1,.79-1.93,1.57-2.88,2.37-.57.48-1.12,1-1.7,1.44a10.12,10.12,0,0,0-1.39,1.22.08.08,0,0,0,.1.12,27.13,27.13,0,0,0,2.86-2c.94-.65,1.87-1.3,2.82-1.93,1.93-1.28,3.89-2.51,5.83-3.77,3.89-2.51,7.8-5,11.75-7.43q3.41-2.06,6.89-4C203.34,188.52,203.19,188.19,203,188.28Z"></path><path d="M169.15,295.77a79.5,79.5,0,0,1-9,10.41c-1.59,1.61-3.17,3.24-4.82,4.8s-3.43,3.06-5.17,4.56a67.5,67.5,0,0,1-6.31,4.7.08.08,0,0,0,.07.14c8.27-4.15,15.95-10,21.14-17.78,1.47-2.2,2.9-4.44,4.21-6.74A.08.08,0,0,0,169.15,295.77Z"></path><path d="M179.49,294.07a109.35,109.35,0,0,1-8.66,8c-1.48,1.24-3,2.47-4.43,3.74-.73.64-1.38,1.35-2.09,2a21.42,21.42,0,0,1-2.6,2c-.08.06,0,.2.07.14,1.65-1.12,3.47-2,5.12-3.06a36,36,0,0,0,4.74-3.8,78.21,78.21,0,0,0,8.05-8.91C179.78,294.12,179.59,294,179.49,294.07Z"></path><path d="M312.88,175.5c-1.15,1.26-2.5,2.33-3.66,3.59a22.83,22.83,0,0,0-3.05,4.13,34,34,0,0,0-2.05,4.66c-.63,1.6-1.3,3.19-1.93,4.79,0,0,0,.05.05,0a29.1,29.1,0,0,1,2.37-4.57c.9-1.39,1.94-2.66,2.89-4s1.83-2.77,2.69-4.18a30.35,30.35,0,0,1,2.81-4.28C313.08,175.55,313,175.42,312.88,175.5Z"></path><path d="M310.29,184c-1.09,2.33-2.56,4.49-3.77,6.76-1,1.93-2.13,3.82-3,5.82a64,64,0,0,1-2.91,5.94,32.42,32.42,0,0,1-4,5.55c-.05,0,0,.14.08.09a57.36,57.36,0,0,0,8.11-10.69,43.93,43.93,0,0,0,2.83-6.16c1-2.39,1.7-4.92,2.8-7.26C310.48,183.94,310.33,183.89,310.29,184Z"></path><path d="M304.21,203.73c-.77,1.42-1.46,2.89-2.27,4.3s-1.75,2.7-2.55,4.1a34.85,34.85,0,0,0-3.9,8.83.14.14,0,0,0,.27.09,88.6,88.6,0,0,1,4.94-8.55c.82-1.37,1.46-2.82,2.15-4.25a17,17,0,0,0,1.51-4.47A.08.08,0,0,0,304.21,203.73Z"></path><path d="M319.68,176.7c-3.5,2.17-6.47,5.66-7.11,9.83,0,.22.28.25.36.07a34.55,34.55,0,0,1,2.81-5.31,19,19,0,0,1,4-4.46C319.84,176.78,319.76,176.66,319.68,176.7Z"></path><path d="M300.43,216.61a30,30,0,0,1-2.34,4.72c-.85,1.46-1.63,2.95-2.53,4.38a47.2,47.2,0,0,1-6.12,8.34c-.11.12.06.31.18.19a43.37,43.37,0,0,0,6.95-7.87,27.65,27.65,0,0,0,2.44-4.59c.65-1.65,1.13-3.4,1.68-5.09A.14.14,0,0,0,300.43,216.61Z"></path><path d="M294.82,215a33.8,33.8,0,0,0-5.74,7.19c-1.76,2.91-3.35,5.91-5,8.88a.25.25,0,0,0,.41.28c1.87-2.74,3.81-5.42,5.58-8.22a41.71,41.71,0,0,0,2.32-4.06,13.7,13.7,0,0,1,2.54-4C295,215.06,294.89,214.94,294.82,215Z"></path><path d="M290.79,189.74c-.85,1.48-1.77,2.9-2.7,4.34s-1.69,2.79-2.59,4.15a79.1,79.1,0,0,1-6,8c-4.66,5.42-10.17,9.92-15.47,14.69-3.15,2.83-6.27,5.7-9.42,8.52a.06.06,0,0,0,.08.08c5.86-4.7,11.76-9.36,17.57-14.13a63,63,0,0,0,7.59-7.11,55.37,55.37,0,0,0,5.78-8.37q1.41-2.4,2.74-4.85c.93-1.7,1.69-3.49,2.6-5.21C291,189.74,290.86,189.61,290.79,189.74Z"></path><path d="M306.7,109c-2.19.32-4.36.84-6.53,1.3s-4.32.81-6.49,1.19c-4.39.79-8.46,2.67-12.56,4.34-.19.08-.08.41.12.35,4.2-1.43,8.61-2.08,12.8-3.51,2.1-.72,4.2-1.38,6.35-1.93,1.06-.28,2.14-.53,3.21-.8s2.07-.61,3.14-.78C306.84,109.17,306.8,109,306.7,109Z"></path><path d="M297.65,115c-1.3.24-2.6.41-3.9.62s-2.58.5-3.87.74c-2.5.46-5,.91-7.46,1.55a58.64,58.64,0,0,0-7.22,2.38,23.13,23.13,0,0,0-6.25,3.21c-.17.13,0,.43.22.32a20.73,20.73,0,0,1,6.72-2.28c2.44-.55,4.86-1.22,7.25-2,4.84-1.47,9.61-3.24,14.54-4.44C297.77,115.17,297.75,115,297.65,115Z"></path><path d="M353,108.94a45.16,45.16,0,0,0-5.81-5.42,46.6,46.6,0,0,0-6.57-4.11,50.94,50.94,0,0,0-8.17-3.34c-.16-.06-.24.18-.08.25a61.25,61.25,0,0,1,13.11,8,72,72,0,0,1,11,10.41,43.84,43.84,0,0,1,5,7.17c0,.08.19,0,.14-.07A56.83,56.83,0,0,0,353,108.94Z"></path><path d="M355.67,115.68a129.12,129.12,0,0,0-9.95-9.48,37.64,37.64,0,0,0-11-6.43,32.9,32.9,0,0,0-6.75-1.7c-.06,0-.08.09,0,.11a32.79,32.79,0,0,1,5.77,1.91,50.47,50.47,0,0,1,5.47,3,93.82,93.82,0,0,1,10.48,7.67c2,1.67,4,3.33,5.93,5.07C355.63,115.85,355.75,115.75,355.67,115.68Z"></path><path d="M346.47,110.69a56.76,56.76,0,0,0-10.64-6.57,46.61,46.61,0,0,0-11.93-3.68,69.31,69.31,0,0,0-7.19-.79c-.12,0-.13.18,0,.2a58.81,58.81,0,0,1,12.14,2.68,72,72,0,0,1,11.46,4.74,61.43,61.43,0,0,1,6.08,3.55A.08.08,0,0,0,346.47,110.69Z"></path><path d="M338.46,109.42a51.48,51.48,0,0,0-27.7-6.24,46.43,46.43,0,0,0-8.1,1.51.24.24,0,0,0,.09.47,57.19,57.19,0,0,1,7.15-.63c2.36-.12,4.73-.11,7.09,0a56.69,56.69,0,0,1,13.88,2.19,54.52,54.52,0,0,1,7.52,2.84C338.47,109.59,338.53,109.46,338.46,109.42Z"></path><path d="M352.72,117.72a21.57,21.57,0,0,0-4.85-4.78,18.08,18.08,0,0,0-2.89-1.67,18.7,18.7,0,0,0-3.24-1.25c-.08,0-.16.11-.07.16,1,.52,2,1,2.9,1.58s1.86,1.21,2.76,1.85a40.13,40.13,0,0,1,5.13,4.35A.18.18,0,0,0,352.72,117.72Z"></path><path d="M361.21,112.76a28.68,28.68,0,0,0-3.14-5.48,48.57,48.57,0,0,0-4.3-4.88c-.07-.07-.19,0-.12.1a35.34,35.34,0,0,1,6.54,10.66,42.57,42.57,0,0,1,3.24,12c0,.12.23.11.23,0A30,30,0,0,0,361.21,112.76Z"></path><path d="M364.91,114.12c0-.09-.18-.06-.16,0,1.2,4.4.81,9,0,13.41,0,.2.27.25.34.07C366.77,123.27,366.3,118.48,364.91,114.12Z"></path><path d="M359.53,122.94a14.27,14.27,0,0,0-3.28-4.37.1.1,0,0,0-.15.12c.94,1.53,2,3,2.83,4.55a32.47,32.47,0,0,1,2.17,5.08.08.08,0,0,0,.15,0A17.91,17.91,0,0,0,359.53,122.94Z"></path><path d="M346.32,117.15a53.54,53.54,0,0,0-7.9-5.4,14.46,14.46,0,0,0-8.32-1.35c-.09,0-.08.16,0,.16a21.28,21.28,0,0,1,8.2,2.15,44.88,44.88,0,0,1,7.92,4.57A.08.08,0,0,0,346.32,117.15Z"></path><path d="M315.5,114.53c-2,.25-4.06.52-6.09.88s-4,.69-6,1.21a59,59,0,0,0-5.67,1.75c-1,.36-1.85.84-2.78,1.28s-1.87.83-2.79,1.28c-2.09,1-4.12,2.16-6.14,3.3,0,0,0,.08,0,.06,1.79-.93,3.62-1.74,5.49-2.5.91-.38,1.83-.74,2.75-1.1s2-.61,3-1c3.8-1.29,7.6-2.69,11.5-3.68,2.21-.56,4.46-1,6.71-1.36A.08.08,0,0,0,315.5,114.53Z"></path><path d="M280.11,123.25c-1.24.39-2.45.87-3.7,1.25s-2.49.73-3.75,1.06c-2.52.66-5,1.37-7.55,2-5.07,1.29-10.14,2.48-15.25,3.58-.2,0-.13.31.06.3A85,85,0,0,0,273.71,126c2.14-.85,4.35-1.61,6.45-2.57C280.24,123.36,280.19,123.22,280.11,123.25Z"></path><path d="M280.45,126.11c-3.17,1.6-6.74,2.28-10.11,3.37a28.49,28.49,0,0,0-9.06,4.63c-.19.16,0,.5.24.36,2.92-1.93,6.26-3,9.55-4.1a56.25,56.25,0,0,0,9.45-4.13C280.61,126.2,280.54,126.06,280.45,126.11Z"></path><path d="M324.23,111.15a39.38,39.38,0,0,0-9.82-.48,31.57,31.57,0,0,0-4.82.75,23.48,23.48,0,0,0-4.69,1.49c-.08,0,0,.16.06.14,1.6-.27,3.16-.73,4.76-1s3.14-.48,4.73-.63a48.23,48.23,0,0,1,9.76,0C324.41,111.47,324.42,111.18,324.23,111.15Z"></path><path d="M328.11,107.52a24.63,24.63,0,0,0-12.52-.75c-.1,0-.06.16,0,.15a34.3,34.3,0,0,1,12.44.71A.06.06,0,1,0,328.11,107.52Z"></path><path d="M322.56,121.12a56.31,56.31,0,0,0-5.76.73,32.32,32.32,0,0,0-5.46,1.62,33.82,33.82,0,0,0-5.08,2.52,36.72,36.72,0,0,0-4.72,3.27.11.11,0,0,0,.12.17c1.64-1,3.24-1.9,5-2.71s3.4-1.51,5.13-2.18,3.55-1.29,5.34-1.85a42,42,0,0,1,5.51-1.41C322.7,121.26,322.66,121.11,322.56,121.12Z"></path><path d="M311,127.82a43.44,43.44,0,0,0-10.83,6.05,33.33,33.33,0,0,0-4.08,4.15,31.5,31.5,0,0,0-3.29,4.65.16.16,0,0,0,.27.18,44.28,44.28,0,0,1,3.7-4.39,38.89,38.89,0,0,1,4.22-3.68A114.2,114.2,0,0,1,311.11,128,.08.08,0,0,0,311,127.82Z"></path><path d="M301.38,147.38a47.88,47.88,0,0,0-3.62,6.19c-.83,1.81-1.48,3.7-2.15,5.58s-1.28,3.72-2.09,5.52a15.12,15.12,0,0,1-3.55,5c-.07.06,0,.18.1.11,4.92-4,6.65-10.49,8.65-16.19a33.68,33.68,0,0,1,2.79-6.07C301.56,147.38,301.43,147.3,301.38,147.38Z"></path><path d="M295.76,166.07a40.52,40.52,0,0,1-8,9c-.31.28.1.72.42.48a23,23,0,0,0,4.32-4.28,47.6,47.6,0,0,0,3.43-5.12C296,166.07,295.82,166,295.76,166.07Z"></path><path d="M294,180.48a61.09,61.09,0,0,1-4.59,7,82.91,82.91,0,0,1-5.16,6.78c-.17.2.08.51.29.32a39.51,39.51,0,0,0,5.7-6.42,46.67,46.67,0,0,0,3.9-7.61C294.19,180.47,294.06,180.4,294,180.48Z"></path><path d="M283.65,135.63a60.7,60.7,0,0,0-10.8,4.24,40.68,40.68,0,0,0-9.52,6.74c-.32.31.11.75.46.51a103.23,103.23,0,0,1,19.91-11.34C283.78,135.75,283.74,135.61,283.65,135.63Z"></path><path d="M269.67,146.62c-1,.51-2,1.16-2.94,1.75s-2,1.21-3,1.84c-1.93,1.24-3.72,2.64-5.57,4-.24.17,0,.58.3.42,1.93-1.21,3.9-2.35,5.77-3.69.92-.66,1.84-1.35,2.74-2s1.93-1.38,2.82-2.15C269.82,146.69,269.75,146.57,269.67,146.62Z"></path><path d="M253.76,133c-4.63.18-9.27-1.1-13.71-2.27s-8.88-2.54-13.46-2.8a31.9,31.9,0,0,0-7.56.43.07.07,0,1,0,0,.14c4.62-.74,9.22.32,13.69,1.48s8.89,2.57,13.48,3.17a31.18,31.18,0,0,0,7.54,0C253.86,133.16,253.85,133,253.76,133Z"></path><path d="M231.54,134.22c-2.42-.54-4.84-1-7.26-1.58s-4.71-1.07-7.08-1.47a60.6,60.6,0,0,0-14.16-1,43.71,43.71,0,0,0-7.87,1.16.27.27,0,0,0,.11.52,46.8,46.8,0,0,1,13.93-.34c4.7.46,9.38,1.15,14.06,1.78q4.11.56,8.24,1.08C231.6,134.38,231.63,134.23,231.54,134.22Z"></path><path d="M208,135c-3.22-.13-6.44-.35-9.67-.22a89.68,89.68,0,0,0-9.69.89,100.76,100.76,0,0,0-18.67,4.8,84,84,0,0,0-10.11,4.3c-.15.08,0,.29.12.23a124.36,124.36,0,0,1,18.35-6A157.12,157.12,0,0,1,197,135.91a106.76,106.76,0,0,1,11-.75C208.06,135.16,208.07,135,208,135Z"></path><path d="M177.52,129c-3.06-.06-6.13-.27-9.19-.39s-6.23,0-9.34.13a75.76,75.76,0,0,0-18.06,2.92,54,54,0,0,0-9.37,3.88.28.28,0,0,0,.25.5c11-4.92,23.47-5.89,35.39-6.45,3.43-.16,6.87-.42,10.31-.44C177.61,129.19,177.62,129,177.52,129Z"></path><path d="M152.8,133.82c-1.21.21-2.44.3-3.65.47s-2.41.41-3.61.69c-2.34.56-4.66,1.18-6.94,1.93a58.7,58.7,0,0,0-6.52,2.55,18.7,18.7,0,0,0-5.5,3.56c-.12.12,0,.37.17.26a27.78,27.78,0,0,1,2.86-1.72c.95-.46,1.92-.86,2.91-1.25,2.2-.85,4.42-1.64,6.65-2.4s4.5-1.49,6.79-2.1,4.56-1.43,6.87-1.83A.08.08,0,0,0,152.8,133.82Z"></path><path d="M190.47,132.3c-3.85.42-7.72.66-11.54,1.42a114.59,114.59,0,0,0-11.23,3c-.17.05-.13.33.06.28,3.75-.92,7.56-1.64,11.35-2.37s7.56-1.67,11.4-2.16C190.61,132.44,190.57,132.29,190.47,132.3Z"></path><path d="M269.44,134.66a63.38,63.38,0,0,1-9.64,3.91,98.78,98.78,0,0,1-10,2.35c-6.75,1.29-13.55,2.5-20.16,4.37a77.15,77.15,0,0,0-10.86,3.79c-.11,0,0,.19.07.15,6.48-2.77,13.35-4,20.24-5.2s13.5-2.33,20-4.54a48,48,0,0,0,10.43-4.7C269.59,134.74,269.53,134.61,269.44,134.66Z"></path><path d="M229.88,149.38c-2.36.76-4.77,1.31-7.11,2.15s-4.73,1.75-7,2.77a86.37,86.37,0,0,0-13.33,7.17,63.31,63.31,0,0,0-6.6,5.05c-.1.08,0,.22.13.15a69.61,69.61,0,0,1,12.62-7.91c4.43-2.25,9.08-4,13.67-5.88,2.6-1.06,5.11-2.3,7.71-3.35C230,149.49,230,149.35,229.88,149.38Z"></path><path d="M266.41,204.5a251.69,251.69,0,0,1-26.1,27.35c-2.63,2.39-5.31,4.7-8.07,6.94-.18.14.06.38.24.26a125.84,125.84,0,0,0,27.71-25.81c2.26-2.79,4.37-5.66,6.38-8.63C266.65,204.5,266.49,204.41,266.41,204.5Z"></path><path d="M267.26,160.58a116.18,116.18,0,0,0-14.18,5.4,113.2,113.2,0,0,0-13.38,7.41c-1.15.73-2.28,1.51-3.38,2.31-.6.43-1.17.89-1.77,1.31-.29.2-.59.39-.86.61s-.53.54-.86.77c-.07.05,0,.18.09.13.52-.34,1.11-.54,1.64-.88s1.06-.63,1.6-.93l3.36-1.87c2.21-1.23,4.41-2.47,6.64-3.67s4.42-2.3,6.66-3.4,4.51-2.29,6.81-3.34c2.58-1.17,5.16-2.34,7.77-3.44A.22.22,0,0,0,267.26,160.58Z"></path><path d="M274.67,154.87a43.27,43.27,0,0,0-9.54,2.63,42.6,42.6,0,0,0-8.74,4.59.08.08,0,0,0,.09.13,76.8,76.8,0,0,1,8.75-4.26A74.63,74.63,0,0,1,274.7,155,.08.08,0,0,0,274.67,154.87Z"></path><path d="M286.93,235.43c-1.15,1.8-2,3.79-3.07,5.65s-2.08,3.76-3.14,5.64c-2.12,3.77-4.4,7.41-6.76,11-1.34,2.06-2.71,4.08-4.14,6.08-.16.22.18.42.34.23A98.25,98.25,0,0,0,278,253.59a86.33,86.33,0,0,0,6.35-11.29,46.91,46.91,0,0,0,2.74-6.8C287.09,235.42,287,235.35,286.93,235.43Z"></path><path d="M276.47,247.27a25.68,25.68,0,0,1-1.54,2.44c-.53.83-1.11,1.65-1.69,2.45-1.18,1.6-2.46,3.11-3.78,4.58-2.62,2.93-5.49,5.59-8.34,8.29-1.64,1.54-3.3,3.07-5,4.57-.27.23.09.63.37.41,3.1-2.51,6.32-4.92,9.19-7.7a54.67,54.67,0,0,0,7.69-8.95c.63-.94,1.22-1.9,1.77-2.9s.94-2.07,1.45-3.1C276.65,247.27,276.52,247.18,276.47,247.27Z"></path><path d="M278.55,230.6c-1,2-2.2,3.78-3.31,5.67s-2.27,3.68-3.51,5.44a116,116,0,0,1-8.13,10.35q-2.48,2.79-5.14,5.39a.23.23,0,0,0,.31.35,77,77,0,0,0,9.3-9.47,79.13,79.13,0,0,0,7.44-11c1.23-2.15,2.14-4.43,3.18-6.67C278.72,230.59,278.59,230.52,278.55,230.6Z"></path><path d="M262.52,258.72A273.18,273.18,0,0,1,243,279.42q-2.94,2.76-6,5.46c-.18.16.07.43.26.28a123.13,123.13,0,0,0,20.46-19.84c1.71-2.12,3.36-4.29,4.93-6.52C262.71,258.72,262.58,258.64,262.52,258.72Z"></path><path d="M248.06,264.85c-2.67,2.6-5.27,5.27-8,7.82s-5.64,4.91-8.54,7.27a186.3,186.3,0,0,1-18.13,13.23c-3.56,2.24-7.2,4.39-10.94,6.33a.4.4,0,0,0,.36.71A143.76,143.76,0,0,0,222.5,289.1a107.27,107.27,0,0,0,17.29-14.61,99.9,99.9,0,0,0,8.4-9.53C248.25,264.88,248.13,264.78,248.06,264.85Z"></path><path d="M218.5,294.8a62.46,62.46,0,0,1-13.32,8.43,89.31,89.31,0,0,1-15.13,5.23c-3,.77-6,1.52-8.92,2.27a.33.33,0,0,0,.13.65c10.67-1.84,21.62-4.08,30.63-10.43a40.51,40.51,0,0,0,6.71-6A.07.07,0,1,0,218.5,294.8Z"></path><path d="M230.69,286.47c-.87.79-1.62,1.73-2.42,2.59s-1.59,1.65-2.41,2.46q-2.51,2.46-5.12,4.81c-3.5,3.14-7.15,6.14-10.85,9-2.11,1.65-4.22,3.31-6.35,4.92-.14.11,0,.37.18.26,7.92-5.24,16.11-10.35,22.48-17.52.85-.95,1.67-1.93,2.45-2.94a21,21,0,0,0,2.34-3.36C231.08,286.54,230.86,286.29,230.69,286.47Z"></path><path d="M236,288.47c-1.11,1.46-2.2,2.93-3.41,4.33s-2.4,2.63-3.63,3.91c-2.51,2.6-5,5.18-7.78,7.53-1.55,1.33-3.15,2.58-4.82,3.76-.28.19.06.69.34.5a80,80,0,0,0,8.66-6.66,50.68,50.68,0,0,0,7.23-8c1.23-1.7,2.47-3.44,3.54-5.24A.08.08,0,0,0,236,288.47Z"></path><path d="M254.82,274c-1.3,1.41-2.55,2.87-3.86,4.27s-2.74,2.81-4.17,4.15c-2.82,2.68-5.69,5.3-8.7,7.78-.3.25.09.66.4.45a59.59,59.59,0,0,0,9-7.56c1.32-1.36,2.55-2.78,3.77-4.22a44.88,44.88,0,0,0,3.62-4.76C255,274.07,254.88,274,254.82,274Z"></path><path d="M192,312.31c-7.18,3.83-15.39,4.28-23.32,5.22-2.26.27-4.52.6-6.76,1.05a.38.38,0,0,0,.15.74c8-1.33,16.27-1,23.94-3.87a43.32,43.32,0,0,0,6.07-3C192.15,312.4,192.08,312.26,192,312.31Z"></path><path d="M201.9,286c-4.2,3.8-8.34,7.64-12.73,11.22-2.18,1.77-4.38,3.53-6.65,5.18a70.65,70.65,0,0,1-7,4.65,64.14,64.14,0,0,1-8.57,3.79c-.1,0,0,.18,0,.16a37.37,37.37,0,0,0,7.91-2.79,65.27,65.27,0,0,0,7.35-3.89,80.73,80.73,0,0,0,13.12-10.93c2.34-2.29,4.58-4.66,6.8-7.06C202.38,286.13,202.11,285.81,201.9,286Z"></path><path d="M219.31,275a98.81,98.81,0,0,1-8.41,8.59c-1.43,1.32-2.85,2.63-4.31,3.92s-3.07,2.6-4.54,4a.08.08,0,0,0,.08.13,39.32,39.32,0,0,0,4.86-3.32,54.07,54.07,0,0,0,4.67-4,84.62,84.62,0,0,0,7.94-9.08C219.73,275,219.45,274.87,219.31,275Z"></path><path d="M234.45,240.58c-2.82,2.51-5.8,4.83-8.81,7.09a105.54,105.54,0,0,1-9.45,6.37c-1.86,1.1-3.73,2.21-5.61,3.28a.11.11,0,0,0,.1.2,65.5,65.5,0,0,0,10.2-5.33,74.53,74.53,0,0,0,9.13-6.66c1.67-1.44,3.25-3,4.79-4.56C235,240.74,234.7,240.36,234.45,240.58Z"></path><path d="M178.13,154.18c-3.2,1-6.4,2.13-9.5,3.44a87.52,87.52,0,0,0-8.91,4.51c-5.86,3.34-11.24,7.56-16.58,11.67-1.5,1.17-3,2.33-4.49,3.53a52.81,52.81,0,0,0-4.34,3.69c-.06.06,0,.18.09.13,1.39-.79,2.69-1.8,4-2.73s2.73-2,4.1-2.94c2.74-2,5.52-3.91,8.36-5.75q8.38-5.46,17.19-10.25a74.62,74.62,0,0,1,10.26-4.77C178.61,154.6,178.43,154.08,178.13,154.18Z"></path><path d="M194.44,153.39c-9.4,1.44-17.66,6.23-25.72,11l-3.64,2.14c-1.13.68-2.34,1.33-3.4,2.11-.11.08,0,.23.12.18,1.1-.43,2.18-1,3.24-1.56s2.14-1.08,3.2-1.63c2.13-1.1,4.27-2.19,6.39-3.31a121.62,121.62,0,0,1,12.45-6,44.7,44.7,0,0,1,7.5-2.27A.35.35,0,0,0,194.44,153.39Z"></path><path d="M146.53,185.17A122,122,0,0,0,131,196.41a106.72,106.72,0,0,0-13.25,13.72c-1.11,1.39-2.16,2.85-3.18,4.31a36.78,36.78,0,0,0-3.06,4.67c0,.07.05.17.12.1,1.07-1.12,2-2.41,3-3.6s2.08-2.46,3.15-3.66c2.12-2.37,4.23-4.75,6.44-7A168.42,168.42,0,0,1,138,192.08c2.79-2.31,5.68-4.55,8.68-6.57C146.9,185.38,146.74,185,146.53,185.17Z"></path><path d="M120.39,202.27a54,54,0,0,0-16.26,18.1c-.52,1-1,2-1.42,3a14.76,14.76,0,0,0-1.13,3.12h0v0h0a.11.11,0,0,0,.2.07,23.27,23.27,0,0,0,1.43-2.65c.47-.86,1-1.69,1.46-2.53,1-1.73,2.06-3.42,3.17-5.07a60.67,60.67,0,0,1,7.68-9.39,58.43,58.43,0,0,1,5.08-4.49C120.77,202.38,120.55,202.15,120.39,202.27Z"></path><path d="M112.54,223.39a107.32,107.32,0,0,0-6.42,9.15,73.57,73.57,0,0,0-5.1,10c-.82,2-1.5,3.94-2.18,6a.09.09,0,0,0,.17.06c1-2.2,2.19-4.35,3.29-6.51s2.19-4.14,3.33-6.19c2.31-4.12,4.62-8.27,7.31-12.16C113.12,223.4,112.73,223.15,112.54,223.39Z"></path><path d="M92.88,167.51a86.75,86.75,0,0,0-11.16,6.39A92.07,92.07,0,0,0,71.64,182a83.11,83.11,0,0,0-16,20.35c-1.18,2.08-2.32,4.19-3.33,6.36a36.65,36.65,0,0,0-2.67,6.8c0,.13.14.24.22.11,1.08-1.84,1.88-3.84,2.89-5.72s2-3.68,3-5.46A96.77,96.77,0,0,1,63.22,194a107.36,107.36,0,0,1,18-17.87,96.21,96.21,0,0,1,12-8.05A.29.29,0,0,0,92.88,167.51Z"></path><path d="M112.42,153.57a59.4,59.4,0,0,0-8.15,2.49c-2.74,1-5.42,2.13-8,3.42a84.9,84.9,0,0,0-14.54,9.31,57.9,57.9,0,0,0-7.28,6.45.13.13,0,0,0,.17.19c2.29-1.75,4.49-3.61,6.81-5.32s4.65-3.24,7.07-4.7a138.43,138.43,0,0,1,15.1-7.84c3-1.32,6-2.37,9-3.54C112.84,153.93,112.68,153.51,112.42,153.57Z"></path><path d="M128.51,157.74a79.61,79.61,0,0,0-13.87,6.73,65.24,65.24,0,0,0-6.34,4.29c-2,1.58-4,3.25-5.91,4.94A72,72,0,0,0,96,179.76c-.08.1,0,.32.13.26.31-.1.61-.22.93-.31.09,0,.07-.17,0-.15l-.43.08c1.79-1.59,3.56-3.21,5.39-4.76a64.68,64.68,0,0,1,6.17-4.61c4.25-2.84,8.49-5.67,12.94-8.18,2.5-1.41,5.07-2.68,7.63-4C129,158,128.77,157.64,128.51,157.74Z"></path><path d="M106.46,176.31A76.49,76.49,0,0,0,98,183.16a66.14,66.14,0,0,0-7.12,8.11,58,58,0,0,0-3.39,5.25.08.08,0,0,0,.13.09c1.36-1.86,2.85-3.64,4.32-5.41s3-3.55,4.68-5.22a88.81,88.81,0,0,1,10.23-9.25C107.13,176.51,106.75,176.11,106.46,176.31Z"></path><path d="M69.08,201.23A86.78,86.78,0,0,0,54.32,220a89.19,89.19,0,0,0-9.19,22.11,97.35,97.35,0,0,0-2.35,13.22c0,.1.14.11.16,0a95.75,95.75,0,0,1,2.81-11.55,104.14,104.14,0,0,1,4-11.06,109.21,109.21,0,0,1,11.49-20.58,101.51,101.51,0,0,1,8.36-10.36C69.91,201.45,69.44,200.89,69.08,201.23Z"></path><path d="M58.9,223.47A66.52,66.52,0,0,0,51.25,237a56.62,56.62,0,0,0-3.89,15.1,47.57,47.57,0,0,0-.1,8.85c0,.53.83.62.85.06.09-2.57.4-5.13.72-7.68s.68-5,1.23-7.51a76.48,76.48,0,0,1,2.08-7.43,61.27,61.27,0,0,1,2.71-7.09A70.83,70.83,0,0,1,59,223.55C59.08,223.47,59,223.39,58.9,223.47Z"></path><path d="M55.49,252.23a29.32,29.32,0,0,0-2.24,4.94,41.3,41.3,0,0,0-1.67,5.34,40,40,0,0,0-1.23,11.17,25.87,25.87,0,0,0,1,6.25c.12.41.82.45.81-.05-.06-3.61-.27-7.22-.06-10.83.1-1.82.26-3.65.52-5.46s.72-3.57,1.1-5.35c.44-2.05,1.3-4,1.92-5.94A.08.08,0,0,0,55.49,252.23Z"></path><path d="M90.18,200.26a103.26,103.26,0,0,0-12.51,16.56,87.29,87.29,0,0,0-8.52,18.87c-.6,1.87-1.14,3.75-1.6,5.65a40.78,40.78,0,0,0-1.14,5.7.08.08,0,0,0,.15,0c.59-1.61,1-3.26,1.55-4.89s1.08-3.25,1.66-4.86c1.18-3.22,2.51-6.39,4-9.5A121.09,121.09,0,0,1,83.78,209.9a108.54,108.54,0,0,1,7-9.11C91.08,200.44,90.49,199.92,90.18,200.26Z"></path><path d="M73.11,237.62c-.84,3.24-1.81,6.44-2.55,9.7s-1.52,6.33-2,9.56a71.65,71.65,0,0,0-.37,19.62,49.87,49.87,0,0,0,2.38,10.65c.11.3.59.12.53-.19a81.19,81.19,0,0,1-1.49-9.58,83.34,83.34,0,0,1-.21-9.48c.08-3.26.39-6.5.73-9.74.16-1.55.34-3.1.53-4.65s.34-3.25.59-4.86c.28-1.82.58-3.65,1-5.45s.65-3.7,1.07-5.53C73.28,237.58,73.14,237.53,73.11,237.62Z"></path><path d="M69.43,294.13c-.66-1.95-1.27-3.92-1.81-5.91-1.07-3.91-2-7.86-2.82-11.83-.25-1.12-.45-2.25-.62-3.39a7.19,7.19,0,0,1,0-3.45.08.08,0,1,0-.15-.05,5.54,5.54,0,0,0-.26,2.46c.05,1,.13,2,.21,3a57.47,57.47,0,0,0,.76,6.41,65.63,65.63,0,0,0,3.65,12.1,70.25,70.25,0,0,0,3,6.61.19.19,0,0,0,.33-.17C70.91,298,70.1,296.11,69.43,294.13Z"></path><path d="M60.89,255.47a122.49,122.49,0,0,0-2.4,14.75,55.18,55.18,0,0,0-.15,7.5c.09,2.46.22,4.94.54,7.38.35,2.83.84,5.63,1.39,8.43a.12.12,0,0,0,.24,0,107.13,107.13,0,0,1-1-14.86c0-4.92,0-9.87.45-14.77.23-2.81.61-5.57,1.1-8.35C61.06,255.41,60.91,255.38,60.89,255.47Z"></path><path d="M269.07,182.9c-4.12,3.79-8.4,7.44-12.71,11-2.14,1.78-4.29,3.56-6.45,5.31s-4.24,3.6-6.38,5.37c-2.44,2-4.84,4.08-7.39,6-.07.05,0,.17.09.12,4.63-3.13,9.47-6,13.88-9.47s8.71-7.08,12.78-10.93c2.31-2.19,4.56-4.43,6.81-6.68C270.12,183.18,269.52,182.49,269.07,182.9Z"></path><path d="M247.14,206.52a219.14,219.14,0,0,1-19.65,13.91c-1.91,1.22-3.83,2.41-5.75,3.62a.08.08,0,0,0,.07.14,82.63,82.63,0,0,0,20.45-12.81c1.76-1.47,3.48-3,5.16-4.55A.21.21,0,0,0,247.14,206.52Z"></path><path d="M207.3,265.1c-3,2.91-6.19,5.68-9.39,8.37s-6.4,5.32-9.69,7.84c-.93.71-1.85,1.43-2.76,2.15a26.65,26.65,0,0,0-2.82,2.24.09.09,0,0,0,.1.15,16.15,16.15,0,0,0,2.78-1.49c.91-.54,1.83-1,2.7-1.64,1.7-1.16,3.42-2.29,5.06-3.55a97.28,97.28,0,0,0,9.51-8.4c1.69-1.7,3.27-3.5,4.84-5.3C207.84,265.24,207.53,264.87,207.3,265.1Z"></path><path d="M183.85,276.56a94.74,94.74,0,0,1-6.88,6.86c-1.18,1.09-2.35,2.19-3.55,3.25s-2.56,2.05-3.74,3.18a.08.08,0,0,0,.09.13,29.8,29.8,0,0,0,3.91-2.69,47.91,47.91,0,0,0,3.89-3.2,68.63,68.63,0,0,0,6.59-7.26C184.3,276.65,184,276.39,183.85,276.56Z"></path><path d="M121.25,322a50.59,50.59,0,0,1-12.59-3.29,48.91,48.91,0,0,1-11.35-5.82,59.7,59.7,0,0,1-5.83-4.68.08.08,0,0,0-.12.11,37.39,37.39,0,0,0,10,8.62,43.23,43.23,0,0,0,6,3,32.57,32.57,0,0,0,6.41,1.83c1.18.21,2.44.32,3.63.42s2.58.16,3.87.2A.21.21,0,0,0,121.25,322Z"></path><path d="M135,323.57a14.14,14.14,0,0,0-3.8-2.5,23.15,23.15,0,0,0-4.39-1.69,57.91,57.91,0,0,1-8.91-2.8,25.55,25.55,0,0,1-2.31-1.23c-.76-.47-1.48-1-2.25-1.48a.07.07,0,0,0-.1.11,11.2,11.2,0,0,0,3.52,2.69,40.64,40.64,0,0,0,4.16,2c2.89,1.23,5.82,2.35,8.75,3.47.81.32,1.65.6,2.44,1s1.61.79,2.44,1.14A.43.43,0,0,0,135,323.57Z"></path><path d="M87.85,248.88a25.88,25.88,0,0,0-1.75,4.79c-.49,1.69-.95,3.38-1.33,5.1A54.46,54.46,0,0,0,83.39,269a50.27,50.27,0,0,0,9.49,31c.24.33.79-.05.59-.4a59.79,59.79,0,0,1-4.42-9.24,68.47,68.47,0,0,1-2.81-9.73,66.58,66.58,0,0,1-1-20.31,39.65,39.65,0,0,1,1-5.82c.48-1.87,1.22-3.66,1.7-5.53C88,248.87,87.9,248.8,87.85,248.88Z"></path><path d="M105.87,309.24a54.56,54.56,0,0,1-4.33-4.79,42,42,0,0,1-3.45-5.28c-1-1.8-2.06-3.64-3-5.52a21.83,21.83,0,0,1-1.15-3c-.17-.53-.29-1.08-.45-1.61s-.59-1.39-.19-1.93c.06-.08-.07-.17-.13-.09-.39.51-.17,1.31-.09,1.89a21.94,21.94,0,0,0,.57,2.65,43,43,0,0,0,1.52,5.12,27.49,27.49,0,0,0,5.92,8.87,30.43,30.43,0,0,0,4.55,3.93C105.82,309.52,106,309.34,105.87,309.24Z"></path><path d="M54.61,282a45.31,45.31,0,0,0-2.27,6.22,38.17,38.17,0,0,0-1.52,6.59,35.4,35.4,0,0,0,.54,13.45A36.24,36.24,0,0,0,54,315.37c.12.23.44.05.36-.18-3-8.2-2.68-17.36-1.36-25.86.38-2.48,1.14-4.86,1.76-7.28C54.77,282,54.66,281.9,54.61,282Z"></path><path d="M63.12,324.76A36.61,36.61,0,0,1,60,320.08,39,39,0,0,1,57.75,315a36.71,36.71,0,0,1-2.44-10.88,28.34,28.34,0,0,1,.17-6.38c0-.1-.13-.11-.15,0a39.39,39.39,0,0,0-.88,5.71,31.27,31.27,0,0,0,.25,5.8,27.56,27.56,0,0,0,3.85,10.89,30.63,30.63,0,0,0,3.92,5.21A.44.44,0,0,0,63.12,324.76Z"></path><path d="M84.85,332.64a44.87,44.87,0,0,1-12.64-7.44,46.5,46.5,0,0,1-9.49-11,32.89,32.89,0,0,1-1.93-3.61,27.64,27.64,0,0,1-1.66-4c0-.1-.18-.07-.15,0,.33,1.26.53,2.53,1,3.76s.85,2.28,1.34,3.39a35,35,0,0,0,3.85,6.58,34.19,34.19,0,0,0,11.52,9.89,30,30,0,0,0,8,2.88A.28.28,0,0,0,84.85,332.64Z"></path><path d="M94,328.93a49.33,49.33,0,0,1-10.14-2.52,51.59,51.59,0,0,1-9.5-4.5,39.74,39.74,0,0,1-4.8-3.36c-.07-.06-.16.06-.1.12a36,36,0,0,0,18.39,10,36.91,36.91,0,0,0,6.12.62A.2.2,0,0,0,94,328.93Z"></path><path d="M138.75,241.49a76.83,76.83,0,0,0-11.54,16.6,76,76,0,0,0-6.83,19.12,74.31,74.31,0,0,0-1.44,11.3c0,.12.15.12.17,0a98.15,98.15,0,0,1,20.09-46.65C139.41,241.61,139,241.24,138.75,241.49Z"></path><path d="M170.76,279.62c-3,4.11-6.23,8.07-9.53,12s-6.62,7.64-10.19,11.17c-2,2-4.09,4.06-6.15,6.08-.07.07,0,.17.11.11a93.51,93.51,0,0,0,11.49-10.2A100,100,0,0,0,166.3,287c1.67-2.34,3.25-4.75,4.74-7.2A.17.17,0,0,0,170.76,279.62Z"></path><path d="M125,308.78c-7.32-6.19-10.16-16.13-10.26-25.42a64,64,0,0,1,.41-8.65c0-.11-.14-.11-.16,0a58.29,58.29,0,0,0-1.1,8,42.14,42.14,0,0,0,.28,7.94,29.8,29.8,0,0,0,5.12,13.07,23.78,23.78,0,0,0,5.41,5.51C125,309.42,125.21,309,125,308.78Z"></path><path d="M112.65,242.2A67.81,67.81,0,0,0,106.58,257a56.8,56.8,0,0,0-1.77,16,60.56,60.56,0,0,0,1,9c.06.35.57.23.53-.11a75.94,75.94,0,0,1,3.12-31.12,53.73,53.73,0,0,1,3.34-8.48C112.82,242.2,112.69,242.11,112.65,242.2Z"></path><path d="M191.63,248.45a191.5,191.5,0,0,1-14,15.18,200.77,200.77,0,0,1-15.4,13.61c-1.48,1.17-3,2.31-4.46,3.5s-3.18,2.54-4.84,3.66c-.09.06,0,.2.07.14,1.47-.93,3-1.78,4.47-2.7s2.87-1.86,4.28-2.85c2.86-2,5.63-4.18,8.31-6.43a121.87,121.87,0,0,0,14.64-14.63c2.54-3,5-6.08,7.24-9.28C192.07,248.45,191.78,248.27,191.63,248.45Z"></path><path d="M145,272.29a56,56,0,0,0-7.66,20.39,60.76,60.76,0,0,0-.58,6.33.47.47,0,0,0,.94.06,82.19,82.19,0,0,1,1.89-10.67,77.11,77.11,0,0,1,3.2-10.4c.75-1.9,1.48-3.79,2.35-5.64C145.17,272.28,145,272.22,145,272.29Z"></path><path d="M140.93,295.93c-.47,2.76-1.09,5.49-1.56,8.25s-.76,5.48-1.1,8.24a.25.25,0,0,0,.48.09,61.11,61.11,0,0,0,1.75-8.14c.37-2.8.46-5.61.58-8.42A.08.08,0,0,0,140.93,295.93Z"></path><path d="M186.74,212.62c-7.27,5.72-14.45,11.62-21.22,17.93-1.91,1.77-3.9,3.51-5.65,5.45-.06.06,0,.18.08.13,1.87-1.26,3.62-2.72,5.36-4.13s3.61-2.94,5.4-4.43c3.57-3,7-6.13,10.41-9.29,1.95-1.8,3.92-3.58,5.85-5.41A.17.17,0,0,0,186.74,212.62Z"></path><path d="M236.61,193.86c-7.07,4.7-13.87,9.8-19.65,16.06-1.61,1.74-3.22,3.5-4.74,5.34-.08.09.08.22.17.14,6.08-5.8,12.38-11.36,18.78-16.81,1.83-1.55,3.73-3,5.64-4.43C237,194,236.78,193.75,236.61,193.86Z"></path><path d="M266.64,228.9c-2.69,2.62-5.31,5.31-8,7.93s-5.52,5.24-8.33,7.8c-1.57,1.44-3.16,2.93-4.84,4.24-.1.07,0,.21.12.14,1.58-1.13,3.21-2.15,4.76-3.32s3-2.28,4.45-3.5a77.92,77.92,0,0,0,8-8.11,52.08,52.08,0,0,0,3.95-5.06C266.83,228.94,266.72,228.83,266.64,228.9Z"></path><path d="M312.82,134a17.76,17.76,0,0,0-8.24,7.36c-.15.28.24.56.42.28a29.54,29.54,0,0,1,3.42-4.29,16.5,16.5,0,0,1,4.47-3.21C313,134.05,312.91,133.91,312.82,134Z"></path><path d="M335.6,119.31A21.49,21.49,0,0,0,325,117.08c-.07,0-.08.13,0,.15,1.75.36,3.5.66,5.24,1.07s3.48.91,5.18,1.48C335.75,119.88,335.88,119.44,335.6,119.31Z"></path><path d="M364.64,131a17.05,17.05,0,0,0-1.73-3.57.08.08,0,0,0-.14.07c.47,1.22.81,2.47,1.18,3.71s.81,2.42,1.15,3.65c0,.05.09.05.09,0A14,14,0,0,0,364.64,131Z"></path><path d="M367.23,124.11a17.75,17.75,0,0,1-.27,3.09c-.07.51-.16,1-.26,1.53a6.1,6.1,0,0,0-.07,1.54c0,.12.19.23.26.09a5.2,5.2,0,0,0,.48-1.39c.07-.53.09-1.08.11-1.62,0-1.08-.06-2.16-.1-3.23C367.38,124,367.22,124,367.23,124.11Z"></path><path d="M366.25,132.18a.08.08,0,0,0-.15,0c.08.62.14,1.23.24,1.84s.2,1.21.34,1.82a.1.1,0,0,0,.2,0,10.32,10.32,0,0,0-.16-1.84A12.59,12.59,0,0,0,366.25,132.18Z"></path></g><path d="M366.85,167.17c-1.05.23-9.28,2-14,2.84-5,.89-15.91-.54-18.55.64s-13.93,10.45-15.88,12.62c-3,3.27-11.4,27.6-20.87,44.43-13.23,23.51-71.61,75.88-85.8,83s-51,18-76.55,23.25-72.36-2-77.65-16.72A140.78,140.78,0,0,1,51,290.53C55.36,300.22,63.88,310,69.45,313c17.44,9.46,82.92,3.09,111.68-2.27s102.2-68.34,108.31-76.68,19.6-53.39,21.71-56.85,20.67-12.43,22.57-12.84,12.59,3.32,17.26,4C355.38,169,365.68,167.36,366.85,167.17Z" style="opacity:0.1"></path><path d="M340.65,144.74a6.7,6.7,0,1,1-5.91,7.4A6.7,6.7,0,0,1,340.65,144.74Z" style="fill:#263238"></path><path d="M352.3,159.21s2.34,5.16,5,7.86,19.5,11.83,30.65,24.06,30.47,32.84,41,47.7,18.66,27.95,19.88,29.26,4.72,2.55,4.72,2.55S417.61,193.06,352.3,159.21Z" style="fill:#FF81AE"></path><path d="M451.56,269.82h0C446.36,261,438,248.4,424.74,230.58,392,186.7,365.51,170,355.43,164.75a40.66,40.66,0,0,1-3.13-5.53c65.32,33.83,101.24,111.42,101.24,111.42S452.62,270.32,451.56,269.82Z" style="opacity:0.1"></path><path d="M370.65,151.89c-.86-.06-6.46,0-10.26,3-4,3.22-10.8,3.2-10.06,3.65,10.12,6.24,23.28,12.84,33.42,23,37.71,37.9,56.22,65.65,72.16,95,1.76,3.23,2-3.63-.83-10.79s-33.89-59.2-80.55-102.5C371.82,160.75,370.65,151.89,370.65,151.89Z" style="fill:#FF81AE"></path><path d="M309.91,138.79c-2,5-4.87,9.59-6.49,14.69-.65,3.06.24,6.31,1,9.29l-.91.07.73-5.38,1,.1a15.24,15.24,0,0,0,1.45,7,19.9,19.9,0,0,0,4.64,5.37l-.51.58c-.68-1.2-2.06-3.63-2.75-4.83,5.26,5.88,7.68,5.72,15.13,5.14-1.2.1-2.37.35-3.57.47a11.26,11.26,0,0,1-10.11-3.09l.57-.43,2.21,3.58-1.28-.67a13.6,13.6,0,0,1-2.87-2.64,14.21,14.21,0,0,1-3.9-10.5l1,.09c-.23,1.54-.9,6.1-1.12,7.56l-.58-2.12c-.78-3.16-1.72-6.51-.89-9.77,1.81-5.13,4.86-9.64,7.24-14.48Z" style="opacity:0.2"></path><path d="M100.78,316.1s8.34,12.71,8.22,16.56a51.08,51.08,0,0,1-.81,8.52c-.35,1.51-3,6.41-2.8,11.55s3.27,10.85,3.61,16.33-.58,19.13-1.86,22.52-5.72,9.45-5.72,12.6,1.4,8.28,3,9.8,4.2,4.55,7.35,10.38,1.87,11,3.85,14.12,5.49,4.08,7.12,3.61A4.28,4.28,0,0,0,126,438c0-2.22-4.44-6.65-5.49-10.5s-.11-12,1.17-12.83,12.13,11,15.17,12.36S149.72,430,153.8,433s12.84,9.69,15.75,7.35,2.8-7.7,1-9.45-8.28-3-12.48-5.6-5.25-4-5.25-4,8.75,1.4,11.67,2.8,9,2.33,9.21-2.1-1.63-6.65-6.06-6.89-11.79-1.28-15.4-3.15-11.86-2.18-15-4.9-8-8.13-8.05-9.71.26-3.5-.7-5.86-3.15-2.8-3.42-6.56,1.32-17.5,2.45-21.88,5.08-14.52,6.13-18.46.52-12,1-15.55,6.91-11,8.22-12c0,0-6.82,2.45-9,3.59s-4.64,2.1-4.64,2.1l3-3.24S125,323.8,122,324.76a28.47,28.47,0,0,1-5.68-1.32,61.47,61.47,0,0,1-6.65-3.67l3.23,2.8a11.16,11.16,0,0,1-4.9-2A74.77,74.77,0,0,0,100.78,316.1Z" style="fill:#FF81AE"></path><path d="M100.78,316.1s8.34,12.71,8.22,16.56a51.08,51.08,0,0,1-.81,8.52c-.35,1.51-3,6.41-2.8,11.55s3.27,10.85,3.61,16.33-.58,19.13-1.86,22.52-5.72,9.45-5.72,12.6,1.4,8.28,3,9.8,4.2,4.55,7.35,10.38,1.87,11,3.85,14.12,5.49,4.08,7.12,3.61A4.28,4.28,0,0,0,126,438c0-2.22-4.44-6.65-5.49-10.5s-.11-12,1.17-12.83,12.13,11,15.17,12.36S149.72,430,153.8,433s12.84,9.69,15.75,7.35,2.8-7.7,1-9.45-8.28-3-12.48-5.6-5.25-4-5.25-4,8.75,1.4,11.67,2.8,9,2.33,9.21-2.1-1.63-6.65-6.06-6.89-11.79-1.28-15.4-3.15-11.86-2.18-15-4.9-8-8.13-8.05-9.71.26-3.5-.7-5.86-3.15-2.8-3.42-6.56,1.32-17.5,2.45-21.88,5.08-14.52,6.13-18.46.52-12,1-15.55,6.91-11,8.22-12c0,0-6.82,2.45-9,3.59s-4.64,2.1-4.64,2.1l3-3.24S125,323.8,122,324.76a28.47,28.47,0,0,1-5.68-1.32,61.47,61.47,0,0,1-6.65-3.67l3.23,2.8a11.16,11.16,0,0,1-4.9-2A74.77,74.77,0,0,0,100.78,316.1Z" style="opacity:0.1"></path><path d="M167.36,439.41s8.07-.34,10.19,5.83c.22.63.45.49.69-1s-1.58-8.86-8.74-10.24c0,0-2.05,1.18-2.49,2.23S167.36,439.41,167.36,439.41Z" style="fill:#263238"></path><path d="M171,424.11s6.85-1.33,9.4,4c.26.55.42.39.42-.94s-2.47-7.81-8.45-8.18a6.26,6.26,0,0,0-1.73,2.31A7.72,7.72,0,0,0,171,424.11Z" style="fill:#263238"></path><path d="M119.25,440a11,11,0,0,1,2.26,9.95c-.13.59.42.62,1.25-.41a10.83,10.83,0,0,0,1.48-11.44,6.21,6.21,0,0,0-2.88-.05A7.72,7.72,0,0,0,119.25,440Z" style="fill:#263238"></path><g style="opacity:0.2"><path d="M123.4,337.28a103,103,0,0,1-14.74.79c0-.35.07-.71.1-1.1Z"></path><path d="M134.18,341.38q0,.48-.09.93a89.59,89.59,0,0,1-9.21-.74Z"></path><path d="M127.82,362.13c-.1.34-.19.66-.27.95,0,0,0,0,0,.05a91.24,91.24,0,0,1-10.51-.78Z"></path><path d="M114.07,413.72c-2.32,1.24-4.64,2.35-6.89,3.34-.18-.25-.36-.48-.53-.7Z"></path><path d="M127,365.57l-.12.64c-3.3-.23-5.26-.53-5.26-.53Z"></path><path d="M125.13,385.22a89.38,89.38,0,0,1-9.48-.75l9.43-.19c0,.25,0,.48,0,.68A2.06,2.06,0,0,0,125.13,385.22Z"></path><path d="M133.73,344.39a1.55,1.55,0,0,1,0,.23v0a94.8,94.8,0,0,1-18-.55Z"></path><path d="M130.74,400.13a81.39,81.39,0,0,1-8.39,2.21l8.05-2.68Z"></path><path d="M156.12,426.59c-1,2.1-2,4.08-3.06,5.91l-.43-.25Z"></path><path d="M143.46,418.24a92.23,92.23,0,0,1-8.46,7.51l-.43-.36Z"></path><path d="M121,356.49a95.63,95.63,0,0,1-15,.21c0-.15-.06-.3-.1-.45Z"></path><path d="M118.08,386.35a90.45,90.45,0,0,1-10,.4c0-.18,0-.37.07-.56Z"></path><path d="M110.73,370.79a30,30,0,0,0,11.53.33Z"></path><path d="M115.77,388.86a30.12,30.12,0,0,1-8,.25c0-.15,0-.31.08-.48Z"></path><path d="M118,406.42a29.87,29.87,0,0,0,10.79-4.07Z"></path><path d="M132.69,414.38a28.83,28.83,0,0,1-5.23,4.55l-.4-.37Z"></path><path d="M166.08,415a24.7,24.7,0,0,1-1.33,2.78l.89-2.82Z"></path><path d="M162.88,427.52l.51.19a27.65,27.65,0,0,1-2.17,4.26Z"></path><path d="M165.25,421.18a24.09,24.09,0,0,1-.65,3l-.06,0-.34-.15Z"></path><path d="M164.08,414.83a29.16,29.16,0,0,1-2.58,6.42l2-6.49Z"></path><path d="M121.63,328.89a30,30,0,0,0,11.52.33Z"></path></g><path d="M152.87,421.33c-2.86-2.08-5.89-4.64-8.92-6.4-5.16-2.63-12.88-4.25-14.08-10.9,2.17,6.26,9.38,7.2,14.54,10.08a49.85,49.85,0,0,1,8.46,7.22Z" style="opacity:0.2"></path></g></svg>